<svg xmlns="http://www.w3.org/2000/svg" xmlns:xlink="http://www.w3.org/1999/xlink" viewBox="0 0 100 125" x="0px" y="0px"><defs><clipPath id="a"><rect width="100" height="100"/></clipPath></defs><g clip-path="url(#a)"><path data-name="Tracé 32390" d="M736.411,140.04q1.943.827,3.948,1.487c.905.3,1.473.546,1.462,1.548a.145.145,0,0,1-.166.142q-.281-.042.126.407a.33.33,0,0,1,.082.269q-.043.306-.543.191a9.15,9.15,0,0,0-3.424-.139c-.2.029-.448-.046-.6.194a.134.134,0,0,0-.014.108l.89,3.309a.035.035,0,0,0,.02.026.023.023,0,0,0,.019,0,.1.1,0,0,0,.05-.116l-.829-3.214a.12.12,0,0,1,.018-.1.117.117,0,0,1,.085-.05,9.249,9.249,0,0,1,1.508-.035.271.271,0,0,0-.212.03q-.054.034.009.055a20.329,20.329,0,0,0,2.183.455,3.306,3.306,0,0,0,.918.077q.4-.014.223.352-.025.053.03.037l.478-.128a20.273,20.273,0,0,1,4.892-1.238.078.078,0,0,0,.068-.063c.3-1.55.964-3.41,2.874-3.261,1.317.1,1.836,2.385,1.872,3.437a.1.1,0,0,1-.1.106,20.567,20.567,0,0,0-4.286.581,4.156,4.156,0,0,1-1.361.2,7.6,7.6,0,0,0-4.529,1.633q-.052.033.006.037a.106.106,0,0,0,.054-.006c1.335-.6,3.883-1.4,5.307-.733,1.224.568,1.728,2.358,2.778,3.42a5.417,5.417,0,0,0,2.449.53q3.331.215,6.661.435a37.557,37.557,0,0,0,4.976.039,5.32,5.32,0,0,0,1.682-.4.106.106,0,0,0,.061-.081l.023-.117a.049.049,0,0,1,.027-.034.056.056,0,0,1,.046,0,.484.484,0,0,1,.317.4.07.07,0,0,1-.049.076,14.351,14.351,0,0,1-2.072.43,24.627,24.627,0,0,1-4.1.056q-2.241-.113-4.472-.358a2.243,2.243,0,0,0-1.064.058,5.894,5.894,0,0,1-2.481-.126c-1.45-.221-2.05-.324-2.834-1.475q-.554-.814-1.1-1.633c-1.232-1.86-3.894-.917-5.651-.357-.906.289-1.7.706-1.552,1.777.116.821,1.607,1.335,2.277,1.517q.139.037,0,.064c-1.095.213-3.011.643-3.827-.24-.546-.593.418-1.907.808-2.378,1.4-1.691,4-2.469,6.081-2.807.344-.056.8-.03,1.2-.127a.07.07,0,0,0,.054-.074c-.058-.554-3.938.652-4.269.749a11.618,11.618,0,0,0-5,3.032,11.568,11.568,0,0,1-1.96,1.834,10.542,10.542,0,0,1-1.866.866q-.064.025-.015.063a.251.251,0,0,0,.251.015,6.6,6.6,0,0,0,2.544-1.4,16.318,16.318,0,0,1,3.187-2.87l.059.009c-.758.9-2.928,3.166-.474,3.734q.055.013,0,.016a37.168,37.168,0,0,0-4.365.473.037.037,0,0,0,.017.037.1.1,0,0,0,.054.018q10.044.331,20.066,1.074.525.039,2.335.125a45.24,45.24,0,0,1,6.921.736c.673.143,1.475.454,2.233.63l.029.049a.133.133,0,0,0-.116.009.079.079,0,0,0,0,.1c.281.494.837.43,1.318.491a9.1,9.1,0,0,1,1.753.518,4.257,4.257,0,0,1,1.1.772.242.242,0,0,1,.063.094c.076.2.266.289.357.418a1.447,1.447,0,0,1,.269.791,1.754,1.754,0,0,0,.2.621.253.253,0,0,0,.067.092c.3.262.268.575.414.888a2.407,2.407,0,0,1,.221.985.263.263,0,0,1-.255.295c-.319.041-.867-.144-1.09.087a.124.124,0,0,1-.1.04l-.193-.016c-.041,0-.077.016-.081.046a.117.117,0,0,0,.012.063l-.146-.059a.159.159,0,0,0,.023-.156.117.117,0,0,0-.081-.071c-.271-.081-.7-.006-.759.326a3,3,0,0,0,.243,1.322,6.81,6.81,0,0,1,.133.7q.125.517.236,1.036a8,8,0,0,0,.677,2.234.166.166,0,0,1,.084.069.332.332,0,0,1,.055.184.249.249,0,0,1-.149.186,4.339,4.339,0,0,0-1.579,1.045q0,.138.1.139,2.6.053,5.2-.11c.05,0,.3-.06.039-.119a.146.146,0,0,0,.09-.062.031.031,0,0,0,0-.035.05.05,0,0,0-.035-.021c-.132-.018-.076-.126,0-.164a3.235,3.235,0,0,1,1.738.105c.533.1,1.581.188,1.842-.4a.092.092,0,0,1,.081-.055,2.743,2.743,0,0,0,1.185-.328.389.389,0,0,1,.414.019q.213.137.335-.033a.156.156,0,0,1,.089-.063,5.264,5.264,0,0,1,1.194-.137.651.651,0,0,0,.422-.168.182.182,0,0,1,.1-.033c.086,0,.524-.035.544-.158a.033.033,0,0,0-.02-.031.111.111,0,0,0-.054-.014l-.324-.008.609-.105q.069-.012,0-.028l-1.188-.271a.92.92,0,0,0-.473-.393.092.092,0,0,1-.065-.077l0-.266a.106.106,0,0,1,.059-.088,7.075,7.075,0,0,1,2.032-.567,2.033,2.033,0,0,1,1.154.042.915.915,0,0,1,.425.033.194.194,0,0,0-.057.181.087.087,0,0,0,.08.06,23.534,23.534,0,0,0,5,.207.233.233,0,0,0,.1-.041,6.1,6.1,0,0,1,1.881-.12.205.205,0,0,0,.108-.029.392.392,0,0,1,.406.012.074.074,0,0,0,.087-.014l.471-.434a.112.112,0,0,1,.1-.019,1.316,1.316,0,0,0,.47.036,15.377,15.377,0,0,1,2.521.008.363.363,0,0,1,.267.144c.094.126.019.227-.117.239a17.825,17.825,0,0,0-2.631.4c-.384.088-.822.084-1.235.2a.163.163,0,0,0-.087.068.445.445,0,0,1-.23.184c-.039.013-.065.037-.066.058a.066.066,0,0,0,.03.051l-.068.058q-.191.108-.1.257a.152.152,0,0,1-.1.227q-1.146.218-2.307.33A29.583,29.583,0,0,1,787,165.2a3.519,3.519,0,0,0-.856.12c-1.5.365-3.247.6-4.674.895q-2.714.558-5.33,1.013-.17.029-.337.067-.524.115-.918.206a4.145,4.145,0,0,1-.929.106c-.421,0-1.133-.145-1.372.289a84.07,84.07,0,0,1-9.18-.737,1.6,1.6,0,0,1-.492-.172.123.123,0,0,1-.028-.194c.332-.333.887-.3,1.335-.407q.056-.014.006-.043a5.774,5.774,0,0,1-2.056-1.98l-.082-.139a.1.1,0,0,0-.087-.051,30.944,30.944,0,0,0-3.682-.028c-1.077.1-2.083.053-3.134.127a8,8,0,0,1-1.018-.166c-1.014-.088-2.2-.357-2.971-.487-1.059-.178-1.6-.158-2.439-.337q-1.826-.389-5.418-.919c-1.331-.2-3.149-.559-4.993-.807a7.618,7.618,0,0,0-2.964-.14q-1.362.281-2.744.437c-.91.1-1.783.31-2.694.4a13.389,13.389,0,0,1-3.227.057,7.171,7.171,0,0,1-2.576-.682c-2.99-2.015-3.583-6.929-2.2-10.023a3.971,3.971,0,0,1,1.994-2.1q.467-.106.269-.32a3.509,3.509,0,0,0,1.587-.118.035.035,0,0,0,.033-.028,8.565,8.565,0,0,0-1.152-.007.424.424,0,0,1-.475-.31l-.882-2.541a.354.354,0,0,1,.167.095.075.075,0,0,0,.088.014.384.384,0,0,1,.345-.046,12.244,12.244,0,0,0,1.84.6q1.173.221,2.33.54a.42.42,0,0,1,.311.28l.377,1.13a.193.193,0,0,0,.157.136c.926.11,2.039.027,2.8.187a4.541,4.541,0,0,1,1.622.7c.127.087.248.075.318-.064l.357.317q.048.042.042-.023c-.044-.478-.129-1.519.5-1.635q1.626-.3,3.247-.606a.054.054,0,0,0,.042-.067l-1.016-3.6a.069.069,0,0,0-.074-.05l-1.545.159a2.438,2.438,0,0,0-1.185-.137c-.615.08-1.223.125-1.84.18-.73.066-1.524.28-2.3.368a.064.064,0,0,0-.06.064q.011.154.2.153l-1.116.171-.047-.026a2.445,2.445,0,0,0-.026-.9.058.058,0,0,1,.009-.047.062.062,0,0,1,.042-.025c4.074-.508,7.757-.871,12.242-1.413q.061-.007.015-.046c-.412-.342-1.446-.062-2.2,0a.377.377,0,0,0-.131-.2.131.131,0,0,1-.056-.091.3.3,0,0,1,.164-.239,7.858,7.858,0,0,0-2.869-.832.5.5,0,0,0-.095-.45q.528.028.292-.322a.366.366,0,0,1-.006-.2.1.1,0,0,1,.075-.068.106.106,0,0,0,.082-.138Zm13.544,1.166a5.079,5.079,0,0,0-.93,2.659.051.051,0,0,0,.013.041.046.046,0,0,0,.039.014l1.606-.138a.06.06,0,0,0,.054-.066,7.905,7.905,0,0,0-.606-2.481.105.105,0,0,0-.175-.029Zm-1.354.606a8.919,8.919,0,0,0-.71,2.36.042.042,0,0,0,.007.031.03.03,0,0,0,.025.013c.066,0,.586-2.039.745-2.412C748.729,141.665,748.652,141.7,748.6,141.812Zm-24.827,9.635c-2.191,1.606-1.951,5.587-.53,7.616a.493.493,0,0,0,.117.557,2.323,2.323,0,0,0,2.277.916,3.51,3.51,0,0,0,2.428-2.593,8.969,8.969,0,0,0,.241-1.769,7.62,7.62,0,0,0-.191-1.5,5.661,5.661,0,0,0-.915-2.364,4.164,4.164,0,0,0-1.018-1.068,2.288,2.288,0,0,0-2.372-.087Q723.563,151.311,723.774,151.447Zm11.209.051q-.138.454.342.546a16.793,16.793,0,0,0,1.317,2c.856,1.123,1.523,2.323,2.258,3.5a.055.055,0,0,1-.043.084,27.361,27.361,0,0,1-3.44.025.105.105,0,0,0-.1.042c-.065.1.085.145.165.147a12.052,12.052,0,0,0,3.62-.14.083.083,0,0,0,.046-.123l-1.624-2.608q.124.044.144-.048a.067.067,0,0,1,.062-.056q.14,0,.178-.071a.2.2,0,0,1,.248-.085,20.178,20.178,0,0,0,4.776,1.413q1.581.261,3.159.553c.7.129,1.566.189,2.341.351a14.426,14.426,0,0,0,1.516.258,18.873,18.873,0,0,1,3.007.475,1.623,1.623,0,0,0,.622.029c.233-.034.475-.344.5.216a10.628,10.628,0,0,1,.015,1.111,2.359,2.359,0,0,0,.035,1.263,3.182,3.182,0,0,1,.15.848,2.14,2.14,0,0,1-.765-.092l-1.021-.425-.792-.189a7.564,7.564,0,0,0-2.456-.175,12.328,12.328,0,0,0-3.145-.7c-.352-.03-.7-.194-1.09-.2-.425-.011-.71-.2-1.145.04q-3.945-.708-7.925-1.173a5.889,5.889,0,0,1-.615-.105.147.147,0,0,0-.11.012.19.19,0,0,0-.069.092.482.482,0,0,0-.229.434q-.225.132-.054.3a.5.5,0,0,0,.109.212.176.176,0,0,0,.1.054q1.2.242,2.413.378c.342.039.706.153,1.064.2,1.369.182,2.7.517,3.913.675.787.1,1.619.295,2.235.385q3.018.437,4.2.676a14.764,14.764,0,0,0,1.846.273.207.207,0,0,1,.1.046c.058.043.133.021.184.029q1.57.258,3.137.521a5.669,5.669,0,0,0,1.638-.041.142.142,0,0,0,.1-.05q.049-.071-.039-.116,2.507-.135,5.016-.233c.111,0,.647-.053.214-.26a.332.332,0,0,0-.078-.243.131.131,0,0,0-.1-.043l-.4-.011q.179-.025.354-.043c.177-.018.2-.2-.007-.188q-2.528.135-5.2.168a.51.51,0,0,1-.421-.2c-.69-.856-.68-3.514-.621-4.576.039-.721.078-1.169.787-1.553a11.27,11.27,0,0,1,6.011-1.014q-.517-.1-.382.167a.1.1,0,0,0,.088.051,18.379,18.379,0,0,1,2.239.338c.411.063.729.324,1.109-.1a.143.143,0,0,0,.033-.1q-.008-.268.287-.306a.19.19,0,0,1,.108.023q.323.167.433-.16c.013-.358-3.108-.7-3.563-.69q-.043-.149.146-.189,1.948.209,3.86.545a4.764,4.764,0,0,0,.88-.016q.075-.006,0-.023l-.415-.1c.215-.009.255-.136.048-.2a8.3,8.3,0,0,1-.828-.315,26.494,26.494,0,0,0-4.672-.675,42.551,42.551,0,0,0-4.49-.214c-1.305.06-3.226-.135-4.914-.192-1.066-.037-2.1-.118-3.3-.1l-12.985-.643a.232.232,0,0,0-.222.135Q734.843,151.378,734.983,151.5Zm2.617,4.913-.032-.025a.238.238,0,0,0-.1-.048q-.815-.14-1.627-.3c-.254-.05-.35.17-.055.211q.935.131,1.861.316a.353.353,0,0,1,.236.226q.028.061-.039.054-1.118-.115-2.162-.253c-.091-.012-.194.019-.173.129a.085.085,0,0,0,.075.063q1.131.157,2.268.234c.227.015.377.122.373.356q0,.051-.048.018a15.558,15.558,0,0,0-2.642-.221.134.134,0,0,0-.1.035q-.106.1.084.123,1.481.171,2.973.2.06,0,.03-.049-.7-1.187-1.433-2.358a10.439,10.439,0,0,0-.943-1.323,7.417,7.417,0,0,1-.475-.719q-.069-.1-.08.02-.048.538.312.677a.192.192,0,0,1,.09.066l.986,1.39q.035.049-.025.043c-.1-.012-1.28-.354-1.255-.178a.1.1,0,0,0,.068.076c.416.133,1.441.23,1.6.637q.022.055-.036.046a9.731,9.731,0,0,1-1.373-.332c-.357-.113-.437.14-.035.221l1.415.285c.2.041.344.153.3.366a.026.026,0,0,1-.041.015Zm-1.486-2.221c.013-.051-.087-.12-.224-.154s-.257-.021-.27.029.087.12.224.154S736.1,154.241,736.113,154.19Zm-.388.487a3.549,3.549,0,0,0,.816.255.089.089,0,0,0,.087-.011.054.054,0,0,0,.019-.047c0-.028-.033-.057-.077-.073a3.938,3.938,0,0,0-.761-.294Q735.52,154.522,735.726,154.678Zm26.3,5.038a6.842,6.842,0,0,0,.234,1.988q-.383-.006-.23.386a6.076,6.076,0,0,0,1.466,2.393,3.83,3.83,0,0,0,1.078.641,2.772,2.772,0,0,0,2.962-.723c1.544-1.491,1.62-3.924,1.021-5.85a5.216,5.216,0,0,0-.373-.773c-.947-1.9-3.045-3.2-5.01-1.668a3.126,3.126,0,0,0-.908,1.224c-.288.647-.843,2.6-.357,3.194q.06.074.065-.021Z" transform="translate(-709.232 -105.761)"/><path data-name="Tracé 32392" d="M734.508,159.1a.129.129,0,0,1-.058.1.126.126,0,0,1-.115.012,25.364,25.364,0,0,0-4.768-1.365c-.495-.09-.709-.44-.881-.919a5.685,5.685,0,0,1-.473-1.7.16.16,0,0,1,.214-.144c.869.309,1.711.619,2.612.889a26.64,26.64,0,0,1,2.846.964C734.594,157.265,734.536,158.46,734.508,159.1Z" transform="translate(-715.396 -119.042)"/><path data-name="Tracé 32393" d="M965.381,180.2a13.6,13.6,0,0,1,2.127,1.721.175.175,0,0,1,.054.095.3.3,0,0,0,.117.173.062.062,0,0,1,.021.083l-.087.119a.137.137,0,0,1-.1.047c-1.507.122-2.838.075-4.261.058-1.166-.014-2.591-.136-3.893-.136q-.278,0-.807-.057c-.466-.05-.9.019-1.381-.069a2.128,2.128,0,0,0-.95.042.107.107,0,0,1-.1-.023c-.207-.17-.452-.1-.643-.14a9.671,9.671,0,0,0-1.74-.174,1.5,1.5,0,0,1-.938-.637q-.708-1.08-1.408-2.166a2.07,2.07,0,0,0-.7-.623.139.139,0,0,1-.062-.088l-.037-.174a.1.1,0,0,1,.033-.094,2.816,2.816,0,0,1,1.653-.4c.786-.073,2.434-.518,3.123-.158a1.4,1.4,0,0,1,.613.606,9.818,9.818,0,0,0,1.944,3,2.128,2.128,0,0,0,1.1.356.319.319,0,0,0,.305-.119,3.373,3.373,0,0,1,2.166-1.032c.453-.078.918-.2,1.345-.243a16.1,16.1,0,0,1,2.022-.087A1.085,1.085,0,0,1,965.381,180.2Z" transform="translate(-911.765 -138.797)"/><path data-name="Tracé 32395" d="M893.607,193.213a1.486,1.486,0,0,1,1.18-1.094,12.637,12.637,0,0,1,3.685-.733,2.133,2.133,0,0,1,2.019,1.356,10.258,10.258,0,0,0,1.848,2.3q.043.041-.015.034-3.321-.358-6.638-.749C895.036,194.247,893.483,194.16,893.607,193.213Z" transform="translate(-861.438 -151.101)"/><path data-name="Tracé 32398" d="M934.909,222.676q.089.061-.015.034c-4.068-1.009-7.842-1.092-12.248-1.412-2.143-.154-4.267-.281-6.417-.482a5.7,5.7,0,0,1-1.093-.206,36.153,36.153,0,0,1-3.818-1.34q-.738-.311.057-.216,4.193.5,8.394.942a8.055,8.055,0,0,0,2.645.12,2.059,2.059,0,0,1,.627-.055q2.479.2,4.961.32a20.013,20.013,0,0,1,5.437,1.55A6.264,6.264,0,0,1,934.909,222.676Z" transform="translate(-876.771 -175.512)"/><path data-name="Tracé 32400" d="M738.955,243.89a6.46,6.46,0,0,1,.175,3.509c-.456,1.825-2.132,2.92-3.437.891a5.973,5.973,0,0,1-.363-5.033C736.4,240.936,738.314,242.191,738.955,243.89Zm-1.888,5.117a.164.164,0,0,0,.16.018c.016-.007.008-.025-.023-.054a4.13,4.13,0,0,1-1.169-1.824c-.4-1.264-.5-3.7.786-4.547q.063-.042-.007-.047a.2.2,0,0,0-.109.03,3.013,3.013,0,0,0-1.14,2.655A4.506,4.506,0,0,0,737.067,249.007Zm1.012-2.947c.163.012.311-.211.331-.495s-.1-.525-.259-.536-.311.211-.331.5S737.916,246.049,738.079,246.061Z" transform="translate(-721.334 -195.783)"/><path data-name="Tracé 32401" d="M848.966,242.264a10.119,10.119,0,0,0,1.406.136,90.116,90.116,0,0,1,10.262.717q.044.118-.085.128l-.79-.029q-4.393-.339-6.755-.38-2.142-.037-3.515-.174a.02.02,0,0,0-.022.013c-.013.05,2.185.568,2.4.62-.715.166.953.46.978.467a2.8,2.8,0,0,0,.6.124.122.122,0,0,1,.083.048,4.023,4.023,0,0,0,1.349.23c.338.014.608.163.95.206.84.109,1.677.285,2.517.406.149.021.255.1.4.123q3.039.506,6.112.728c.311.022.623.112.949.15q.324.039.087.261c-.226.214-.126.721-.235.836a.564.564,0,0,1-.559.175c-.269-.056-1.833-.29-1.861-.318a.136.136,0,0,0-.068-.042c-1.808-.282-3.6-.655-5.419-.876q-.829-.1-3.726-.673c-.746-.147-1.485-.447-2.242-.659a.182.182,0,0,0-.112,0,.5.5,0,0,0-.236.187,5.939,5.939,0,0,1-2.837-1.716q.116,0,.118-.084a.109.109,0,0,0-.059-.089,1.361,1.361,0,0,1-.285-.206C847.817,241.954,848.829,242.243,848.966,242.264Z" transform="translate(-821.352 -195.952)"/><ellipse data-name="Ellipse 211" cx="0.335" cy="0.186" rx="0.335" ry="0.186" transform="translate(16.975 49.431) rotate(91.8)"/><path data-name="Tracé 32406" d="M1257.043,295.469l.614-.009a.117.117,0,0,1,0,.2,5.523,5.523,0,0,0-2.343.469.16.16,0,0,0-.078.076q-.194.4-.24-.044a.106.106,0,0,1,.041-.095,2.205,2.205,0,0,1,1.016-.43Z" transform="translate(-1180.562 -243.001)"/><path data-name="Tracé 32407" d="M1149.953,310.2l.522.288c.553.3,1.193.475,1.709.731.685.342,2.134.75,2.564,1.422a5.833,5.833,0,0,1,.173,1.877.136.136,0,0,1-.061.121.139.139,0,0,1-.136.01c-1.3-.615-2.453-1.172-3.862-1.8a4.6,4.6,0,0,1-2.268-1.564q-.551-.855-1.055-1.82-.129-.247.132-.146Z" transform="translate(-1085.637 -255.215)"/><path data-name="Tracé 32409" d="M1148.4,317.314a.263.263,0,0,1-.22-.291,4.644,4.644,0,0,0-.383-2.091,9.06,9.06,0,0,1-.612-2c.008-.01.022-.01.038,0a.127.127,0,0,1,.043.049q.514,1,1.116,1.937a4.341,4.341,0,0,0,1.766,1.153q2.206,1.057,4.407,2.127a.134.134,0,0,1,.072.08c.077.233-.136.255-.3.229Q1151.315,318.037,1148.4,317.314Z" transform="translate(-1085.355 -258.425)"/><path data-name="Tracé 32432" d="M743.018,140.475l-.478.127q-.055.015-.03-.037.174-.366-.223-.352a3.305,3.305,0,0,1-.918-.077,20.333,20.333,0,0,1-2.183-.455q-.063-.021-.009-.055a.271.271,0,0,1,.212-.03,17.957,17.957,0,0,1,2.178.208c.422.067.979.112.726-.556a.2.2,0,0,1-.009-.11,1.591,1.591,0,0,0-.924-2.017q-2.312-.786-4.609-1.631a.064.064,0,0,0-.049,0,.037.037,0,0,0-.023.033q0,.043.077.044a.106.106,0,0,1-.082.138.105.105,0,0,0-.075.068.367.367,0,0,0,.006.2q-6.149.6-12.357,1.349c-.047.005-.049.019-.007.04a1.7,1.7,0,0,0,1.068.178q5.5-.628,11-1.245a.5.5,0,0,1,.095.45q-4.7.523-9.39,1.064-.51.06-1.022.069-.618-.022-.029.049a8.167,8.167,0,0,0,3.977.647q4.214-.371,9.334-1a.3.3,0,0,0-.164.239.132.132,0,0,0,.056.091.377.377,0,0,1,.131.2l-10.346,1.112a.048.048,0,0,0-.034.022.045.045,0,0,0,0,.039,5.97,5.97,0,0,1,.3,1.262l.047.026a4.3,4.3,0,0,1-.2,2.093.556.556,0,0,0,0,.363,5.092,5.092,0,0,1,.223,1.1.063.063,0,0,0,.062.058c1.545.037,3.48-.106,4.662,1.094-.07.139-.191.151-.318.064a4.541,4.541,0,0,0-1.622-.7c-.758-.16-1.87-.077-2.8-.187a.193.193,0,0,1-.157-.136l-.377-1.13a.42.42,0,0,0-.311-.28q-1.157-.319-2.33-.54a12.246,12.246,0,0,1-1.84-.6.384.384,0,0,0-.345.046.075.075,0,0,1-.088-.014.354.354,0,0,0-.167-.095c-.039-.125-.233-.834-.425-.909-.038-.015-.051,0-.039.041q.588,1.965,1.352,3.872.2.214-.269.32-1.2-3.24-2.18-6.568-.253-.859-.473-1.742a.149.149,0,0,1,.128-.184c.635-.07,1.3.586,2.018.5q6.119-.723,12.246-1.364a.059.059,0,0,0,.04-.021.052.052,0,0,0,.012-.042l-.074-.428q-.048-.276.208-.182,2.673.984,5.436,1.907a1.525,1.525,0,0,1,1.022,1.424c.085.643-.166,1.242.278,1.7a.164.164,0,0,1,.054.1Zm-14.486,1.857a24.4,24.4,0,0,1-4.462-1.159q-.062-.022-.036.035c.271.606,3.772,1.275,4.462,1.392a.233.233,0,0,0,.308-.225,8.452,8.452,0,0,0-.025-2.537c-.133-.812-1.019-1.041-1.7-1.266q-2.276-.747-4.579-1.526-.257-.088-.273.184a7.891,7.891,0,0,0,.571,2.284c.165.56.485.7,1.068.855.466.122,4.817,1.266,4.762,1.556a.047.047,0,0,1-.028.034.077.077,0,0,1-.052,0q-1.834-.471-3.7-.826a.066.066,0,0,0-.049.009.048.048,0,0,0-.023.038q0,.063.082.078a32.609,32.609,0,0,1,3.628.841q.166.049.123.185a.069.069,0,0,1-.079.044Z" transform="translate(-709.577 -101.29)"/><path data-name="Tracé 32433" d="M800.139,174.716l-5.184.629q-.194,0-.2-.153a.064.064,0,0,1,.06-.064c.78-.089,1.574-.3,2.3-.368.616-.055,1.225-.1,1.84-.18A2.438,2.438,0,0,1,800.139,174.716Z" transform="translate(-774.151 -136.241)"/><path data-name="Tracé 32435" d="M1092.6,229.259l.648.18.058.049-.409.156-.117.029a2.507,2.507,0,0,1-1.237-.572q-.039-.033.014-.043l.291-.057a.2.2,0,0,1,.111.006Z" transform="translate(-1036.217 -184.311)"/><path data-name="Tracé 32436" d="M738.125,240.722a2.392,2.392,0,0,0,3,.987,4.047,4.047,0,0,0,1.669-3.08,6.994,6.994,0,0,0-.827-4.3c-.664-1.2-1.989-2.024-3.311-1.222q-.211-.136.039-.292a2.288,2.288,0,0,1,2.372.087,4.164,4.164,0,0,1,1.018,1.068,5.661,5.661,0,0,1,.915,2.364,7.625,7.625,0,0,1,.191,1.5,8.974,8.974,0,0,1-.241,1.769,3.511,3.511,0,0,1-2.428,2.593,2.323,2.323,0,0,1-2.277-.916A.493.493,0,0,1,738.125,240.722Z" transform="translate(-724.113 -187.42)"/><path data-name="Tracé 32437" d="M734.4,246.235c-1.418.132-2.742-1.641-2.957-3.958s.76-4.3,2.179-4.435,2.742,1.641,2.957,3.958S735.816,246.1,734.4,246.235Zm1.761-2.556a5.985,5.985,0,0,0-.259-3.543,3.954,3.954,0,0,0-.774-1.3c-1.611-1.718-3.058.036-3.348,1.625-.312,1.7.035,4.048,1.551,5.141C734.876,246.715,735.956,244.953,736.158,243.678Z" transform="translate(-718.22 -192.117)"/><path data-name="Tracé 32438" d="M838.309,238q6.413.326,12.833.5,2.153.09,4.307.138c1.74.037,3.563.122,5.345.149a47.363,47.363,0,0,1,5.726.443q1.128.154,2.265.274a8.3,8.3,0,0,0,.828.315c.207.067.167.193-.048.2q-1.58-.282-3.178-.421c-.228-.02-.487-.1-.732-.13-6.2-.634-12.466-.612-18.7-.772-2.236-.057-4.506-.2-6.786-.125-.137-.021-1.149-.31-.6.309a1.362,1.362,0,0,0,.285.206.108.108,0,0,1,.058.089q0,.089-.118.084-.023-.068-.063-.076-.066-.013-.035.067a3.082,3.082,0,0,0,1.819,1.645,20.345,20.345,0,0,0,5.281,1.5q4.982.8,9.961,1.625a.384.384,0,0,0,.49-.325,4,4,0,0,0,.087-1.187.042.042,0,0,0-.034-.043c-.1-.008-.194,1-.347,1.156s-.413.064-.6.034q-5.65-.923-11.3-1.883a13.851,13.851,0,0,1-2.426-.8.5.5,0,0,1,.236-.187.182.182,0,0,1,.112,0c.757.212,1.5.511,2.242.659q2.9.572,3.725.673c1.819.221,3.611.594,5.419.876a.135.135,0,0,1,.068.042c.028.028,1.592.262,1.861.318a.564.564,0,0,0,.559-.175c.109-.116.009-.622.235-.836q.237-.222-.087-.261c-.325-.037-.638-.128-.949-.15q-3.073-.221-6.112-.728c-.142-.023-.248-.1-.4-.123-.84-.12-1.677-.3-2.517-.406-.342-.043-.612-.192-.95-.206a4.023,4.023,0,0,1-1.349-.23.122.122,0,0,0-.083-.048,2.8,2.8,0,0,1-.6-.124c-.025-.007-1.693-.3-.978-.467l.643.126a2.739,2.739,0,0,0,.788.144,7.272,7.272,0,0,0,1.025.234q5.074.85,6.58,1.082a39.248,39.248,0,0,0,4.989.522.812.812,0,0,0,.4-.1,14.955,14.955,0,0,1,9.5-1.374,7.55,7.55,0,0,0,1.656.26q-.11.328-.433.16a.19.19,0,0,0-.108-.023q-.295.039-.287.306a.143.143,0,0,1-.033.1c-.38.428-.7.167-1.109.1a18.374,18.374,0,0,0-2.239-.338.1.1,0,0,1-.088-.051q-.135-.267.382-.167a14.329,14.329,0,0,1,2.5.316c.094.02.4.05.233-.151a.17.17,0,0,0-.1-.055,13.941,13.941,0,0,0-8.507.607c-1.071.435-1.174,1.111-1.2,2.159-.029,1.39-.06,3.371.758,4.413a.6.6,0,0,0,.489.24q2.459.014,4.914-.124l.4.011a.131.131,0,0,1,.1.043.331.331,0,0,1,.078.243q-2.448.12-4.9.244a9.725,9.725,0,0,1-1.68-.064q-2.111-.316-4.218-.666-7.687-1.274-15.373-2.56a.483.483,0,0,1,.229-.434q.044.081.092.089,12.751,2.077,17.437,2.853a18.673,18.673,0,0,0,2.062.233c.03,0,.033-.008.007-.028l-.2-.159a10.384,10.384,0,0,1-.447-2.174,10.645,10.645,0,0,0-.015-1.111c-.028-.56-.27-.25-.5-.216a1.623,1.623,0,0,1-.622-.029,18.874,18.874,0,0,0-3.007-.475,14.413,14.413,0,0,1-1.516-.259c-.774-.161-1.641-.222-2.341-.351q-1.578-.292-3.159-.553a20.182,20.182,0,0,1-4.776-1.413.2.2,0,0,0-.248.085q-.038.07-.178.071a.067.067,0,0,0-.062.056q-.02.092-.144.048a10.508,10.508,0,0,0-.731-1.013,12.189,12.189,0,0,1-1.236-1.818.217.217,0,0,0-.235-.1Q838.171,238.454,838.309,238Z" transform="translate(-812.559 -192.263)"/><path data-name="Tracé 32440" d="M1067.858,277.913c.58,2.272,3.011,4.819,5.258,2.331,2-2.21,1.179-6.518-1.346-8.042a2.423,2.423,0,0,0-3.283.836,5.143,5.143,0,0,0-.862,2.886l-.052.792q-.006.095-.066.021c-.487-.592.069-2.548.357-3.194a3.125,3.125,0,0,1,.908-1.224c1.965-1.537,4.062-.232,5.01,1.668a5.2,5.2,0,0,1,.373.773c.6,1.925.523,4.358-1.021,5.85a2.772,2.772,0,0,1-2.962.723,3.828,3.828,0,0,1-1.078-.641,6.078,6.078,0,0,1-1.466-2.393Q1067.476,277.907,1067.858,277.913Z" transform="translate(-1014.834 -221.97)"/><path data-name="Tracé 32445" d="M837.79,302.5q1.727.248,2.539.383,7.953,1.319,15.908,2.631a14.344,14.344,0,0,0,2.544.228q.088.044.039.116a.141.141,0,0,1-.1.05,5.67,5.67,0,0,1-1.638.041q-1.567-.262-3.137-.521c-.05-.008-.125.014-.184-.029a.207.207,0,0,0-.1-.046,14.775,14.775,0,0,1-1.846-.273q-1.179-.239-4.2-.676c-.616-.09-1.448-.282-2.235-.385-1.215-.158-2.544-.492-3.913-.675-.358-.048-.723-.163-1.064-.2q-1.215-.136-2.413-.378a.176.176,0,0,1-.1-.054A.5.5,0,0,1,837.79,302.5Z" transform="translate(-812.156 -249.218)"/><path data-name="Tracé 32447" d="M776.487,324.969q-3.233.1-6.466.219a6.185,6.185,0,0,1-1.233-.061q-12.815-2.091-17.767-2.88a2.34,2.34,0,0,0-.729.015q-5.99.938-7.693,1.131a6.6,6.6,0,0,1-1.8-.164q-1.569-.3-3.18-.611-.329-.063-.013-.171a7.362,7.362,0,0,1,.857-.219,7.171,7.171,0,0,0,2.576.682,13.389,13.389,0,0,0,3.227-.057c.911-.085,1.784-.294,2.694-.4s1.836-.25,2.744-.437a7.617,7.617,0,0,1,2.964.14c1.845.248,3.662.611,4.993.807q3.592.53,5.418.919c.839.179,1.38.159,2.439.337.77.13,1.957.4,2.971.487a8.007,8.007,0,0,0,1.018.166c1.05-.075,2.056-.027,3.134-.128a30.953,30.953,0,0,1,3.682.028.1.1,0,0,1,.087.051Z" transform="translate(-723.551 -266.364)"/><path data-name="Tracé 32448" d="M1102.648,326.654l-.2-.092a.173.173,0,0,1-.035-.175q.415-.883.791-1.781c.069-.164.263-.312.316-.025A1.886,1.886,0,0,1,1102.648,326.654Z" transform="translate(-1045.818 -268.571)"/><path data-name="Tracé 32449" d="M1180.335,348.25c1.2.843-2.962,1.25-3.036,1.261a15.794,15.794,0,0,1-2.523-.145,4.764,4.764,0,0,0-1.158.131q-5.971,1.157-11.942,2.318a6.678,6.678,0,0,1-1.426-.061c.239-.434.951-.289,1.372-.289a4.145,4.145,0,0,0,.929-.106q.394-.091.918-.206.167-.037.337-.067,2.617-.455,5.33-1.013c1.427-.294,3.171-.53,4.674-.895a3.52,3.52,0,0,1,.856-.12,29.589,29.589,0,0,0,3.155.006q1.16-.112,2.307-.33a.152.152,0,0,0,.1-.227Q1180.144,348.358,1180.335,348.25Z" transform="translate(-1096.898 -289.616)"/><path data-name="Tracé 32531" d="M1272.943,300.96a.6.6,0,0,1,.326.18l-.122.151a.274.274,0,0,1-.2-.331Z" transform="translate(-1196.403 -247.858)"/><path data-name="Tracé 32532" d="M920.131,306.242l-.058.029q-2.675-.367-5.322-.9c.435-.241.721-.05,1.145-.04.39.011.738.174,1.09.2A12.325,12.325,0,0,1,920.131,306.242Z" transform="translate(-880.114 -251.648)"/><path data-name="Tracé 32552" d="M1269.209,298.96c.209.151-.311.5-.429.611q-.046.043.015.03l.5-.1a.2.2,0,0,0,.1-.056.68.68,0,0,1,.37-.191q.088.09-.034.126a.1.1,0,0,0-.065.07.467.467,0,0,1-.13.237l-.731.156a.179.179,0,0,0-.263.137l-.38.015a.153.153,0,0,0-.1.034q-.131.122-.282-.049a.962.962,0,0,0-.364-.691.08.08,0,0,0-.092,0l-.07.046.029-.2.234-.117.054.112.513.751a.892.892,0,0,0,.573-.4Z" transform="translate(-1191.383 -246.092)"/><path data-name="Tracé 32553" d="M1263.026,300.376q-.24-.022-.263.2l-.029.059-.015.232q0,.051-.037.02a.554.554,0,0,1-.181-.388A.566.566,0,0,1,1263.026,300.376Z" transform="translate(-1187.188 -247.323)"/><path data-name="Tracé 32585" d="M769.348,257.5a5.986,5.986,0,0,1,.258,3.543l-.142.054a6.461,6.461,0,0,0-.175-3.509Z" transform="translate(-751.669 -209.481)"/><path data-name="Tracé 32587" d="M1321.534,293.75l.2.171h-.088l-.146-.108Z" transform="translate(-1239.287 -241.491)"/><path data-name="Tracé 32588" d="M1277.779,295.21l.351.263a.307.307,0,0,1-.259.034l-.122-.063a.117.117,0,0,0,0-.2Z" transform="translate(-1200.654 -242.78)"/><path data-name="Tracé 32589" d="M1270.527,298.46a.453.453,0,0,1-.676.214.241.241,0,0,0-.3.025l-.054-.112Z" transform="translate(-1193.369 -245.65)"/><path data-name="Tracé 32590" d="M1278.513,306.375a.209.209,0,0,1-.263.137.179.179,0,0,1,.263-.137Z" transform="translate(-1201.096 -252.62)"/><path data-name="Tracé 32591" d="M962.765,313.643q-.064.011-.066.059a.085.085,0,0,0,.071.07,2.186,2.186,0,0,0,.786.061l1.021.425q-1.708-.253-3.4-.586a3.236,3.236,0,0,1-.926-.174l.058-.029A7.566,7.566,0,0,1,962.765,313.643Z" transform="translate(-920.293 -258.874)"/><path data-name="Tracé 32592" d="M1221.332,317.21l.177.351-.294-.146,0-.171Z" transform="translate(-1150.729 -262.207)"/><path data-name="Tracé 32631" d="M998.438,190.537V192.9q-2.98-.261-3.771-.409c-.1-.019-1.149-.173-1.11-.037a.078.078,0,0,0,.054.048,1.918,1.918,0,0,1,1.209,1.073.1.1,0,0,0,.081.056l3.541.223,0,.606-5.083.87a.065.065,0,0,1-.03-.051c0-.022.027-.046.066-.059a.445.445,0,0,0,.23-.184.162.162,0,0,1,.086-.068c.413-.119.852-.116,1.235-.2a17.825,17.825,0,0,1,2.631-.4c.136-.012.211-.112.117-.239a.363.363,0,0,0-.267-.144,15.379,15.379,0,0,0-2.521-.008,1.317,1.317,0,0,1-.47-.036.112.112,0,0,0-.1.019l-.471.434a.074.074,0,0,1-.087.014.392.392,0,0,0-.406-.012.205.205,0,0,1-.108.029,6.1,6.1,0,0,0-1.881.12.234.234,0,0,1-.1.041,23.534,23.534,0,0,1-5-.207.087.087,0,0,1-.079-.06.194.194,0,0,1,.057-.181,22,22,0,0,0,4.958.165q1.462-.157,3.041-.443a.175.175,0,0,0,.141-.153.081.081,0,0,0-.022-.062.11.11,0,0,0-.1-.027,26.84,26.84,0,0,1-4.864.478q-1.088-.016-3.274-.26-.252-.028-.3.269a2.034,2.034,0,0,0-1.155-.042,7.076,7.076,0,0,0-2.032.567.106.106,0,0,0-.058.088l0,.266a.093.093,0,0,0,.066.077.92.92,0,0,1,.473.393l-1.85-.331a.225.225,0,0,0-.112.011l-1.3.466a.085.085,0,0,0-.062.077l.007.806a.048.048,0,0,0,.02.038.059.059,0,0,0,.044.01l3.835-.671.324.008a.111.111,0,0,1,.054.014.033.033,0,0,1,.02.031c-.02.123-.457.159-.544.158a.182.182,0,0,0-.1.033.651.651,0,0,1-.422.168,5.263,5.263,0,0,0-1.194.137.156.156,0,0,0-.089.063q-.122.17-.335.033a.389.389,0,0,0-.414-.019,2.744,2.744,0,0,1-1.185.328.092.092,0,0,0-.081.055c-.261.591-1.309.5-1.842.4a3.235,3.235,0,0,0-1.738-.105c-.075.037-.131.146,0,.164a.05.05,0,0,1,.035.021.031.031,0,0,1,0,.035.146.146,0,0,1-.09.062l-3.745-.566a.417.417,0,0,0-.326.085,3.088,3.088,0,0,1-1.259.571,4.34,4.34,0,0,1,1.579-1.045.249.249,0,0,0,.149-.186.332.332,0,0,0-.055-.184.166.166,0,0,0-.084-.069,8,8,0,0,1-.677-2.234q-.111-.519-.236-1.036a6.825,6.825,0,0,0-.133-.7,3,3,0,0,1-.243-1.322c.061-.332.488-.407.759-.326a.117.117,0,0,1,.081.071.159.159,0,0,1-.023.156q-.654-.328-.492.408.5,2.288,1.091,4.683a.154.154,0,0,0,.117.115q3.076.671,6.16,1.2a1.56,1.56,0,0,0,.571-.039.071.071,0,0,0,.057-.071l-.138-2.718a.554.554,0,0,0-.318-.478l-1.115-.608q-.051-.028.007-.039c.367-.07.774-.078,1.109-.143q1.891-.364,3.793-.668c.153-.025.441-.014.221-.269q-.191-.222-.349-.117a.959.959,0,0,1-.467.125q-2.185.35-4.352.8a1.41,1.41,0,0,1-1.091-.174q-.106-.059.01-.089a21.561,21.561,0,0,1,3.641-.614l.294.146a2.057,2.057,0,0,0,.6-.12,5.2,5.2,0,0,1,1.059-.191q.058-.009,0-.035c-.33-.158-2.522-1.343-2.673-1.3a.037.037,0,0,0-.026.026.043.043,0,0,0,.008.038,4.2,4.2,0,0,1,.848,1.235l-.122.034a1.326,1.326,0,0,0-.823-.1q-1.59.25-3.179.539a2.59,2.59,0,0,1-1.549-.267.3.3,0,0,1-.229-.2,2.886,2.886,0,0,0,1.028.047q1.772-.276,3.552-.51a.068.068,0,0,0,.043-.022.053.053,0,0,0,.013-.043c-.04-.221-.843-.228-1.046-.2a29.008,29.008,0,0,1-4.031.379,5.723,5.723,0,0,1-2.084-.7.118.118,0,0,1-.012-.063c0-.029.04-.049.081-.046l.193.016a.124.124,0,0,0,.1-.04c.224-.23.771-.046,1.09-.087a.263.263,0,0,0,.255-.295,2.406,2.406,0,0,0-.221-.985c-.146-.312-.116-.626-.414-.888a.25.25,0,0,1-.067-.092,1.754,1.754,0,0,1-.2-.621,1.447,1.447,0,0,0-.269-.791c-.091-.129-.281-.218-.357-.418a.242.242,0,0,0-.063-.094,4.256,4.256,0,0,0-1.1-.772,9.1,9.1,0,0,0-1.753-.518c-.481-.061-1.038,0-1.318-.491a.079.079,0,0,1,0-.1.133.133,0,0,1,.116-.009,1.386,1.386,0,0,1,.522.219,5.749,5.749,0,0,1,3.725,1.475,2.756,2.756,0,0,0,.778.446,128.475,128.475,0,0,1,14.149,6.6,5.138,5.138,0,0,0,2.486.591c.038,0,.039-.006,0-.022q-2.495-1.118-4.909-2.4c-3.7-1.957-7.48-3.779-11.23-5.636-1.745-.864-3.812-1.854-5.237-2.468a14.938,14.938,0,0,1-1.812-.911l.034-.054a1.741,1.741,0,0,1,1.269-.011q8.111,3.571,15.948,7.711a6.063,6.063,0,0,1,.664.446,4.6,4.6,0,0,0,1.363.668.949.949,0,0,1,.136.057q2.322,1.228,4.458,2.509a.18.18,0,0,0,.109.027l2.4-.187q.811,0,0-.078a3.114,3.114,0,0,1-.517-.276q-1.586-1.178-3.215-2.284a.142.142,0,0,0-.105-.02l-1.475.236-.594.063a2.541,2.541,0,0,1-1.481-.326c-.111-.068-1.156-.547-.625-.7.174.168.656.678.819.488a.671.671,0,0,1,.237.213.115.115,0,0,0,.089.051,12.438,12.438,0,0,0,2.225-.13,1.491,1.491,0,0,0,.466-.13c.428-.112-.01-.525-.1-.322a.272.272,0,0,0-.4.083H988a.467.467,0,0,0,.13-.237.1.1,0,0,1,.065-.07q.122-.036.034-.126a.96.96,0,0,0-.546-.351l-.356-.122-.351-.263a98.4,98.4,0,0,0-10.8-5.647q-.053-.023-.008.014.517.451,1.008.933.276.27-.219.34a2.289,2.289,0,0,1-.883-.675,50.644,50.644,0,0,0-4.018-4.033.144.144,0,0,0-.119-.038.131.131,0,0,0-.1.07l-.233.452a.135.135,0,0,0,0,.109,2.049,2.049,0,0,0,1.9,1.157.2.2,0,0,1,.105.037,24.368,24.368,0,0,1,2.851,2.888,2.315,2.315,0,0,1-1.557-1.035,2,2,0,0,1-.583-.532l-.5-.692a.169.169,0,0,0-.092-.061c-2.3-.687-4.088-1.421-6.845-2.134a.158.158,0,0,0-.11.011,7.213,7.213,0,0,1-3.127.536q-2.071.028-4.136-.112c-2.514-.171-5.025-.328-7.534-.567a1.79,1.79,0,0,1-1.469-.958,21.3,21.3,0,0,0-1.983-2.93q-.248-.308.113-.467a13.408,13.408,0,0,1,4.285-.7,1.254,1.254,0,0,1,1.29.69q.553.919,1.049,1.873c.488.937.883,1.42,1.915,1.563a.117.117,0,0,0,.1-.033c1.111-1.1,2.185-1.233,3.786-1.4,1.17-.125,2.345-.305,3.286.528q.782.692,1.56,1.4a.2.2,0,0,0,.1.049,31.17,31.17,0,0,1,5.585,1.54.1.1,0,0,0,.085,0,.036.036,0,0,0,.013-.039.1.1,0,0,0-.03-.052l-.411-.38a.172.172,0,0,1-.039-.193l.387-.912q.163-.384.453-.112l3.082,2.89a1.625,1.625,0,0,0,.487.319,83.792,83.792,0,0,1,10.869,5.461.162.162,0,0,0,.108.02,27.564,27.564,0,0,1,2.973-.358.061.061,0,0,0,.057-.062l.006-1.311a.084.084,0,0,1,.115-.078l8.193,3.176A.755.755,0,0,1,998.438,190.537Zm-32.845-10.665a13.608,13.608,0,0,0-2.127-1.721,1.085,1.085,0,0,0-.478-.122,16.1,16.1,0,0,0-2.022.087c-.427.046-.893.165-1.345.243a3.373,3.373,0,0,0-2.166,1.032.319.319,0,0,1-.305.119,2.128,2.128,0,0,1-1.1-.356,9.818,9.818,0,0,1-1.944-3,1.4,1.4,0,0,0-.613-.606c-.689-.36-2.337.085-3.123.158a2.816,2.816,0,0,0-1.653.4.1.1,0,0,0-.033.094l.037.174a.138.138,0,0,0,.062.088,2.07,2.07,0,0,1,.7.623q.7,1.087,1.408,2.166a1.5,1.5,0,0,0,.938.637,9.67,9.67,0,0,1,1.74.174c.192.037.436-.029.643.14a.107.107,0,0,0,.1.023,2.128,2.128,0,0,1,.95-.042c.483.088.916.019,1.381.069q.529.057.807.057c1.3,0,2.727.122,3.893.136,1.423.016,2.755.063,4.261-.058a.137.137,0,0,0,.1-.047l.087-.119a.062.062,0,0,0-.021-.083.3.3,0,0,1-.117-.173.174.174,0,0,0-.054-.095Zm20.651,13.236q.421.179.092-.063a9.728,9.728,0,0,0-.949-.577q-4.878-2.37-9.823-4.6-.656-.3-2.627-.991-.057-.02-.044.039a.282.282,0,0,0,.156.225,132.9,132.9,0,0,1,12.134,5.468,11.3,11.3,0,0,0,1.061.495Zm-7.891-2.695c-.069.2-.165.117-.3.124a33.528,33.528,0,0,0-4.439.536q-.063.013-.006.042a.8.8,0,0,0,.474.058q1.5-.2,3-.4c.506-.067,1.032-.019,1.558-.048a1.236,1.236,0,0,1,.615.386.484.484,0,0,0,.345.179q.184-.019.035-.127l-.891-.663a.041.041,0,0,1-.016-.033.051.051,0,0,1,.016-.036L979,190.2a.076.076,0,0,0,.021-.076.1.1,0,0,0-.057-.064c-1.757-.722-3.7-1.422-5.44-2.314q-.143-.074-.088.077a15.232,15.232,0,0,1,.683,2.615.066.066,0,0,1-.046.075,6.768,6.768,0,0,1-1.329.262.078.078,0,0,0-.073.046c-.057.237,1.386-.1,1.41-.1,1.347-.151,2.321-.359,4.011-.469Q978.313,190.239,978.353,190.413Zm13.744-1.4-.034.063-.867-.356a.754.754,0,0,0-.379-.064l-2.837.353q-.117.014-.012.064a2.574,2.574,0,0,0,1.252.4q1.494-.165,2.989-.29h.088c.634.318,1.028.065,1.438.828q.028.054-.028.029a3.021,3.021,0,0,0-.859-.4,4.406,4.406,0,0,0-1.136.044,17.857,17.857,0,0,1-2.072.223q-.06,0-.012.04a.919.919,0,0,0,.652.24q1.241-.175,2.484-.332a.618.618,0,0,1,.58.188q.04.046-.021.053l-2.922.354q-.062.007-.014.044c.357.282,2.042-.042,2.532-.117a15.656,15.656,0,0,1,3.526-.013.034.034,0,0,0,.023-.005.018.018,0,0,0,.009-.017,18.619,18.619,0,0,0-1.915-.277,1.186,1.186,0,0,1-1.047-.594.163.163,0,0,0-.086-.07,3.552,3.552,0,0,1-1.914-1.229.151.151,0,0,0-.095-.051,2.845,2.845,0,0,0-.616-.023q-1.683.186-3.362.414-.3.041,0,.092a11.924,11.924,0,0,0,3.314-.305.78.78,0,0,1,.649.128Zm-4.35.114c.016-.033-.2-.17-.481-.306a3.627,3.627,0,0,0-.37-.157c-.1-.035-.162-.046-.17-.029-.016.033.2.17.481.306a3.646,3.646,0,0,0,.37.157C987.678,189.129,987.739,189.139,987.746,189.123Zm.143.2a8.553,8.553,0,0,0,1.093.925c1.781,1.111,2.909,2,4.383,2.989.085.057,1.218.39.372-.192q-2.786-1.919-5.658-3.7C988.063,189.334,987.659,189.119,987.889,189.319Zm8.618,1.294a36.494,36.494,0,0,0-5.265.4q-.06.007-.009.036a1.5,1.5,0,0,0,1.133.211q2.075-.363,4.17-.592l.876-.115q.305-.04.342.294.084.779.154,1.551c0,.029.078.249.087.007a10.084,10.084,0,0,0-.066-1.64.264.264,0,0,0-.256-.254A2.829,2.829,0,0,0,996.508,190.613Zm-4.073,1.209a.717.717,0,0,0,.559.118q1.837-.332,3.668-.7a5.784,5.784,0,0,0,.761-.2.132.132,0,0,0,.078-.073c.153-.352-.246-.1-.4-.073q-2.116.43-4.248.771a2.742,2.742,0,0,1-.379.036Q992.259,191.7,992.435,191.822Zm-13.125,2.041a.73.73,0,0,0,.429.047l5.453-.979q.227-.04,0-.1a3.511,3.511,0,0,0-1.445-.063q-2.225.318-4.438.768a.112.112,0,0,0-.083.064Q979.146,193.793,979.309,193.863Zm6.952-.579a.611.611,0,0,0-.268-.025c-2.1.277-4.191.737-6.274,1.119a.117.117,0,0,0-.084.061c-.146.29.109.211.262.184q2.921-.51,5.834-1.054a4.181,4.181,0,0,1,.653-.03.062.062,0,0,0,.063-.061Q986.439,193.343,986.261,193.284Z" transform="translate(-909.85 -136.75)"/><path data-name="Tracé 32635" d="M1076.586,285.394c-1.631.97-3.094-.5-3.671-1.869-.736-1.748-.948-4.688.794-5.995,1.307-.98,2.776-.11,3.544,1.036a5.525,5.525,0,0,1,.381,5.7A2.794,2.794,0,0,1,1076.586,285.394Zm-1.569-1.054v-.078a6.759,6.759,0,0,1,1.265-1.649.041.041,0,0,0,.019-.032.036.036,0,0,0-.016-.032.241.241,0,0,0-.35.022,8.173,8.173,0,0,0-1.089,1.6l-.034.034a5.241,5.241,0,0,1-.82-4.713,1.949,1.949,0,0,1,.791-1.111.12.12,0,0,0,.036.139,4.257,4.257,0,0,1,1.151,1.2.179.179,0,0,0,.043.049.148.148,0,0,0,.06.033q.075.015.009-.075c-.322-.437-.756-1.212-1.3-1.344a.139.139,0,0,1,.112-.133c.885-.237,1.7,1.09,2,1.744a.172.172,0,0,0,.076.082q.109.049.053-.082a4.815,4.815,0,0,0-1.308-1.781c-.543-.466-1.254-.009-1.547.467a5.116,5.116,0,0,0,.213,5.31,1.862,1.862,0,0,0,1.456.912.068.068,0,0,0,.076-.049l.016-.065.2.092a.79.79,0,0,1-.667.161,2.253,2.253,0,0,1-1.729-1.071,5.183,5.183,0,0,1-.237-5.319,1.824,1.824,0,0,1,3.2-.131,8.363,8.363,0,0,1,1,2.032,5.05,5.05,0,0,1-.216,3.157c-.019.05,0,.2.061.06a4.865,4.865,0,0,0-.043-4.072c-.564-1.239-1.725-2.941-3.362-1.976a2.315,2.315,0,0,0-.94,1.063c-.876,1.922-.695,5.244,1.526,6.287a1.912,1.912,0,0,0,2.548-1.158,3.56,3.56,0,0,0,.219-1.538.042.042,0,0,0-.02-.033.039.039,0,0,0-.038,0,.224.224,0,0,0-.145.225q.095,1.373-.151.174a.187.187,0,0,0-.053-.1.431.431,0,0,0-.521-.068.138.138,0,0,0-.069.084,15.033,15.033,0,0,1-.853,1.889.063.063,0,0,1-.076.043Zm1.311-3.972q-.119.028-.064.1a.089.089,0,0,1,.016.095l-.152.235a.884.884,0,0,0,.028,1.121c.242.338.495.34.744.013a1.189,1.189,0,0,0,.185-1.176.276.276,0,0,0-.372-.182q-.159-.006-.122-.18a.262.262,0,0,1,.3-.12.008.008,0,0,0,.009,0,.013.013,0,0,0,0-.012l0-.02a.093.093,0,0,0-.01-.032A.427.427,0,0,0,1076.328,280.368Zm1.035.239c.012.039.029.055.049.049s.041-.05.036-.1q-.034-.333-.261-.156a.072.072,0,0,0-.021.091.124.124,0,0,0,.124.07A.072.072,0,0,1,1077.364,280.607Z" transform="translate(-1019.298 -226.794)"/><path data-name="Tracé 32637" d="M1168.533,287.648c.826.446-2.729.711-2.823.715a.064.064,0,0,1-.068-.055,12.8,12.8,0,0,0-.495-2.118q-.106-.331.172-.122A21.879,21.879,0,0,0,1168.533,287.648Z" transform="translate(-1101.197 -234.636)"/><path data-name="Tracé 32639" d="M1266.8,303.687a.567.567,0,0,1-.4-.2l-.185-.234,0-.055a.045.045,0,0,1,.02-.035.05.05,0,0,1,.041-.007A.706.706,0,0,1,1266.8,303.687Z" transform="translate(-1190.465 -249.796)"/></g><text x="0" y="115" fill="#000000" font-size="5px" font-weight="bold" font-family="'Helvetica Neue', Helvetica, Arial-Unicode, Arial, Sans-serif">Created by OURSEL Alexandre</text><text x="0" y="120" fill="#000000" font-size="5px" font-weight="bold" font-family="'Helvetica Neue', Helvetica, Arial-Unicode, Arial, Sans-serif">from the Noun Project</text></svg>