<svg xmlns="http://www.w3.org/2000/svg" xmlns:xlink="http://www.w3.org/1999/xlink" version="1.1" x="0px" y="0px" viewBox="0 0 100 125" enable-background="new 0 0 100 100" xml:space="preserve"><g><path d="M34.621,44.366v-3.901c-2.103,0.161-3.199,0.897-3.199,1.173v1.556C31.422,43.468,32.519,44.206,34.621,44.366z"/><path d="M91.603,44.836c-0.993,0.128-1.409,1.009-1.382,1.825c0.032,0.962,0.684,2.034,2.037,2.117   c1.928,0.119,3.786,0.452,4.497,0.589l0.33,0.064l-0.242-4.596l-0.231-0.016c-0.43-0.03-1.562-0.1-2.754-0.1   C92.959,44.72,92.2,44.76,91.603,44.836z M96.525,48.791c-0.872-0.16-2.526-0.431-4.235-0.535   c-1.026-0.063-1.521-0.879-1.545-1.611c-0.019-0.537,0.213-1.196,0.925-1.288c0.575-0.074,1.311-0.112,2.188-0.112   c1.002,0,1.962,0.05,2.486,0.083L96.525,48.791z"/><path d="M8.18,49.652c1.334-0.56,3.301-1.972,3.223-2.824c-0.027-0.285-0.281-0.48-0.756-0.583   c-0.44-0.096-0.993-0.144-1.643-0.144c-1.817,0-3.915,0.378-4.316,0.454l-0.074,0.013l-0.055,0.05   c-1.294,1.185-1.301,2.509-1.305,3.476l-0.009,0.521l0.29-0.027C4.459,50.505,6.762,50.247,8.18,49.652z M4.858,47.056   c0.532-0.098,2.466-0.43,4.146-0.43c0.612,0,1.128,0.044,1.532,0.132c0.244,0.052,0.336,0.119,0.344,0.119   c0.035,0.38-1.387,1.656-2.903,2.292c-1.234,0.519-3.27,0.774-4.197,0.87C3.783,49.145,3.811,48.051,4.858,47.056z"/><path d="M96.923,49.667c-0.479-0.098-2.534-0.496-4.682-0.628c-1.517-0.092-2.246-1.293-2.281-2.369   c-0.038-1.105,0.624-1.967,1.608-2.094c1.591-0.205,3.841-0.097,4.815-0.035c-0.717-1.281-3.104-5.314-6.674-8.99l-0.147-0.152   l0.703-1.041l-2.931-0.415l-0.065-0.082c-0.008-0.01-1.022-1.203-4.032-1.342c-3.154-0.146-23.503-0.423-23.709-0.425l-0.145-0.002   c-0.581,0-3.628,0.063-6.631,1.292l-0.09,0.02l-4.455,0.164c-0.065,0.004-7.196,0.461-12.351,3.727   c-5.217,3.305-8.686,5.356-8.721,5.376l-0.053,0.032l-0.063,0.004c-0.117,0.008-11.844,0.801-18.041,2.221   c-1.442,0.331-2.501,0.74-3.282,1.19c1.345-0.201,3.559-0.442,5.004-0.129c0.747,0.161,0.935,0.533,0.96,0.815   c0.1,1.07-2.114,2.556-3.381,3.088c-1.66,0.698-4.447,0.938-4.943,0.976c-0.255,0.192-1.361,1.092-1.361,2.235v0.172   c-0.035,4.762,2.122,7.362,6.416,7.729c-0.07-0.492-0.104-0.949-0.104-1.396c0-5.66,4.604-10.264,10.265-10.264   c5.659,0,10.264,4.604,10.264,10.264c0,0.463-0.037,0.937-0.11,1.442h40.593c-0.074-0.506-0.11-0.979-0.11-1.442   c0-5.66,4.604-10.264,10.264-10.264s10.264,4.604,10.264,10.264c0,0.188-0.008,0.373-0.018,0.549l4.489-0.61   c0.127-0.037,3.836-1.065,3.836-5.998C98.023,53.518,98.104,51.449,96.923,49.667z M30.941,41.872c0-1.18,1.793-1.798,3.564-1.798   h0.523v0.576c0.925-0.746,1.908-1.484,2.719-1.96c2.229-1.31,6.771-3.975,15.637-3.975l-1.125,8.561h-17.23v1.364h-0.523   c-1.771,0-3.564-0.618-3.564-1.799V41.872z M52.358,46.195c0,0.208-0.168,0.377-0.376,0.377h-4.391   c-0.208,0-0.376-0.169-0.376-0.377s0.168-0.376,0.376-0.376h4.391C52.19,45.819,52.358,45.987,52.358,46.195z M66.718,52.023   c-0.336,0.53-0.669,1.219-1.075,1.985c-0.213,0.381-0.391,0.802-0.58,1.238c-0.094,0.219-0.209,0.432-0.34,0.646   c-0.135,0.204-0.225,0.465-0.341,0.706c-0.229,0.496-0.415,0.978-0.779,1.589c-0.378,0.571-0.972,1.038-1.667,1.282   c-0.18,0.05-0.354,0.104-0.575,0.131l-0.062,0.007l-0.071,0.002h-0.029H61.08h-0.236c-0.317,0-0.637,0-0.962,0   c-0.648,0-1.311,0-1.984,0c-2.694,0-5.568,0-8.442,0c-1.437,0-2.873,0-4.289,0c-1.416-0.002-2.799,0.01-4.164-0.015   c-1.361-0.037-2.684-0.106-3.949-0.33c-0.633-0.108-1.256-0.271-1.848-0.532c-0.588-0.254-1.158-0.677-1.512-1.218   c-0.345-0.541-0.557-1.073-0.67-1.557c-0.049-0.248-0.106-0.47-0.166-0.679c-0.063-0.213-0.1-0.426-0.184-0.623   c-0.276-0.801-0.598-1.489-0.874-2.049c-0.561-1.121-0.952-1.732-0.952-1.732s0.123,0.131,0.354,0.381   c0.225,0.255,0.56,0.625,0.943,1.134c0.385,0.51,0.844,1.139,1.273,1.94c0.119,0.192,0.203,0.418,0.311,0.639   c0.106,0.226,0.208,0.455,0.293,0.681c0.182,0.448,0.281,0.918,0.54,1.274c0.463,0.731,1.517,1.106,2.679,1.31   c1.168,0.207,2.454,0.278,3.785,0.313c1.328,0.022,2.729,0.01,4.141,0.015c1.416,0,2.853,0,4.289,0c2.874,0,5.748,0,8.442,0   c0.674,0,1.336,0,1.984,0c0.325,0,0.645,0,0.962,0h0.236h0.118h0.015h0.002c0.019-0.002,0.043-0.005,0.056-0.007   c0.09-0.012,0.213-0.049,0.333-0.082c0.469-0.168,0.865-0.475,1.132-0.875c0.23-0.385,0.474-0.946,0.689-1.43   c0.404-0.992,1.012-1.881,1.548-2.572c0.548-0.702,0.996-1.327,1.425-1.797c0.829-0.96,1.313-1.493,1.313-1.493   S67.356,50.941,66.718,52.023z M73.693,46.195h-3.866c-0.209,0-0.377-0.168-0.377-0.376s0.168-0.376,0.377-0.376h3.866   c0.208,0,0.376,0.168,0.376,0.376S73.901,46.195,73.693,46.195z M56.126,43.275v-8.822c7.345-0.524,16.313,0.261,16.313,0.261   l2.097,7.764L56.126,43.275z M84.482,41.703l-7.093,0.616l-1.859-7.691c0,0,3.733-0.131,6.026,0   c2.293,0.131,2.883,1.681,2.883,1.681s0.328,0.503,1.267,2.839C86.645,41.484,84.482,41.703,84.482,41.703z"/><path d="M18.553,51.313c-4.583,0-8.299,3.715-8.299,8.297c0,4.584,3.716,8.299,8.299,8.299c4.582,0,8.297-3.715,8.297-8.299   C26.85,55.027,23.135,51.313,18.553,51.313z M23.3,57.515l-4.224,1.373v-4.442C20.973,54.636,22.563,55.845,23.3,57.515z    M18.027,54.445v4.442l-4.223-1.373C14.542,55.845,16.133,54.636,18.027,54.445z M13.362,59.609c0-0.377,0.042-0.742,0.118-1.097   l4.224,1.373l-2.608,3.59C14.033,62.525,13.362,61.148,13.362,59.609z M15.943,64.093l2.609-3.592l2.608,3.592   c-0.767,0.446-1.656,0.707-2.608,0.707C17.6,64.8,16.71,64.539,15.943,64.093z M22.009,63.476l-2.608-3.59l4.224-1.373   c0.075,0.354,0.118,0.72,0.118,1.097C23.742,61.148,23.07,62.525,22.009,63.476z"/><path d="M79.452,51.313c-4.582,0-8.297,3.715-8.297,8.297c0,4.584,3.715,8.299,8.297,8.299c4.584,0,8.298-3.715,8.298-8.299   C87.75,55.027,84.036,51.313,79.452,51.313z M84.2,57.518l-4.224,1.37v-4.442C81.872,54.636,83.462,55.845,84.2,57.518z    M78.928,54.445v4.442l-4.224-1.373C75.442,55.845,77.032,54.636,78.928,54.445z M74.262,59.609c0-0.377,0.043-0.742,0.119-1.097   l4.224,1.373l-2.608,3.59C74.934,62.527,74.262,61.148,74.262,59.609z M76.844,64.093l2.608-3.592l2.61,3.592   c-0.769,0.446-1.657,0.707-2.61,0.707S77.61,64.539,76.844,64.093z M82.909,63.476l-2.608-3.59l4.223-1.373   c0.077,0.354,0.119,0.72,0.119,1.097C84.643,61.148,83.971,62.525,82.909,63.476z"/></g><text x="0" y="115" fill="#000000" font-size="5px" font-weight="bold" font-family="'Helvetica Neue', Helvetica, Arial-Unicode, Arial, Sans-serif">Created by Bakunetsu Kaito</text><text x="0" y="120" fill="#000000" font-size="5px" font-weight="bold" font-family="'Helvetica Neue', Helvetica, Arial-Unicode, Arial, Sans-serif">from the Noun Project</text></svg>