<svg xmlns="http://www.w3.org/2000/svg" xmlns:xlink="http://www.w3.org/1999/xlink" version="1.1" x="0px" y="0px" viewBox="0 0 100 125" style="enable-background:new 0 0 100 100;" xml:space="preserve"><style type="text/css">
	.st0{fill:none;stroke:#000000;stroke-width:2;stroke-miterlimit:10;}
	.st1{fill:none;stroke:#000000;stroke-width:2;stroke-linejoin:round;stroke-miterlimit:10;}
	.st2{fill:#FFFFFF;stroke:#000000;stroke-width:2;stroke-miterlimit:10;}
	.st3{fill:#FFFFFF;}
	.st4{fill:none;stroke:#000000;stroke-width:2;stroke-linecap:round;stroke-linejoin:round;stroke-miterlimit:10;}
	.st5{fill:none;stroke:#000000;stroke-width:4;stroke-linecap:round;stroke-linejoin:round;stroke-miterlimit:10;}
	.st6{fill:none;stroke:#000000;stroke-width:4;stroke-linejoin:round;stroke-miterlimit:10;}
	.st7{fill:none;stroke:#FFFFFF;stroke-width:2;stroke-linejoin:round;stroke-miterlimit:10;}
	.st8{fill:none;stroke:#FFFFFF;stroke-width:4;stroke-linecap:round;stroke-linejoin:round;stroke-miterlimit:10;}
	.st9{fill:none;stroke:#FFFFFF;stroke-width:4;stroke-linejoin:round;stroke-miterlimit:10;}
</style><path d="M75.5,37H29.6c-2.2,0-4,1.8-4,4v2.4h-1.1c-2.2,0-4,1.8-4,4v5.2c0,2.2,1.8,4,4,4h1.1V59c0,2.2,1.8,4,4,4h45.9  c2.2,0,4-1.8,4-4V41C79.5,38.8,77.7,37,75.5,37z M24.5,54.6c-1.1,0-2-0.9-2-2v-5.2c0-1.1,0.9-2,2-2h1.1v9.2H24.5z M77.5,59  c0,1.1-0.9,2-2,2H29.6c-1.1,0-2-0.9-2-2V41c0-1.1,0.9-2,2-2h45.9c1.1,0,2,0.9,2,2V59z"/><path d="M74.5,41H45.2H30.6c-0.6,0-1,0.4-1,1v16c0,0.6,0.4,1,1,1h14.6h29.3c0.6,0,1-0.4,1-1V42C75.5,41.4,75.1,41,74.5,41z M31.6,43  h12.6v14H31.6V43z"/><text x="0" y="115" fill="#000000" font-size="5px" font-weight="bold" font-family="'Helvetica Neue', Helvetica, Arial-Unicode, Arial, Sans-serif">Created by EliRatus</text><text x="0" y="120" fill="#000000" font-size="5px" font-weight="bold" font-family="'Helvetica Neue', Helvetica, Arial-Unicode, Arial, Sans-serif">from the Noun Project</text></svg>