<svg xmlns="http://www.w3.org/2000/svg" data-name="Layer 12" viewBox="0 0 512 640" x="0px" y="0px"><defs><style>
      .cls-1 {
        stroke-width: 0px;
      }
    </style></defs><path class="cls-1" d="M372.21,18.98c0-10.48-8.51-18.98-19-18.98s-19,8.5-19,18.98v199.55c0,10.48,8.51,18.98,19,18.98s19-8.5,19-18.98v-68.28c43.46-2.28,86.93-55.77,130.39-57.11,6.26-.14,9.4-3.8,9.4-9.47,0-5.52-3.13-13.05-9.4-17.58-43.46-31.06-86.93-9.97-130.39-40.09v-7.03Z"/><path class="cls-1" d="M110.46,418.72c3.06,1.33,6.55,1.33,9.61,0,36.16-15.73,110.34-90.76,110.34-161.76,0-63.5-51.52-114.98-115.08-114.98h-.25C51.52,141.98,0,193.46,0,256.96c0,71,74.29,146.03,110.46,161.76ZM115.2,210.62c24.39,0,44.17,19.76,44.17,44.13s-19.78,44.13-44.17,44.13-44.17-19.76-44.17-44.13,19.78-44.13,44.17-44.13Z"/><path class="cls-1" d="M447.13,460.46H142.78c-5.94-8.74-15.98-14.49-27.35-14.49-18.25,0-33.05,14.78-33.05,33.02s14.8,33.02,33.05,33.02c10.98,0,20.7-5.35,26.71-13.58h304.99c35.76,0,64.85-29.07,64.85-64.8s-29.09-64.8-64.85-64.8h-139.66c-14.81,0-26.85-12.04-26.85-26.83s12.05-26.83,26.85-26.83h12.63c6.5,11.07,18.52,18.52,32.3,18.52,20.67,0,37.42-16.74,37.42-37.39s-16.75-37.39-37.42-37.39c-13.68,0-25.64,7.34-32.17,18.29h-12.76c-35.76,0-64.85,29.07-64.85,64.8s29.09,64.8,64.85,64.8h139.66c14.81,0,26.85,12.04,26.85,26.83s-12.05,26.83-26.85,26.83Z"/><text x="0" y="527" fill="#000000" font-size="5px" font-weight="bold" font-family="'Helvetica Neue', Helvetica, Arial-Unicode, Arial, Sans-serif">Created by iconbysonny</text><text x="0" y="532" fill="#000000" font-size="5px" font-weight="bold" font-family="'Helvetica Neue', Helvetica, Arial-Unicode, Arial, Sans-serif">from the Noun Project</text></svg>