<svg xmlns:dc="http://purl.org/dc/elements/1.1/" xmlns:cc="http://creativecommons.org/ns#" xmlns:rdf="http://www.w3.org/1999/02/22-rdf-syntax-ns#" xmlns:svg="http://www.w3.org/2000/svg" xmlns="http://www.w3.org/2000/svg" xmlns:sodipodi="http://sodipodi.sourceforge.net/DTD/sodipodi-0.dtd" xmlns:inkscape="http://www.inkscape.org/namespaces/inkscape" version="1.1" x="0px" y="0px" viewBox="0 0 100 125"><g transform="translate(0,-952.36218)"><path style="text-indent:0;text-transform:none;direction:ltr;block-progression:tb;baseline-shift:baseline;color:#000000;enable-background:accumulate;" d="m 50,976.26841 c -18.1899,0 -33,14.81025 -33,33.00009 0,7.1487 2.3064,13.7766 6.1875,19.1875 l 4.6875,-3.6875 c -2.5307,-3.6137 -4.1789,-7.8763 -4.6875,-12.5 l 4.8125,0 3,0 0,-6 -3,0 -4.8438,0 c 0.572,-5.2306 2.6367,-9.98565 5.75,-13.87505 l 3.4063,3.4375 2.125,2.125 4.25,-4.25 -2.125,-2.125 -3.4063,-3.40635 c 3.8859,-3.1049 8.6216,-5.1788 13.8438,-5.75 l 0,4.8438 0,3.00005 6,0 0,-3.00005 0,-4.8438 c 5.2222,0.5712 9.9577,2.6451 13.8438,5.75 l -3.4063,3.40635 -2.125,2.125 4.25,4.25 2.125,-2.125 3.4063,-3.4375 c 3.1133,3.8894 5.1778,8.64445 5.75,13.87505 l -4.8438,0 -3,0 0,6 3,0 4.8125,0 c -0.5085,4.6237 -2.1568,8.8863 -4.6875,12.5 l 4.6875,3.6875 C 80.6936,1023.0451 83,1016.4172 83,1009.2685 83,991.07866 68.1899,976.26841 50,976.26841 z m 17.6875,26.31259 -21.2187,14.1563 c -1.9528,1.9527 -1.9528,5.1098 0,7.0624 1.9527,1.9527 5.11,1.9527 7.0624,0 l 14.1563,-21.2187 z" fill="#000000" fill-opacity="1" stroke="none" marker="none" visibility="visible" display="inline" overflow="visible"/></g><text x="0" y="115" fill="#000000" font-size="5px" font-weight="bold" font-family="'Helvetica Neue', Helvetica, Arial-Unicode, Arial, Sans-serif">Created by Aybige</text><text x="0" y="120" fill="#000000" font-size="5px" font-weight="bold" font-family="'Helvetica Neue', Helvetica, Arial-Unicode, Arial, Sans-serif">from the Noun Project</text></svg>