<svg xmlns="http://www.w3.org/2000/svg" viewBox="0 0 64 80" x="0px" y="0px"><g><rect x="26" y="48" width="12" height="2"/><path d="M32.7,31.3h0A1,1,0,0,0,32,31a1,1,0,1,0,1,1,1,1,0,0,0-.29-.7Z"/><path d="M32,5A27,27,0,1,0,59,32,27,27,0,0,0,32,5Zm8,46a1,1,0,0,1-1,1H25a1,1,0,0,1-1-1V47a1,1,0,0,1,1-1H39a1,1,0,0,1,1,1Zm1.71-27.29-7,7a3,3,0,1,1-1.41-1.41l7-7a1,1,0,0,1,1.42,1.42Zm5.85,23.85a1,1,0,0,1-1.42,0l-2.83-2.83a1,1,0,1,1,1.42-1.42l2.09,2.09A19.82,19.82,0,0,0,52,33H49a1,1,0,0,1,0-2h3a19.82,19.82,0,0,0-5.13-12.4l-2.09,2.09a1,1,0,0,1-1.42,0,1,1,0,0,1,0-1.42l2.09-2.09A19.82,19.82,0,0,0,33,12.05V15a1,1,0,0,1-2,0V12.05a19.82,19.82,0,0,0-12.4,5.13l2.09,2.09a1,1,0,0,1,0,1.42,1,1,0,0,1-1.42,0L17.18,18.6A19.82,19.82,0,0,0,12.05,31H15a1,1,0,0,1,0,2H12.05a19.82,19.82,0,0,0,5.13,12.4l2.09-2.09a1,1,0,1,1,1.42,1.42l-2.83,2.83a1,1,0,0,1-1.42,0,22,22,0,1,1,31.12,0Z"/></g><text x="0" y="79" fill="#000000" font-size="5px" font-weight="bold" font-family="'Helvetica Neue', Helvetica, Arial-Unicode, Arial, Sans-serif">Created by Ade Nur Hidayat</text><text x="0" y="84" fill="#000000" font-size="5px" font-weight="bold" font-family="'Helvetica Neue', Helvetica, Arial-Unicode, Arial, Sans-serif">from the Noun Project</text></svg>