<svg xmlns:dc="http://purl.org/dc/elements/1.1/" xmlns:cc="http://creativecommons.org/ns#" xmlns:rdf="http://www.w3.org/1999/02/22-rdf-syntax-ns#" xmlns:svg="http://www.w3.org/2000/svg" xmlns="http://www.w3.org/2000/svg" version="1.1" x="0px" y="0px" viewBox="0 0 100 125"><path d="m 72.000243,5.0005321 c -0.431203,0.071996 -1.077743,3.9530534 -1.365235,4.3125 -0.35932,0.287651 -4.312923,0.7913489 -4.384765,1.2226559 -0.07194,0.50317 3.450406,2.301113 3.666015,2.732422 0.215594,0.359411 -0.57583,4.311689 -0.144531,4.527344 0.359361,0.215654 3.234812,-2.586342 3.666016,-2.658203 0.431203,-0.072 3.952756,1.869178 4.240234,1.509765 0.35932,-0.287652 -1.437117,-3.883144 -1.365234,-4.314453 0.07194,-0.431307 3.018329,-3.1624422 2.802734,-3.5937497 -0.215609,-0.3594124 -4.16801,0.2156537 -4.527344,0 C 74.156929,8.5231595 72.50333,4.9286357 72.000243,5.0005321 Z M 43.324461,14.488813 c -1.365453,0 -8.622404,9.201505 -9.916015,9.632813 -1.365493,0.431206 -12.648561,-2.730173 -13.726563,-1.939453 -1.149898,0.79072 -1.582524,12.506088 -2.373047,13.65625 -0.862407,1.078276 -11.8578583,5.176781 -12.2890618,6.470703 -0.4312048,1.293923 6.1093748,11.069724 6.1093748,12.435547 0,1.365782 -6.5405796,11.141624 -6.1093748,12.435546 0.4312035,1.365824 11.4266548,5.39084 12.2890618,6.541016 0.790523,1.078262 1.223149,12.797163 2.373047,13.587891 1.078002,0.862615 12.36107,-2.372714 13.726563,-1.941407 1.293611,0.431309 8.550562,9.632813 9.916015,9.632813 1.365493,0 8.624742,-9.201504 9.990235,-9.632813 1.293611,-0.431307 12.576281,2.804022 13.654297,1.941407 1.149885,-0.790728 1.580952,-12.509629 2.443359,-13.587891 0.790538,-1.150176 11.787546,-5.175193 12.21875,-6.541016 0.431203,-1.293923 -6.109375,-11.069764 -6.109375,-12.435546 0,-1.365823 6.540578,-11.141624 6.109375,-12.435547 -0.431204,-1.293922 -11.428212,-5.392427 -12.21875,-6.470703 -0.862407,-1.150162 -1.293474,-12.86553 -2.443359,-13.65625 -1.078016,-0.79072 -12.360686,2.370659 -13.654297,1.939453 -1.365493,-0.431308 -8.624742,-9.632813 -9.990235,-9.632813 z m 44.878907,1.074219 c -1.148022,0.272972 -5.621181,4.830038 -6.429688,4.964844 -0.790565,0.072 -7.18679,-3.235223 -7.761719,-2.660157 -0.574916,0.575066 2.803883,6.972952 2.660157,7.763672 -0.143616,0.862616 -5.318305,5.894427 -4.958985,6.613282 0.359334,0.718828 7.54499,-0.503514 8.263672,-0.07227 0.718654,0.359407 3.953577,6.829348 4.744141,6.685547 0.790524,-0.143651 1.868431,-7.260843 2.443359,-7.835938 0.574957,-0.575068 7.762142,-1.652639 7.833985,-2.443359 0.14363,-0.862615 -6.324273,-4.025384 -6.683594,-4.744141 -0.35932,-0.79072 0.788896,-7.908165 0.07031,-8.267578 -0.04492,-0.02247 -0.105106,-0.0221 -0.18164,-0.0039 z" style="" fill="#000000" fill-opacity="1" fill-rule="nonzero" stroke="none"/><text x="0" y="115" fill="#000000" font-size="5px" font-weight="bold" font-family="'Helvetica Neue', Helvetica, Arial-Unicode, Arial, Sans-serif">Created by Bonegolem</text><text x="0" y="120" fill="#000000" font-size="5px" font-weight="bold" font-family="'Helvetica Neue', Helvetica, Arial-Unicode, Arial, Sans-serif">from the Noun Project</text></svg>