<svg xmlns="http://www.w3.org/2000/svg" xmlns:xlink="http://www.w3.org/1999/xlink" version="1.1" x="0px" y="0px" viewBox="0 0 32 40" enable-background="new 0 0 32 32" xml:space="preserve"><path d="M16,2C8.2802734,2,2,8.2802734,2,16s6.2802734,14,14,14s14-6.2802734,14-14S23.7197266,2,16,2z M20.5996094,16.7998047l-8,6  C12.4199219,22.9350586,12.2099609,23,12.0009766,23c-0.3046875,0-0.6044922-0.1381836-0.8007813-0.3999023  c-0.3320313-0.4418945-0.2421875-1.0688477,0.2001953-1.3999023L18.3330078,16l-6.9326172-5.2001953  c-0.4423828-0.3310547-0.5322266-0.9580078-0.2001953-1.3999023c0.3320313-0.4414063,0.9580078-0.5322266,1.3994141-0.199707l8,6  C20.8515625,15.3886719,21,15.6850586,21,16S20.8515625,16.6113281,20.5996094,16.7998047z"/><text x="0" y="47" fill="#000000" font-size="5px" font-weight="bold" font-family="'Helvetica Neue', Helvetica, Arial-Unicode, Arial, Sans-serif">Created by maria icon</text><text x="0" y="52" fill="#000000" font-size="5px" font-weight="bold" font-family="'Helvetica Neue', Helvetica, Arial-Unicode, Arial, Sans-serif">from the Noun Project</text></svg>