<svg xmlns="http://www.w3.org/2000/svg" xmlns:xlink="http://www.w3.org/1999/xlink" version="1.1" x="0px" y="0px" viewBox="0 0 66 82.5" style="enable-background:new 0 0 66 66;" xml:space="preserve"><path d="M64.46,44.88c-0.86-1.59-2.54-2.47-4.23-2.37l-3.36-25.01c-0.33-2.7-2.63-4.74-5.36-4.74h-1.72V10.4  c0-4.92-4-8.93-8.94-8.93c-4.92,0-8.93,4-8.93,8.93v2.36h-2.28c-2.72,0-5.03,2.04-5.36,4.73l-2.78,20.65  c-0.94-0.15-1.89-0.23-2.85-0.23H16.3v-0.46c0-1.25-1.03-2.28-2.29-2.28H5.46c-1.26,0-2.29,1.03-2.29,2.28v20.44  c0,1.26,1.03,2.29,2.29,2.29h8.55c1.25,0,2.27-1.01,2.29-2.25l6.6,4.02c2.82,1.72,6.04,2.59,9.27,2.59c2.8,0,5.61-0.65,8.15-1.97  l22.24-11.5c1.51-0.78,2.44-2.33,2.44-4.03C65,46.29,64.82,45.55,64.46,44.88z M9.74,55.89c-1.19,0-2.16-0.96-2.16-2.15  s0.97-2.15,2.16-2.15c1.19,0,2.15,0.96,2.15,2.15S10.93,55.89,9.74,55.89z M33.92,10.4c0-3.82,3.11-6.94,6.94-6.94  c3.82,0,6.94,3.11,6.94,6.94v2.36H33.92V10.4z M40.58,22.05c5.08,0,9.21,4.13,9.21,9.21c0,5.09-4.13,9.23-9.21,9.23  s-9.21-4.14-9.21-9.23C31.37,26.19,35.5,22.05,40.58,22.05z M61.64,49.29L39.4,60.79c-4.87,2.52-10.79,2.31-15.47-0.55l-7.13-4.35  V39.9h1.86c3.31,0,6.49,1,9.2,2.9l2.01,1.41c0.17,0.12,0.37,0.18,0.57,0.18h8.76c1.92,0,3.48,1.56,3.48,3.47  c0,0.44-0.08,0.86-0.24,1.27c-0.17,0.44-0.44,0.85-0.78,1.19c-0.66,0.66-1.53,1.02-2.46,1.02h-9.41c-0.55,0-1,0.45-1,1  c0,0.55,0.45,1,1,1h9.41c1.46,0,2.83-0.57,3.87-1.61c0.42-0.42,0.77-0.9,1.02-1.42l15.4-5.63c1.21-0.51,2.59-0.01,3.21,1.13  c0.2,0.38,0.3,0.79,0.3,1.21C63.01,47.98,62.48,48.85,61.64,49.29z"/><path d="M38.43,36.26c0.14,0.06,0.28,0.09,0.42,0.09c0.37,0,0.73-0.21,0.9-0.57l3.86-8.22c0.23-0.5,0.02-1.09-0.48-1.32  c-0.5-0.23-1.09-0.02-1.32,0.48l-3.86,8.22C37.72,35.43,37.93,36.02,38.43,36.26z"/><path d="M35.55,30.73c0.38,0.14,0.77,0.17,1.15,0.1c0.16-0.03,0.33-0.09,0.49-0.16c0.53-0.23,0.92-0.66,1.11-1.19  c0.14-0.38,0.18-0.76,0.1-1.14c-0.03-0.16-0.09-0.33-0.17-0.5c-0.48-1.07-1.76-1.54-2.83-1.05c-1.06,0.5-1.55,1.76-1.05,2.83  C34.6,30.14,35.02,30.54,35.55,30.73z"/><path d="M43.08,34.89c0.41,0.91,1.4,1.4,2.34,1.22c0.16-0.03,0.33-0.09,0.49-0.16c0.53-0.24,0.92-0.66,1.11-1.19  c0.2-0.54,0.18-1.12-0.06-1.64c-0.49-1.08-1.76-1.55-2.83-1.05C43.07,32.55,42.6,33.83,43.08,34.89z"/><path d="M10.01,21.35c4.97,0,9.01-4.04,9.01-9.01s-4.04-9.01-9.01-9.01S1,7.38,1,12.34S5.04,21.35,10.01,21.35z M10.01,5.33  c3.87,0,7.02,3.15,7.02,7.01s-3.15,7.01-7.02,7.01c-3.87,0-7.01-3.15-7.01-7.01S6.14,5.33,10.01,5.33z"/><path d="M7.19,13.55l-0.24,1.41c-0.08,0.46,0.11,0.93,0.49,1.2c0.22,0.16,0.47,0.24,0.73,0.24c0.2,0,0.39-0.05,0.58-0.15L10,15.59  l1.26,0.67c0.42,0.22,0.92,0.19,1.3-0.09c0.38-0.28,0.57-0.75,0.49-1.2l-0.24-1.41l1.03-1c0.34-0.33,0.46-0.82,0.31-1.26  c-0.15-0.45-0.53-0.77-1-0.84l-1.41-0.21l-0.63-1.27C10.91,8.54,10.48,8.28,10,8.28c-0.47,0-0.9,0.26-1.11,0.69l-0.63,1.27  l-1.41,0.21c-0.47,0.07-0.85,0.39-1,0.84c-0.15,0.45-0.03,0.94,0.31,1.26L7.19,13.55z"/><text x="0" y="81" fill="#000000" font-size="5px" font-weight="bold" font-family="'Helvetica Neue', Helvetica, Arial-Unicode, Arial, Sans-serif">Created by Design Circle</text><text x="0" y="86" fill="#000000" font-size="5px" font-weight="bold" font-family="'Helvetica Neue', Helvetica, Arial-Unicode, Arial, Sans-serif">from the Noun Project</text></svg>