<svg xmlns="http://www.w3.org/2000/svg" xmlns:xlink="http://www.w3.org/1999/xlink" version="1.1" x="0px" y="0px" viewBox="0 0 100 125" style="enable-background:new 0 0 100 100;" xml:space="preserve"><style type="text/css">
	.st0{fill-rule:evenodd;clip-rule:evenodd;}
</style><g><g><path d="M97.5,22.6611195v12.8038921c0,4.5810776-1.9422531,8.7083321-5.0560837,11.600544    c-2.8183823,2.6177597-6.6077881,4.2327881-10.7772522,4.2327881c-8.7400284,0-15.8333282-7.082798-15.8333282-15.8333321    c0,8.7505341-7.0933037,15.8333321-15.8333359,15.8333321s-15.8333321-7.082798-15.8333321-15.8333321    c0,8.7505341-7.0933037,15.8333321-15.8333359,15.8333321c-4.1694565,0-7.9588652-1.6150284-10.7772446-4.2327881    c-3.1138372-2.8922119-5.0560875-7.0194664-5.0560875-11.600544V22.6611195L16.5388756,5.6455698h66.9222565L97.5,22.6611195z"/></g><g><path d="M81.6666641,54.4650116c-6.5972214,0-12.4239044-3.3883553-15.8333282-8.5077744    C62.4239082,51.0766563,56.5972214,54.4650116,50,54.4650116s-12.4239082-3.3883553-15.8333321-8.5077744    c-3.4094257,5.1194191-9.2361126,8.5077744-15.8333359,8.5077744c-3.8844357,0-7.6210794-1.1717148-10.7772446-3.3567238    v43.2461433h11.452816V62.0649605h21.1321793v32.2894707h52.3028336V51.1082878    C89.2877502,53.2932968,85.5511017,54.4650116,81.6666641,54.4650116z M80.9910965,78.4366379h-27.286087V62.0649605h27.286087    V78.4366379z"/></g></g><text x="0" y="115" fill="#000000" font-size="5px" font-weight="bold" font-family="'Helvetica Neue', Helvetica, Arial-Unicode, Arial, Sans-serif">Created by Maxie</text><text x="0" y="120" fill="#000000" font-size="5px" font-weight="bold" font-family="'Helvetica Neue', Helvetica, Arial-Unicode, Arial, Sans-serif">from the Noun Project</text></svg>