<svg xmlns="http://www.w3.org/2000/svg" viewBox="0 0 48 60" fill="none" x="0px" y="0px"><path fill-rule="evenodd" clip-rule="evenodd" d="M9.49176 35.909C12.7618 41.333 18.9267 45 26.0007 45C36.5027 45 45.0008 36.918 45.0008 27C45.0008 23.843 44.1398 20.872 42.6278 18.29C40.8288 9.591 32.7317 3 23.0007 3C11.9467 3 3.00073 11.505 3.00073 21.944C3.00073 27.464 5.50176 32.442 9.49176 35.909ZM42.8078 24.583C41.4518 33.779 33.1067 40.889 23.0007 40.889C20.2727 40.889 17.6727 40.371 15.3057 39.434C18.2297 41.664 21.9527 43 26.0007 43C35.3677 43 43.0008 35.847 43.0008 27C43.0008 26.178 42.9348 25.371 42.8078 24.583ZM17.0007 16H14.0007C12.9397 16 11.9227 16.421 11.1727 17.172C10.4217 17.922 10.0007 18.939 10.0007 20C10.0007 21.265 10.0007 22.735 10.0007 24C10.0007 26.209 11.7917 28 14.0007 28H22.0007C24.2097 28 26.0007 26.209 26.0007 24C26.0007 22.937 26.0007 22 26.0007 22C26.0007 21.448 25.5527 21 25.0007 21C24.4487 21 24.0007 21.448 24.0007 22V24C24.0007 25.105 23.1057 26 22.0007 26H14.0007C12.8957 26 12.0007 25.105 12.0007 24C12.0007 22.735 12.0007 21.265 12.0007 20C12.0007 19.47 12.2117 18.961 12.5867 18.586C12.9617 18.211 13.4707 18 14.0007 18H17.0007C17.5527 18 18.0007 17.552 18.0007 17C18.0007 16.448 17.5527 16 17.0007 16ZM29.0007 28H32.0007C33.0617 28 34.0788 27.579 34.8288 26.828C35.5798 26.078 36.0007 25.061 36.0007 24C36.0007 22.735 36.0007 21.265 36.0007 20C36.0007 17.791 34.2097 16 32.0007 16H24.0007C21.7917 16 20.0007 17.791 20.0007 20C20.0007 21.063 20.0007 22 20.0007 22C20.0007 22.552 20.4487 23 21.0007 23C21.5527 23 22.0007 22.552 22.0007 22V20C22.0007 18.895 22.8957 18 24.0007 18H32.0007C33.1057 18 34.0007 18.895 34.0007 20C34.0007 21.265 34.0007 22.735 34.0007 24C34.0007 24.53 33.7897 25.039 33.4147 25.414C33.0397 25.789 32.5307 26 32.0007 26H29.0007C28.4487 26 28.0007 26.448 28.0007 27C28.0007 27.552 28.4487 28 29.0007 28Z" fill="black"/><text x="0" y="63" fill="#000000" font-size="5px" font-weight="bold" font-family="'Helvetica Neue', Helvetica, Arial-Unicode, Arial, Sans-serif">Created by Muhammad Sabeeh Zaidi</text><text x="0" y="68" fill="#000000" font-size="5px" font-weight="bold" font-family="'Helvetica Neue', Helvetica, Arial-Unicode, Arial, Sans-serif">from the Noun Project</text></svg>