<svg xmlns="http://www.w3.org/2000/svg" data-name="Layer 1" viewBox="0 0 64 80" x="0px" y="0px"><path d="M32,50.67c1.37-1.37,4.6-4.69,8-8.75,5.09-6.11,10.53-13.92,10.53-19.39,0-10.22-8.31-18.53-18.53-18.53S13.47,12.31,13.47,22.53c0,5.47,5.44,13.28,10.53,19.39,3.4,4.06,6.63,7.38,8,8.75Zm0-36.89c4.66,0,8.44,3.79,8.44,8.44s-3.78,8.45-8.44,8.45-8.44-3.79-8.44-8.45,3.78-8.44,8.44-8.44Z"/><path d="M41.12,43.71c-4.21,5.02-8.07,8.75-8.43,9.09-.19,.18-.44,.28-.69,.28s-.5-.1-.69-.28c-.36-.34-4.22-4.07-8.43-9.09-6.35,1.51-10.42,4.48-10.42,7.62,0,4.7,8.95,8.67,19.54,8.67s19.54-3.97,19.54-8.67c0-3.14-4.07-6.11-10.42-7.62Z"/><text x="0" y="79" fill="#000000" font-size="5px" font-weight="bold" font-family="'Helvetica Neue', Helvetica, Arial-Unicode, Arial, Sans-serif">Created by Soekahurip</text><text x="0" y="84" fill="#000000" font-size="5px" font-weight="bold" font-family="'Helvetica Neue', Helvetica, Arial-Unicode, Arial, Sans-serif">from the Noun Project</text></svg>