<svg xmlns="http://www.w3.org/2000/svg" data-name="Layer 1" viewBox="0 0 100 125" x="0px" y="0px"><defs><style>.cls-1{fill-rule:evenodd;}</style></defs><title>a</title><path class="cls-1" d="M44.118,52.479A1.049,1.049,0,1,1,42.17,51.7a4,4,0,0,0-1.1-4.651,6.023,6.023,0,0,0-3.749-1.5A4,4,0,0,0,33.3,48.136c-1.2,3,.907,4.433,3.02,5.868,2.819,1.916,5.642,3.833,3.8,8.421A6.009,6.009,0,0,1,34.1,66.334a7.817,7.817,0,0,1-1.73-.249l-.866,2.158a1.049,1.049,0,0,1-1.948-.781l.867-2.159a7.814,7.814,0,0,1-1.42-1.017A6.007,6.007,0,0,1,27.362,57.3a1.049,1.049,0,0,1,1.948.781,4,4,0,0,0,1.1,4.651,6.023,6.023,0,0,0,3.749,1.505,4,4,0,0,0,4.013-2.594c1.215-3.024-.907-4.466-3.026-5.906-2.814-1.911-5.625-3.821-3.793-8.383a6.011,6.011,0,0,1,6.019-3.909,7.817,7.817,0,0,1,1.73.249l.867-2.158a1.049,1.049,0,1,1,1.947.781l-.867,2.159a7.779,7.779,0,0,1,1.42,1.017,6.009,6.009,0,0,1,1.646,6.985Zm5.273-24.66a3.648,3.648,0,0,0-6.738.069l0,0a3.649,3.649,0,0,0,2.022,4.744h0a3.648,3.648,0,0,0,4.715-4.818Zm-2.222-4.2L50.2,16.058a4.382,4.382,0,0,0-1.095.02L28.532,19.014A4,4,0,0,0,25.3,21.553L7.206,66.6A4.127,4.127,0,0,0,9.49,71.949L42.9,85.365a4.127,4.127,0,0,0,5.354-2.284L66.341,38.039a4,4,0,0,0-.582-4.074l-6.415-8.176L53.705,18.6l3.411-8.493a1.049,1.049,0,0,0-1.948-.781l-3.016,7.512L49.56,23.293,49.116,24.4A5.747,5.747,0,0,1,44.1,34.663H44.09l-.2-.078a5.748,5.748,0,0,1,3.274-10.968ZM71.454,48.773H86.168V76a1.052,1.052,0,0,0,1.052,1.052h5.87L78.811,91.33,64.533,77.051H70.4A1.052,1.052,0,0,0,71.454,76Z"/><text x="0" y="115" fill="#000000" font-size="5px" font-weight="bold" font-family="'Helvetica Neue', Helvetica, Arial-Unicode, Arial, Sans-serif">Created by Good Wife</text><text x="0" y="120" fill="#000000" font-size="5px" font-weight="bold" font-family="'Helvetica Neue', Helvetica, Arial-Unicode, Arial, Sans-serif">from the Noun Project</text></svg>