<svg xmlns="http://www.w3.org/2000/svg" data-name="Layer 1" viewBox="0 0 100 125" x="0px" y="0px"><title>A</title><path d="M94.9455,24.84521a18.11428,18.11428,0,0,0-5.42585-14.36474,18.1137,18.1137,0,0,0-14.3645-5.42578c-5.195.39953-10.23779,2.90765-14.58349,7.25335L43.14941,29.73029c-4.34564,4.3457-6.85382,9.38848-7.25335,14.58319a18.11378,18.11378,0,0,0,5.42578,14.3648,19.39535,19.39535,0,0,0,3.50629,2.78626l1.60876-1.60877A9.39172,9.39172,0,0,0,49.42,54.557a3.27909,3.27909,0,0,0-.06073-.95087,10.44509,10.44509,0,0,1-1.6289-1.33643,9.06527,9.06527,0,0,1-2.798-7.261A14.63483,14.63483,0,0,1,49.558,36.13892L66.98029,18.71661a14.63387,14.63387,0,0,1,8.86993-4.62548A9.06467,9.06467,0,0,1,83.11108,16.889a9.06524,9.06524,0,0,1,2.798,7.261,14.63514,14.63514,0,0,1-4.62561,8.86988L68.3147,45.98871a23.55666,23.55666,0,0,1,1.43713,10.13251c-.03522.45752-.08417.91345-.14429,1.36792.222-.20929.44367-.4198.6623-.63843L87.69208,39.42847C92.03778,35.08276,94.546,30.04,94.9455,24.84521Z"/><path d="M64.10413,55.68652a18.1136,18.1136,0,0,0-5.42572-14.3648,19.39136,19.39136,0,0,0-3.50635-2.7862l-1.60871,1.60871A9.3919,9.3919,0,0,0,50.5802,45.443a3.32218,3.32218,0,0,0,.04364.86878l.01489.08081a10.44345,10.44345,0,0,1,1.63111,1.33771,9.06533,9.06533,0,0,1,2.798,7.261,14.63522,14.63522,0,0,1-4.62555,8.86982L33.02,81.28345A14.63514,14.63514,0,0,1,24.1499,85.909a9.06515,9.06515,0,0,1-7.2608-2.798,9.06533,9.06533,0,0,1-2.798-7.261,14.63535,14.63535,0,0,1,4.62554-8.86982L31.68329,54.01355a23.61333,23.61333,0,0,1-1.435-10.13489c.03516-.4574.08417-.91321.14423-1.36761-.222.20923-.44355.41974-.66211.63824l-17.4223,17.4223c-4.34565,4.34565-6.85383,9.38849-7.2533,14.5832a18.11353,18.11353,0,0,0,5.42572,14.3648,18.11335,18.11335,0,0,0,14.36456,5.42572c5.195-.39947,10.2378-2.90765,14.58344-7.25329l17.4223-17.42231C61.19647,65.92407,63.70465,60.88123,64.10413,55.68652Z"/><path d="M47.99945,85.70673v7.29278a2.00043,2.00043,0,1,0,4.00086,0V85.70673a2.00043,2.00043,0,1,0-4.00086,0Z"/><path d="M47.99945,7.00049v7.29278a2.00043,2.00043,0,1,0,4.00086,0V7.00049a2.00043,2.00043,0,1,0-4.00086,0Z"/><path d="M66.85437,79.20459a2.0007,2.0007,0,0,0-.73071,2.7334l3.64807,6.30963a2.00047,2.00047,0,0,0,3.4635-2.00293l-3.64807-6.30963A2.00017,2.00017,0,0,0,66.85437,79.20459Z"/><path d="M27.49512,11.022a2.00054,2.00054,0,0,0-.73352,2.73242L30.40479,20.072a2.00031,2.00031,0,1,0,3.46545-1.9989l-3.64319-6.31763A2.00006,2.00006,0,0,0,27.49512,11.022Z"/><path d="M79.929,69.59351l6.30694,3.64123A2.00048,2.00048,0,0,0,88.236,69.76959l-6.30694-3.64123A2.00048,2.00048,0,0,0,79.929,69.59351Z"/><path d="M20.804,33.13989a2.00064,2.00064,0,0,0-.73218-2.733L13.76385,26.7652a2.00051,2.00051,0,0,0-2.00012,3.46521l6.308,3.64172A2.00013,2.00013,0,0,0,20.804,33.13989Z"/><path d="M94.99988,50.00531a2.00045,2.00045,0,0,0-2.00025-2.00085h-7.292a2.00067,2.00067,0,0,0,0,4.00134h7.292A2.00041,2.00041,0,0,0,94.99988,50.00531Z"/><path d="M7.00012,51.99554h7.292a2.00067,2.00067,0,0,0,0-4.00134h-7.292a2.00067,2.00067,0,0,0,0,4.00134Z"/><text x="0" y="115" fill="#000000" font-size="5px" font-weight="bold" font-family="'Helvetica Neue', Helvetica, Arial-Unicode, Arial, Sans-serif">Created by Markus</text><text x="0" y="120" fill="#000000" font-size="5px" font-weight="bold" font-family="'Helvetica Neue', Helvetica, Arial-Unicode, Arial, Sans-serif">from the Noun Project</text></svg>