<svg xmlns="http://www.w3.org/2000/svg" xmlns:xlink="http://www.w3.org/1999/xlink" version="1.1" x="0px" y="0px" viewBox="0 0 30 37.5" style="enable-background:new 0 0 30 30;" xml:space="preserve"><path d="M19,7c-0.421,0-0.82,0.027-1.21,0.066C17.059,3.146,14.331,1,10,1C4.841,1,2,3.972,2,9.368  c0,5.865,6.99,13.031,7.287,13.333C9.476,22.893,9.732,23,10,23h0.001c0.268,0,0.524-0.108,0.713-0.3  c0.041-0.041,0.78-0.797,1.775-1.997c2.069,4.168,5.589,7.785,5.798,7.998C18.476,28.893,18.732,29,19,29s0.524-0.107,0.713-0.299  C20.01,28.399,27,21.233,27,15.368C27,9.972,24.159,7,19,7z M10,13c-2.206,0-4-1.794-4-4s1.794-4,4-4s4,1.794,4,4S12.206,13,10,13z   M19,19c-2.206,0-4-1.794-4-4s1.794-4,4-4s4,1.794,4,4S21.206,19,19,19z"/><text x="0" y="45" fill="#000000" font-size="5px" font-weight="bold" font-family="'Helvetica Neue', Helvetica, Arial-Unicode, Arial, Sans-serif">Created by Becris</text><text x="0" y="50" fill="#000000" font-size="5px" font-weight="bold" font-family="'Helvetica Neue', Helvetica, Arial-Unicode, Arial, Sans-serif">from the Noun Project</text></svg>