<svg xmlns="http://www.w3.org/2000/svg" data-name="Layer 1" viewBox="0 0 100 125" x="0px" y="0px"><defs><style>.cls-1{fill-rule:evenodd;}</style></defs><title>a</title><path class="cls-1" d="M22.042,59.112a2.657,2.657,0,1,0,.777,1.877,2.647,2.647,0,0,0-.777-1.877Zm-1.878-3.681a5.56,5.56,0,1,1-3.93,1.628,5.54,5.54,0,0,1,3.93-1.628ZM37.514,75.2a2.658,2.658,0,1,0,.777,1.878,2.651,2.651,0,0,0-.777-1.878Zm-1.878-3.68a5.558,5.558,0,1,1-3.931,1.628,5.54,5.54,0,0,1,3.931-1.628Zm51.146-62a15.421,15.421,0,1,0,4.517,10.9,15.371,15.371,0,0,0-4.517-10.9ZM77.329,31.2a1.452,1.452,0,1,1-2.9,0V30.27a5.748,5.748,0,0,1-4.29-5.557,1.452,1.452,0,0,1,2.9,0,2.837,2.837,0,0,0,2.6,2.829,1.469,1.469,0,0,1,.471,0,2.837,2.837,0,0,0,2.6-2.829,2.5,2.5,0,0,0-.752-1.8,3.944,3.944,0,0,0-2.214-1.046c-.038,0-.077-.008-.116-.015a7.261,7.261,0,0,1-3.94-1.9,5.244,5.244,0,0,1-1.558-3.819,5.745,5.745,0,0,1,4.29-5.556V9.65a1.452,1.452,0,1,1,2.9,0v.927a5.745,5.745,0,0,1,4.29,5.556,1.452,1.452,0,1,1-2.9,0,2.839,2.839,0,0,0-2.6-2.829,1.4,1.4,0,0,1-.471,0,2.839,2.839,0,0,0-2.6,2.829,2.424,2.424,0,0,0,.707,1.767A4.4,4.4,0,0,0,76.121,19l.038.006a6.873,6.873,0,0,1,3.858,1.86,5.342,5.342,0,0,1,1.6,3.852,5.748,5.748,0,0,1-4.29,5.557V31.2ZM21.752,82.288a1.449,1.449,0,0,1-2.495-1.475L34.048,55.78a1.449,1.449,0,0,1,2.495,1.474L21.752,82.288ZM49.594,93.94A3.59,3.59,0,0,1,47.05,95H8.75a3.612,3.612,0,0,1-3.6-3.6H5.142V35.8h0a3.606,3.606,0,0,1,.46-1.812l0,0a3.606,3.606,0,0,1,1.338-1.313v0L26.093,21.622H26.1a3.512,3.512,0,0,1,3.6,0h.006L48.853,32.676l0,0a3.6,3.6,0,0,1,1.339,1.307v.006a3.585,3.585,0,0,1,.463,1.81h.005V91.4h-.006a3.59,3.59,0,0,1-1.058,2.544ZM29.928,32.927a2.869,2.869,0,1,0,.84,2.029,2.859,2.859,0,0,0-.84-2.029ZM27.9,29.184a5.773,5.773,0,1,0,4.081,1.691A5.754,5.754,0,0,0,27.9,29.184Zm58.566,33.05a1.452,1.452,0,1,1-2.9,0V46.554a1.452,1.452,0,1,1,2.9,0v15.68ZM66.775,42.445V72.422H59.832a1.451,1.451,0,0,0-1.038,2.466L75.537,93.7a1.45,1.45,0,0,0,2.047.12,1.388,1.388,0,0,0,.132-.134l16.776-18.85a1.45,1.45,0,0,0-1.083-2.414H86.466V67.377a1.452,1.452,0,1,0-2.9,0v6.5a1.452,1.452,0,0,0,1.452,1.452h5.161L76.62,90.557,63.065,75.325h5.161a1.452,1.452,0,0,0,1.452-1.452V42.445a1.452,1.452,0,0,0-2.9,0Zm11.3,8.961a1.452,1.452,0,1,1-2.9,0V44.9a1.452,1.452,0,0,1,2.9,0v6.506Zm0,23.467a1.452,1.452,0,0,1-2.9,0V56.549a1.452,1.452,0,1,1,2.9,0Z"/><text x="0" y="115" fill="#000000" font-size="5px" font-weight="bold" font-family="'Helvetica Neue', Helvetica, Arial-Unicode, Arial, Sans-serif">Created by Happy Girl</text><text x="0" y="120" fill="#000000" font-size="5px" font-weight="bold" font-family="'Helvetica Neue', Helvetica, Arial-Unicode, Arial, Sans-serif">from the Noun Project</text></svg>