<svg xmlns="http://www.w3.org/2000/svg" xmlns:xlink="http://www.w3.org/1999/xlink" xml:space="preserve" version="1.1" style="shape-rendering:geometricPrecision;text-rendering:geometricPrecision;image-rendering:optimizeQuality;" viewBox="0 0 50445 63056.25" x="0px" y="0px" fill-rule="evenodd" clip-rule="evenodd"><defs><style type="text/css">
   
    .fil0 {fill:black}
   
  </style></defs><g><path class="fil0" d="M3153 0l3985 0 0 13028c0,4721 -7138,4721 -7138,0l0 -9875c0,-1737 1416,-3153 3153,-3153zm5508 0l7138 0 0 13028c0,4721 -7138,4721 -7138,0l0 -13028zm8662 0l7138 0 0 13028c0,4721 -7138,4721 -7138,0l0 -13028zm8661 0l7138 0 0 13028c0,4721 -7138,4721 -7138,0l0 -13028zm8662 0l7137 0 0 13028c0,4721 -7137,4721 -7137,0l0 -13028zm8661 0l3985 0c1736,0 3153,1416 3153,3153l0 9875c0,4721 -7138,4721 -7138,0l0 -13028zm4409 18266l0 32179 -16188 0 0 -20393 -12611 0 0 20393 -16188 0 0 -32177c272,39 553,59 840,59 917,0 1832,-217 2642,-650 696,-372 1263,-870 1692,-1459 954,1307 2510,2109 4328,2109 916,0 1832,-217 2641,-650 697,-372 1263,-870 1693,-1459 953,1307 2509,2109 4327,2109 917,0 1832,-217 2642,-650 696,-372 1262,-870 1692,-1459 953,1308 2510,2109 4327,2109 917,0 1833,-217 2642,-650 697,-372 1263,-870 1693,-1459 953,1308 2509,2109 4327,2109 916,0 1832,-217 2641,-650 697,-372 1263,-870 1693,-1459 953,1307 2509,2109 4327,2109 281,0 562,-20 840,-61zm-40380 17007l6905 0 0 -2462 -6905 0 0 2462zm6905 1488l-6905 0 0 5705 6905 0 0 -5705zm21963 -1488l6905 0 0 -2462 -6905 0 0 2462zm6905 1488l-6905 0 0 5705 6905 0 0 -5705z"/></g><text x="0" y="50460" fill="#000000" font-size="5px" font-weight="bold" font-family="'Helvetica Neue', Helvetica, Arial-Unicode, Arial, Sans-serif">Created by popcornarts</text><text x="0" y="50465" fill="#000000" font-size="5px" font-weight="bold" font-family="'Helvetica Neue', Helvetica, Arial-Unicode, Arial, Sans-serif">from the Noun Project</text></svg>