<svg xmlns="http://www.w3.org/2000/svg" viewBox="0 0 128 160" x="0px" y="0px"><g><path d="M7.413,49.276a.289.289,0,0,0,.053,0c.72,0,3.314-2.134,3.576-3.146a.7.7,0,0,0-.478-.9h0c-.2-.066-.394-.152-.589-.237a4.309,4.309,0,0,0-1.208-.391.381.381,0,0,0-.4.241c-.087.233-.179.454-.268.671l-.139.334a11.17,11.17,0,0,0-.888,2.96A.459.459,0,0,0,7.413,49.276Z"/><path d="M46.786,30.926c.48.215.935.445,1.348.682a10.41,10.41,0,0,1,1.027.7.375.375,0,0,0,.228.077.385.385,0,0,0,.141-.028.78.78,0,0,1,.349-.061c.88,0,1.765.023,2.65.042a50.981,50.981,0,0,0,8.468-.3.375.375,0,0,0,0-.742l-.1-.014c-.537-.078-1.059-.152-1.566-.2-.34-.038-.674-.08-1-.121-.445-.056-.882-.112-1.321-.154-.749-.056-1.474-.113-2.17-.168-1.175-.108-2.269-.165-3.327-.219l-.62-.032c-.973-.049-1.881-.091-2.736-.13l-1.2-.056a.375.375,0,0,0-.171.717Z"/><path d="M24.377,37.244a.375.375,0,0,0-.422-.094l-.152.064c-.2.083-.4.165-.6.258a10.655,10.655,0,0,0-3.316,2.487l-.016.02c-.141.178-.286.353-.432.528l-.253.308c-.131.2-.267.386-.4.579l-.227.322c-.226.369-.681,1.142-.8,1.38a.377.377,0,0,0-.074.248.369.369,0,0,0,.142.272l.5.3.592.208c.554.2,1.127.4,1.718.563.191.058.39.116.59.166a.4.4,0,0,0,.09.011.377.377,0,0,0,.369-.3,25.147,25.147,0,0,1,2.75-6.889A.378.378,0,0,0,24.377,37.244Z"/><path d="M7.1,58.312a.377.377,0,0,0,.448-.117l.2-.274a10.593,10.593,0,0,1,2.01-1.864,7.663,7.663,0,0,1,3-1.166,6.2,6.2,0,0,1,1.529-.038.368.368,0,0,0,.283-.094.376.376,0,0,0,.125-.27c.138-5.26,2.214-7.628,2.843-8.225l.254-.222,0-.005.006-.005a.4.4,0,0,0,.061-.546.337.337,0,0,0-.493-.051,4.831,4.831,0,0,1-2.141-1.094c-.15-.427.98-2,1.463-2.672.233-.325.438-.611.553-.8.241-.345.481-.69.708-1.008.262-.319.525-.638.794-.945a11.952,11.952,0,0,1,3.812-2.82,16.284,16.284,0,0,1,4.243-1.259,58.471,58.471,0,0,1,7.513-.6l.373-.013a28.029,28.029,0,0,1,7.055.547A14.107,14.107,0,0,1,47.461,37.4a15.006,15.006,0,0,1,3.533,4.152c.423.7.8,1.37,1.165,2.011.384.68.748,1.322,1.115,1.913.387.636.79,1.231,1.181,1.805.317.467.626.921.907,1.373s.584.954.834,1.46a5.2,5.2,0,0,1,.322.716c.043.092.081.189.139.336l.067.177c.035.092.07.181.086.234.038.233.086.456.133.673A5.4,5.4,0,0,1,57.1,53.3l.047.677a.376.376,0,0,0,.073.2,3.463,3.463,0,0,1,.635,2.2c-.077,4.321-.168,8.916-.338,13.415a.376.376,0,0,0,.29.379.353.353,0,0,0,.085.01.375.375,0,0,0,.342-.22,14.335,14.335,0,0,1,.754-1.462A10.488,10.488,0,0,1,62.1,65.069a7.9,7.9,0,0,1,2.385-1.094,9.041,9.041,0,0,1,1.326-.252l.319-.029c.344-.032.692-.064,1.043-.082a13.475,13.475,0,0,1,5.808.959,12.038,12.038,0,0,1,2.8,1.671,14.238,14.238,0,0,1,2.033,2.072.375.375,0,0,0,.259.139.406.406,0,0,0,.281-.092,4.5,4.5,0,0,1,1.669-.993.376.376,0,0,0,.175-.61,4.235,4.235,0,0,1-1.065-1.9l-.071-.319.322-.007a24.288,24.288,0,0,1,7.4,1.318l.447.123c.106.01.22.017.341.024l.262.017a.379.379,0,0,0,.368-.233l.183.18a.376.376,0,0,0,.236.109l2.958.225c1.324.1,2.824.22,4.509.457l.311.046c.611.089,1.249.183,1.9.306a.414.414,0,0,0,.07.006A.373.373,0,0,0,98.7,66.9a3.013,3.013,0,0,1,.577-.784,5.577,5.577,0,0,1,1.276-.9,14.684,14.684,0,0,1,2.548-.995,33.483,33.483,0,0,1,4.825-.971c.359-.044.713-.081,1.064-.118l1.2-.089c.5-.031,1.017-.1,1.528-.162l.865-.112c1.253-.172,2.437-.334,3.587-.444l.532-.038c.457-.035.892-.065,1.338-.057.319,0,.629,0,.895,0l.562.073a.375.375,0,0,0,.322-.629,11.726,11.726,0,0,0-1.511-1.354,34.555,34.555,0,0,0-9.133-4.535A135.634,135.634,0,0,0,93.715,51.55.362.362,0,0,0,93.6,51.5a29.478,29.478,0,0,0-7.759-.665h0c-1.7.034-3.3.107-4.8.176q-.972.045-1.888.083c-.405.016-.81.023-1.2.03-.592.01-1.161.021-1.669.059l-.781.042c-.586.031-1.148.061-1.7.1-1.564.153-2.926.29-4.112.411-.452.049-.873.088-1.272.125l-.375.036a.375.375,0,0,0-.142.7l.241.255a6.52,6.52,0,0,1,1.027,1.6,5.715,5.715,0,0,0,1.807,2.565A17.682,17.682,0,0,0,75.023,58.9c.413.149.818.3,1.21.452l4.5,1.78A33.95,33.95,0,0,1,84.23,62.72a15.319,15.319,0,0,1,2.161,1.432,17.4,17.4,0,0,0-2.253-1.265c-1.064-.48-2.257-.946-3.546-1.383l-.5-.171c-.531-.18-1.083-.368-1.663-.569-.3-.1-.6-.212-.9-.323-.491-.178-.994-.361-1.486-.521-.4-.144-.813-.278-1.244-.418a17.557,17.557,0,0,1-4.3-1.862A4.551,4.551,0,0,1,69.238,56.4a8.433,8.433,0,0,1-.654-1.147c-.071-.142-.142-.28-.211-.411a5.728,5.728,0,0,0-.894-1.344.611.611,0,0,0-.282-.215L66.81,53.1c-.1-.025-.193-.055-.288-.084a4.7,4.7,0,0,0-.5-.136c-.39-.085-.818-.147-1.268-.211l-.725-.11a6.534,6.534,0,0,1-2-.6,2.57,2.57,0,0,1-.7-.481l-.228-.191a3.907,3.907,0,0,1-.489-.509c-.091-.108-.184-.216-.264-.3a20.761,20.761,0,0,1-1.292-1.817c-.448-.687-.876-1.411-1.3-2.13-.351-.594-.7-1.184-1.057-1.75-.186-.292-.4-.6-.618-.918-.244-.354-.5-.72-.723-1.081L53.765,40.2a42.093,42.093,0,0,0-2.519-3.822,18.193,18.193,0,0,0-1.732-1.98A11.465,11.465,0,0,0,47.428,32.8a9.97,9.97,0,0,0-1.215-.606c-.407-.157-.822-.313-1.3-.493-.259-.076-.519-.148-.781-.221l-.572-.161c-.31-.083-.634-.144-.958-.205l-.474-.091a34.086,34.086,0,0,0-6.04-.506c-.769-.012-1.532.016-2.322.044l-.879.029c-1.124.04-2.232.048-3.371.056a54.347,54.347,0,0,0-6.788.31L22.392,31c-.174.021-.349.042-.54.075l-.822.181c-.112.03-.232.06-.351.082a.377.377,0,0,0-.26.189.372.372,0,0,0-.019.319,3.937,3.937,0,0,1,.232,1.525c-.016.279-.055.581-.087.839a2.5,2.5,0,0,1-.5.987,2.843,2.843,0,0,1-.846.646c-.124.07-.255.139-.4.213s-.274.154-.363.21a4.03,4.03,0,0,0-.563.386l-.463.368c-.145.119-.295.24-.46.371a24.167,24.167,0,0,0-3.576,3.741,13.959,13.959,0,0,0-.989,1.571,12.645,12.645,0,0,1-.99,1.559.375.375,0,0,0,.385.595.6.6,0,0,1,.236-.025h0c.063.1.062.707-.733,2.222l-.065.117c-.035.064-.068.126-.109.187a3.746,3.746,0,0,1-.246.327.368.368,0,0,0-.063.123c-.023.074-.045.141-.069.208a5.049,5.049,0,0,1-1.274,1.8,5.208,5.208,0,0,1-1.334.914,5.522,5.522,0,0,1-.692.255.376.376,0,0,0-.266.366c.007.374.02.752.033,1.136.017.516.035,1.043.039,1.585l.017,1.109a9.918,9.918,0,0,1-.126,1.179c-.071.527-.159,1.039-.247,1.551A.374.374,0,0,0,7.1,58.312Z"/><path d="M52.931,51.962a.392.392,0,0,0,.385.283,10.146,10.146,0,0,1,2.55.817l.1.027.217.049a.824.824,0,0,0,.122.008.389.389,0,0,0,.286-.157.419.419,0,0,0,.073-.332l-.067-.352a2.406,2.406,0,0,0-.165-.558c-.031-.075-.06-.148-.1-.273l-.231-.463a5.27,5.27,0,0,0-.354-.658c-.262-.455-.569-.9-.889-1.358-.265-.378-.559-.767-.869-1.177-.45-.6-.916-1.213-1.383-1.91-.411-.612-.812-1.26-1.225-1.927-.386-.624-.782-1.264-1.205-1.9a14.241,14.241,0,0,0-3.393-3.786A13.159,13.159,0,0,0,41.462,36h0a.361.361,0,0,0-.474.231,38.454,38.454,0,0,0-2.214,12.616.377.377,0,0,0,.315.378l1.773.3a.365.365,0,0,0,.29-.074.379.379,0,0,0,.144-.263,1.5,1.5,0,0,1,.1-.424A3.34,3.34,0,0,1,42.76,47.1a6.254,6.254,0,0,1,1.659-.745,9.4,9.4,0,0,1,1.608-.3,11.086,11.086,0,0,1,1.369-.087,5.042,5.042,0,0,1,2.979.856,5.4,5.4,0,0,1,1.551,2.038,14.425,14.425,0,0,1,.726,1.947Z"/><path d="M23.533,45.474q.8.2,1.617.4c1.872.455,3.809.925,5.766,1.534l.274.089a.374.374,0,0,0,.5-.315,34.909,34.909,0,0,1,2.894-11.025.374.374,0,0,0-.032-.366.368.368,0,0,0-.328-.163,59.133,59.133,0,0,0-6.982.649.371.371,0,0,0-.266.192c-.23.426-.467.855-.707,1.287a22.958,22.958,0,0,0-3.016,7.3A.375.375,0,0,0,23.533,45.474Z"/><path d="M51.706,51.042a7.09,7.09,0,0,0-2.059-3.189l-.009-.007a3.564,3.564,0,0,0-2.114-.492,11.148,11.148,0,0,0-2.67.419,4.815,4.815,0,0,0-1.226.588,1.821,1.821,0,0,0-.754.9,1.15,1.15,0,0,0,.231,1.007,4.438,4.438,0,0,0,1.1,1.05,3.759,3.759,0,0,0,1.483.536,9.132,9.132,0,0,0,.966.083c.316.017.666.034,1.071.081a3.41,3.41,0,0,1,.618.109,3.236,3.236,0,0,1,.622.2,3.606,3.606,0,0,1,1.155.808,5.7,5.7,0,0,1,1.1,1.963.376.376,0,0,0,.24.23.4.4,0,0,0,.112.017.38.38,0,0,0,.217-.069,2.973,2.973,0,0,0,.47-.4,1.5,1.5,0,0,0,.261-.907,10.1,10.1,0,0,0-.77-2.816Z"/><path d="M118.865,63.636l-.784.024a12.932,12.932,0,0,0-1.322.1l-.433.044c-1.013.123-2.084.287-3.227.462l-1.037.154c-.553.08-1.123.162-1.751.213l-2.171.228a32.957,32.957,0,0,0-4.567.955,12.349,12.349,0,0,0-2.218.869,3.856,3.856,0,0,0-.57.357.375.375,0,0,0,.12.662,17.185,17.185,0,0,1,1.958.679l.177.072a.375.375,0,0,0,.416-.091,5.655,5.655,0,0,1,1.72-1.239,10.626,10.626,0,0,1,2.928-.855c.68-.119,1.422-.177,2.209-.24.52-.041,1.052-.083,1.59-.144.338-.04.694-.078,1.058-.117s.742-.08,1.125-.125c.773-.1,1.628-.226,2.477-.346.474-.062.988-.123,1.511-.186l1.305-.159.3-.022c.324-.025.632-.048.969-.066a.375.375,0,0,0,.19-.685,2.869,2.869,0,0,0-1.242-.465Z"/><path d="M52.482,34l-.661-.013a.311.311,0,0,0-.345.215.375.375,0,0,0,.052.4c.267.314.534.636.759.954l.056.081a.294.294,0,0,0,.357.145c1.438.005,2.877.025,4.317.044,1.652.022,3.322.045,5,.045a90.052,90.052,0,0,0,10.951-.551.375.375,0,0,0,.107-.715,30.258,30.258,0,0,0-3.14-1.212c-.158-.054-.314-.112-.47-.17-.315-.117-.629-.233-1.013-.338-.449-.116-.9-.231-1.337-.34-.351-.087-.694-.175-1.037-.271a.378.378,0,0,0-.406.144.843.843,0,0,1-.425.307C61.171,34.178,56.751,34.087,52.482,34Z"/><path d="M116.418,66.967c-1.521.188-2.958.365-4.271.391-.676.045-1.34.06-1.963.075-.7.016-1.372.03-1.944.087a11.611,11.611,0,0,0-2.7.485,6.56,6.56,0,0,0-2.615,1.609.377.377,0,0,0-.108.34,9.367,9.367,0,0,0,8.894,7.25,6.877,6.877,0,0,0,1.563-.175A8.079,8.079,0,0,0,115.777,76a10.067,10.067,0,0,0,1.9-1.51,10.773,10.773,0,0,0,2.164-3.424,27.73,27.73,0,0,0,1.234-4.08.377.377,0,0,0-.079-.329.347.347,0,0,0-.311-.132C119.181,66.626,117.776,66.8,116.418,66.967Z"/><path d="M108.851,82.749a1.113,1.113,0,0,1-.269.4c-.009.007-.064.059-.073.066a1.627,1.627,0,0,1-.2.173l-.363.193a6.219,6.219,0,0,1-1.3.409l-.116.028a5.385,5.385,0,0,0-1.148.36c-.011.006-.085.061-.1.067a.376.376,0,0,0-.106.519,1.171,1.171,0,0,1,.109.213l.063.16c0,.251.087.48,2.192.48l.336,0c.748,0,1.463-.025,2.176-.075a25.774,25.774,0,0,0,4.36-.663,11.05,11.05,0,0,0,3.271-1.323,4.714,4.714,0,0,0,.6-.471.378.378,0,0,0,.118-.334c-.01-.068-.017-.139-.025-.213-.01-.1-.022-.208-.036-.3a13.465,13.465,0,0,0-.463-2.187.378.378,0,0,0-.231-.252.37.37,0,0,0-.339.039,10,10,0,0,1-2.178,1.091,9.781,9.781,0,0,1-2.733.524,7.838,7.838,0,0,1-1.133-.013l-1.86-.173a.374.374,0,0,0-.48.436c.021.1.044.2.056.244a2.714,2.714,0,0,1-.071.487Z"/><path d="M118.62,75.338a11,11,0,0,1-2.1,1.828l-.209.128a8.862,8.862,0,0,1-1.117.617c-.257.112-.512.224-.747.325-.179.058-.364.109-.55.159l-.274.076a9.865,9.865,0,0,1-7.239-1.148,10.972,10.972,0,0,1-3.271-2.795,10.264,10.264,0,0,1-1.608-2.992.375.375,0,0,0-.543-.2l-.588.333c-.1.041-.194.075-.292.109l-.149.054a.374.374,0,0,0-.212.508,31.817,31.817,0,0,0,1.57,3.012,11.67,11.67,0,0,0,2.227,2.9c.112.074.228.141.346.209.089.05.178.1.329.19l.732.3a13.036,13.036,0,0,0,1.565.468c.193.051.384.088.575.125l.174.034a.214.214,0,0,0,.045.005.367.367,0,0,0,.081.027c.736.15,1.488.281,2.243.391.3.039.593.08.883.121l.6.083c.14.008.278.019.412.031.22.019.446.039.66.039.063,0,.126,0,.186,0a8.5,8.5,0,0,0,2.373-.33,10.505,10.505,0,0,0,3.513-1.865,21.436,21.436,0,0,0,3.04-3.078c.171-.2.326-.388.475-.555l.367-.425a.374.374,0,0,0,.087-.185,29.71,29.71,0,0,0,.385-4.088,13.924,13.924,0,0,0-.134-2.287,6.651,6.651,0,0,0-.137-.7c-.054-.211-.208-.348-.555-.262a.375.375,0,0,0-.288.353,17.332,17.332,0,0,1-.723,4.554A11.038,11.038,0,0,1,118.62,75.338Z"/><path d="M102.276,69.2a.376.376,0,0,0,0-.341.372.372,0,0,0-.275-.2l-.163-.024c-.163-.025-.341-.052-.547-.089-.227-.035-.474-.079-.739-.128-.413-.075-.872-.158-1.382-.228l-2.829-.346c-1.056-.129-2.233-.267-3.5-.411-.783-.09-1.606-.233-2.477-.384-.518-.091-1.05-.183-1.568-.262-.719-.162-1.431-.351-2.151-.544-.757-.2-1.525-.407-2.32-.584a20.79,20.79,0,0,0-3.92-.573.345.345,0,0,0-.338.186.376.376,0,0,0,.006.387,5.65,5.65,0,0,0,.8.987,10.679,10.679,0,0,0,1.91,1.521,23.766,23.766,0,0,0,4.559,2.292,18.7,18.7,0,0,0,2.182.7,8.657,8.657,0,0,0,1.1.211l1.138.146a36.55,36.55,0,0,0,4.388.349,9.853,9.853,0,0,0,4.007-.659A4.655,4.655,0,0,0,102.276,69.2Z"/><path d="M33.591,48.149c.907.22,1.915.432,3.081.649a.391.391,0,0,0,.068.006.382.382,0,0,0,.237-.083.376.376,0,0,0,.138-.282,39.6,39.6,0,0,1,2.138-12.276.373.373,0,0,0-.321-.5c-.669-.058-1.331-.09-2.026-.1a.383.383,0,0,0-.36.256,1.514,1.514,0,0,1-.061.163,32.174,32.174,0,0,0-3.18,11.768A.374.374,0,0,0,33.591,48.149Z"/><path d="M56.621,37.487l-2.353-.027h0a.375.375,0,0,0-.321.569c.409.675.8,1.334,1.183,1.99l1.257,2.1c.23.38.465.731.7,1.087.2.295.4.594.595.912.421.692.8,1.357,1.165,2,.383.674.753,1.322,1.143,1.955a8.785,8.785,0,0,0,2.546,2.979,7.51,7.51,0,0,0,2.384.637.3.3,0,0,0,.06,0,.333.333,0,0,0,.076-.008c.424-.088.921-.184,1.512-.291.819-.185,1.806-.393,2.966-.617l.565-.1c1.045-.2,2.23-.414,3.558-.609.812-.088,1.673-.177,2.595-.266.582-.065,1.147-.095,1.735-.127.352-.019.711-.038,1.084-.065l1.078-.075c1.683-.119,3.589-.254,5.65-.327a40.29,40.29,0,0,1,5.014.119.374.374,0,0,0,.317-.621A65.6,65.6,0,0,0,81.736,39.8a48.286,48.286,0,0,0-4.968-3.3.4.4,0,0,0-.33-.025C69.885,37.65,63.146,37.568,56.621,37.487Z"/><path d="M11.921,39.988a.362.362,0,0,0,.086.011.377.377,0,0,0,.286-.133l.115-.142c.044-.056.087-.111.133-.162l.009-.01a23.608,23.608,0,0,1,3.46-3.31l.9-.665a5.693,5.693,0,0,1,.842-.516c.219-.11.423-.2.6-.287a2.942,2.942,0,0,0,.73-.4A.985.985,0,0,0,19.343,34a.368.368,0,0,0,.046-.112c.043-.184.085-.369.119-.573a3.261,3.261,0,0,0,0-1.05.376.376,0,0,0-.522-.346,10.03,10.03,0,0,0-2.452,1.611,28.793,28.793,0,0,0-4.767,5.638,1.412,1.412,0,0,0-.111.166.42.42,0,0,0-.017.375A.372.372,0,0,0,11.921,39.988Z"/><path d="M62.447,69.166a7.109,7.109,0,0,1,2.708-1.607h0a6.909,6.909,0,0,1,1.49-.289c.534-.024.978-.039,1.411-.016a10.43,10.43,0,0,1,2.7.446,9.307,9.307,0,0,1,4.215,2.657,13.107,13.107,0,0,1,2.314,3.678A25.012,25.012,0,0,1,79,80.772a44.349,44.349,0,0,1,.216,8.392c-.025.388-.056.721-.088,1.014a.376.376,0,0,0,.34.414l2.142.193.034,0a.375.375,0,0,0,.374-.4c-.341-6.418-1.028-10.966-2.224-14.749a20.729,20.729,0,0,0-2.907-6.006,11.321,11.321,0,0,0-4.488-3.7,12.33,12.33,0,0,0-5.191-.949c-.209.008-.418.023-.627.037s-.4.028-.636.038l-.154.019a5.68,5.68,0,0,0-.98.175,6.8,6.8,0,0,0-2.029.862,9.82,9.82,0,0,0-2.844,2.958A18.7,18.7,0,0,0,58.3,72.4a36.056,36.056,0,0,0-1.564,5.724c-.311,1.637-.492,2.98-.625,3.962-.058.443-.109.825-.155,1.162-.02-.36-.035-.742-.04-1.17,0-.181,0-.384.009-.589a.373.373,0,0,0-.13-.3.231.231,0,0,0-.035-.018c.01-.006.022,0,.031-.01a.378.378,0,0,0,.149-.289c.029-.954.094-1.883.2-2.834a33.314,33.314,0,0,1,.781-4.319.372.372,0,0,0-.013-.226.12.12,0,0,1-.01-.056v-.017c.117-2.22.13-4.475.144-6.656.012-2.046.025-4.162.123-6.237.017-.366.039-.723.061-1.072.192-3.043.357-5.671-3.632-6.672a.375.375,0,0,0-.465.393,4.327,4.327,0,0,1-.006.872A1.856,1.856,0,0,1,52.52,55.2a3.558,3.558,0,0,1-2.231.59c-.4-.095-.588-.356-.88-.811a4.471,4.471,0,0,0-.511-.689,2.015,2.015,0,0,0-1.4-.626c-.243-.031-.517-.048-.813-.066-.386-.023-.813-.049-1.256-.118a5.389,5.389,0,0,1-2.131-.815,5.568,5.568,0,0,1-1.242-1.142.376.376,0,0,0-.229-.136q-.923-.159-1.838-.312c-1.389-.233-2.824-.474-4.212-.75a.376.376,0,0,0-.431.258l-.041.134c-.083.276-.177.585-.314.966-.039.175-.084.357-.131.546a13.927,13.927,0,0,0-.373,1.934A34.886,34.886,0,0,0,34.53,62.2l.067.681q.226,2.315.5,5.064a36.788,36.788,0,0,1,.075,6.75.374.374,0,0,0,.24.387c1.549.589,2.831,1.071,4.066,1.475l1.467.451q.753.231,1.457.435c.94.288,1.8.577,2.611.851l1.248.417c1.111.372,2.1.705,2.992.969.811.264,1.541.46,2.193.635.329.088.638.171.964.264.459.085.867.181,1.232.267.329.077.622.147.888.193.244.04.448.079.633.118-.2.029-.41.057-.668.081a12.914,12.914,0,0,1-1.647-.033l-.542-.028-.367-.052c-.853-.117-1.821-.251-2.929-.509-1.28-.264-2.71-.661-4.368-1.122l-5.6-1.521c-1.807-.53-3.73-1.239-5.767-1.99l-1.119-.412a41.086,41.086,0,0,0-6.488-1.885.37.37,0,0,0-.319.091.38.38,0,0,0-.122.309l.035.408c.046.549.092,1.111.144,1.673a.375.375,0,0,0,.3.334c1.068.217,2.04.425,2.9.623a41.083,41.083,0,0,1,4.2,1.259,13.889,13.889,0,0,1,1.843.854.368.368,0,0,0,.121.045c2.384.444,5.431,1.22,9.574,2.33l.779.207c.775.2,1.581.417,2.417.676,1.037.309,2.212.62,3.493.923a39.324,39.324,0,0,0,3.876.748c.147.022.3.037.443.051l.222.023a.307.307,0,0,0,.042,0,.377.377,0,0,0,.263-.107.439.439,0,0,0,.032-.051.381.381,0,0,0,.038.072.374.374,0,0,0,.274.134l.241.01c.156.007.3.012.506.013.162-.008.331-.018.476-.034a.374.374,0,0,0,.333-.359,39.56,39.56,0,0,1,.63-5.87,21.381,21.381,0,0,1,2.1-6.327A10.545,10.545,0,0,1,62.447,69.166ZM36.618,56.843a.811.811,0,0,1,.755-.647.941.941,0,0,1,.242.033c.618.157,1.226.351,1.833.545.415.133.83.265,1.247.386a.74.74,0,0,1,.554.551.985.985,0,0,1-.258.91.7.7,0,0,1-.728.148h0c-.418-.121-.832-.253-1.247-.386-.614-.2-1.228-.393-1.849-.551A.752.752,0,0,1,36.618,56.843Z"/><path d="M74.426,86.711c.1.063.216.129.339.2.283.165.62.362,1.011.639.292.174.6.379.937.607l.238.162c.169.115.349.237.531.367a.382.382,0,0,0,.357.041.373.373,0,0,0,.228-.276c.074-.378.132-.765.18-1.134.053-.338.085-.662.116-.977l.08-.831a.374.374,0,0,0-.363-.413c-.9-.024-1.428-.063-2.017-.112-.784-.048-1.519-.138-1.949-.207-.832-.123-1.037-.341-1.047-.423,0,0,.075-.256,1.062-.556a10.651,10.651,0,0,1,1.936-.3c.593-.04,1.1-.063,1.941-.063a.374.374,0,0,0,.371-.426c-.089-.657-.194-1.346-.325-2.091l-.121-.619a.376.376,0,0,0-.2-.264.38.38,0,0,0-.331,0l-.494.236c-.35.215-.685.406-.97.568l-.122.065a7.325,7.325,0,0,1-1.456.661c-.76.2-1.019.1-1.047.028-.047-.126.066-.429.542-.873.2-.186.45-.383.706-.585.836-.661,1.7-1.344,1.579-2.132-.076-.476-.492-.849-1.269-1.138-.016-.006-2.014-.6-2.189-.6a.411.411,0,0,0-.373.326l-.067.31c-.087.41-.174.781-.275,1.151-.112.585-.247,1.063-.357,1.447l-.041.145c-.175.655-.388.9-.518.908-.081,0-.282-.158-.469-.957a7.882,7.882,0,0,1-.08-1.756c.031-.38.078-.8.132-1.22.011-.04.019-.083.043-.2A.376.376,0,0,0,70.6,76.1a.436.436,0,0,0-.3-.141,5.337,5.337,0,0,0-1.264.147,4.658,4.658,0,0,0-2.482,1.561c-1.122,1.452.036,2.555.966,3.441.131.124.261.248.39.376l.459.446c.444.429.82.794,1.115,1.113.809.866.756,1.145.757,1.145s-.221.174-1.333-.352a12.022,12.022,0,0,1-1.969-1.23,10.15,10.15,0,0,1-1.618-1.554.375.375,0,0,0-.648.125,11.189,11.189,0,0,0-.51,3.611.371.371,0,0,0,.144.284.378.378,0,0,0,.309.072l.394-.082c.409-.032.769-.047,1.089-.047a6.784,6.784,0,0,1,1.426.174c.461.115.747.291.764.462s-.258.368-.744.536a6.921,6.921,0,0,1-1.244.289c-.447.078-.952.168-1.48.307a.378.378,0,0,0-.264.471A8.833,8.833,0,0,0,65.85,89.84a.374.374,0,0,0,.247.153.387.387,0,0,0,.281-.07c.605-.45,1.128-.813,1.55-1.076a7,7,0,0,1,1.251-.63c.558-.211.855-.177.951-.068s-.017.428-.312.821a8.566,8.566,0,0,1-1.042,1.1q-.487.452-1.165,1a.377.377,0,0,0,0,.587,8.53,8.53,0,0,0,3.972,1.768.343.343,0,0,0,.056,0,.377.377,0,0,0,.375-.36c.023-.586.054-1.093.1-1.548a12.49,12.49,0,0,1,.2-1.553c.109-.624.3-.871.426-.893s.331.19.558.827a8.086,8.086,0,0,1,.3,1.625c.032.421.046.889.055,1.4a.376.376,0,0,0,.151.294.381.381,0,0,0,.324.062c.39-.108,2.581-.921,2.885-1.936.263-.866-.44-1.325-.906-1.628-.121-.079-.242-.157-.347-.241-.349-.278-.651-.54-.905-.763a7.181,7.181,0,0,1-1.113-1.289c-.372-.654-.353-.924-.277-.986C73.567,86.359,73.879,86.379,74.426,86.711Z"/><path d="M67.019,68.8l-.246.012a5.366,5.366,0,0,0-3.222,1.536,8.991,8.991,0,0,0-1.609,2.195,14.1,14.1,0,0,0-.7,1.521.377.377,0,0,0,.172.472.381.381,0,0,0,.176.043.371.371,0,0,0,.31-.165,14.576,14.576,0,0,1,2.272-2.657,10.176,10.176,0,0,1,3.46-2.118c.07-.022.141-.04.213-.058s.171-.045.254-.071A.375.375,0,0,0,68,68.775C67.683,68.77,67.347,68.784,67.019,68.8Z"/><path d="M85.988,87.359c1.345.093,2.615.181,3.89.213h.11c.952.008,1.888.015,2.794.031h0l.781.011c.675.008,1.343.016,2.04.045.431.024.862.04,1.359.057.13-.006.264,0,.4,0a5.1,5.1,0,0,0,.806-.04,6.715,6.715,0,0,0,2.117-.588,3.676,3.676,0,0,0,.395-.243.375.375,0,0,0,.135-.427.367.367,0,0,0-.371-.252l-1.448.07c-1.021.051-1.959.1-2.819.115a33.974,33.974,0,0,1-5.242-.229l-.22-.035c-.535-.087-1-.161-1.358-.259a8.995,8.995,0,0,1-1.021-.367,3.391,3.391,0,0,1-.313-.148,3.166,3.166,0,0,1,.389-.059,8.995,8.995,0,0,1,1.057-.039l.405-.018c.353-.018.763-.038,1.2-.038,1.247-.032,2.985-.134,5.022-.291.453-.033.937-.074,1.451-.117,1.613-.134,3.441-.287,5.524-.341a.374.374,0,0,0,.328-.213c.09-.188.2-.375.266-.494a4.508,4.508,0,0,1,.5-.484,5.616,5.616,0,0,1,.526-.312,5.067,5.067,0,0,1,1.478-.356l.222-.028c.389-.032.74-.065,1.048-.1.055-.007.092-.009.123-.011a.76.76,0,0,0,.308-.069.973.973,0,0,0,.439-.541.376.376,0,0,0-.288-.516l-.315-.049a.351.351,0,0,0-.112,0,72.334,72.334,0,0,1-14.286.794,15.638,15.638,0,0,1-3.359-.442,15.8,15.8,0,0,1,3.338-.527c.9-.107,1.987-.2,3.272-.3,1.578-.128,3.542-.287,5.821-.539a.357.357,0,0,0,.273-.271.442.442,0,0,0-.115-.415,12.408,12.408,0,0,1-2.664-3.326,35.476,35.476,0,0,1-1.882-3.644.356.356,0,0,0-.378-.219c-.489.047-.978.078-1.464.086a39.448,39.448,0,0,1-4.462-.319c-.381-.049-.762-.1-1.13-.136a9.816,9.816,0,0,1-1.173-.227,18.351,18.351,0,0,1-2.26-.719,23.741,23.741,0,0,1-4.67-2.371c-.355-.236-.7-.481-1.033-.74a.368.368,0,0,0-.307-.072.373.373,0,0,0-.253.186,1.415,1.415,0,0,1-.127.188,8.832,8.832,0,0,1-1,1.088l-.494.495a.375.375,0,0,0-.055.455,24.334,24.334,0,0,1,2.157,4.886,51.78,51.78,0,0,1,2.126,11.727.374.374,0,0,0,.352.343C84.553,87.259,85.276,87.31,85.988,87.359Z"/><path d="M82.11,92.528a.376.376,0,0,0-.46.119,7.576,7.576,0,0,1-1.968-.311,4.524,4.524,0,0,0-1.4-.223h0A2.464,2.464,0,0,0,76.932,93a4.8,4.8,0,0,1-.518.5,5.976,5.976,0,0,1-2.231,1.092,9.333,9.333,0,0,1-9.037-3.253,10.18,10.18,0,0,1-1.577-2.39c-.143-.351-.277-.717-.412-1.085l-.128-.341c-.089-.352-.163-.711-.237-1.076L62.7,86a12.288,12.288,0,0,1,.815-6.383c.075-.159.145-.32.216-.481a6.161,6.161,0,0,1,.571-1.1c.16-.264.32-.519.484-.779a5.23,5.23,0,0,1,.385-.49l.194-.234a4.051,4.051,0,0,1,.433-.447c.08-.075.16-.15.223-.214a7.774,7.774,0,0,1,.707-.544l.057-.042a6.186,6.186,0,0,1,1.86-.8,9,9,0,0,1,3.941.029,30.164,30.164,0,0,1,3.254.893.383.383,0,0,0,.391-.105.377.377,0,0,0,.068-.4c-.051-.12-.1-.24-.159-.353a14.54,14.54,0,0,0-1.093-1.911.379.379,0,0,0-.09-.093A8.83,8.83,0,0,0,71.643,71a6.314,6.314,0,0,0-3.452.2,10.728,10.728,0,0,0-5.1,4.347,16.961,16.961,0,0,0-2.4,5.87,11.914,11.914,0,0,0-.241,2.912l.009.3a7.362,7.362,0,0,0,.083,1.117,10.577,10.577,0,0,0,.2,1.351,12.232,12.232,0,0,0,5.186,7.843,13.161,13.161,0,0,0,3.635,1.718,10.116,10.116,0,0,0,1.292.344c.164.036.327.072.517.117l.309.048c.466.075.927.148,1.377.2.348.023.685.033,1.012.033a14.739,14.739,0,0,0,4.512-.693c.153-.047.3-.1.435-.158l.221-.088a2.681,2.681,0,0,0,.327-.2,7.411,7.411,0,0,0,2.72-3.238A.376.376,0,0,0,82.11,92.528Z"/><path d="M11.681,58.522a2.832,2.832,0,0,1,1.693-.414,4.073,4.073,0,0,1,1.636.536A10.386,10.386,0,0,1,17.6,60.828a14.569,14.569,0,0,1,2.041,3.14,18.611,18.611,0,0,1,1.247,3.878c.159.715.3,1.441.434,2.172a29.08,29.08,0,0,0,1.511,5.76.658.658,0,0,0,.4.25.381.381,0,0,0,.075.007.376.376,0,0,0,.249-.095.381.381,0,0,0,.125-.31l-.024-.286c-.033-.416-.066-.835-.106-1.24-.053-.6-.157-1.193-.257-1.768-.056-.317-.11-.632-.156-.944-.122-.831-.286-1.682-.5-2.592l-.525-2.473c-.185-.8-.362-1.585-.531-2.35l-.269-1.065a5.957,5.957,0,0,0-.28-.8l-.079-.2a11.065,11.065,0,0,0-2.217-3.269,7.3,7.3,0,0,0-5.837-2.511A6.636,6.636,0,0,0,10.354,57a9.427,9.427,0,0,0-1.871,1.542,11.888,11.888,0,0,0-2.118,3.306l-.119.292a.35.35,0,0,0-.026.1l-.08.653a15.876,15.876,0,0,0,.036,4.288A3.392,3.392,0,0,0,6.867,68.9a1.159,1.159,0,0,0,.18.144.375.375,0,0,0,.573-.232c.088-.4.171-.79.251-1.168.2-.948.391-1.842.615-2.617a16.763,16.763,0,0,1,.957-2.689,11.882,11.882,0,0,1,.551-1.586A4.914,4.914,0,0,1,11.681,58.522Z"/><path d="M121.452,82.926l-.13-.07c-.1-.054-.207-.111-.32-.168l-.25-.121c-.071-.035-.108-.05-.2-.089-.054-.019-.107-.042-.161-.066l-.2-.085a.389.389,0,0,0-.622.319,1.377,1.377,0,0,1-.053.293,1.035,1.035,0,0,1-.159.284,4.815,4.815,0,0,1-1.158,1.243,11.035,11.035,0,0,1-3.489,1.671,24.373,24.373,0,0,1-4.551.889,25.274,25.274,0,0,1-2.617.159l-.477,0a14.725,14.725,0,0,1-2.912-.266l-.032-.27a.375.375,0,0,0-.622-.236c-.131.116-.255.239-.441.423a9.288,9.288,0,0,1-2.009,1.617l-.672.314c-.152.058-.3.1-.453.145l-.229.069a5.6,5.6,0,0,1-.928.2c-.158.025-.315.05-.46.079a5.994,5.994,0,0,1-.922.056c-.165,0-.332,0-.47.012l-1.369-.04c-.689-.027-1.445-.032-2.22-.037l-3.491-.02C88.439,89.2,87,89.1,85.478,89l-1.438-.1a.354.354,0,0,0-.288.108.372.372,0,0,0-.11.286l.073,1.354a.376.376,0,0,0,.339.354c.906.084,1.88.162,2.857.162.816.011,1.618.035,2.409.059,1.024.031,2.013.062,2.983.062.59,0,1.174-.012,1.754-.04.691-.02,1.372-.032,2.043-.044,1.553-.028,3.021-.054,4.452-.166,1.023-.057,2.032-.113,3-.169l1.455-.082c.36-.031.711-.076,1.058-.121l.317-.04a54.669,54.669,0,0,0,9.631-1.974l.5-.157c.513-.162,1.016-.321,1.5-.48l.113-.036a10.717,10.717,0,0,0,1.672-.634,3.614,3.614,0,0,0,2.077-2.251,6.443,6.443,0,0,0,.249-1.479.375.375,0,0,0-.127-.307A3.367,3.367,0,0,0,121.452,82.926Z"/><path d="M24.1,77.87c-.319-.059-.646-.115-.982-.173l-.816-.142a.378.378,0,0,0-.429.273,12.172,12.172,0,0,1-.654,1.89v0a9.437,9.437,0,0,1-1.867,2.8.351.351,0,0,0-.057.076,6.974,6.974,0,0,1-.451.671.375.375,0,0,0,.3.6.4.4,0,0,0,.118-.019c.2-.068.417-.145.63-.239a8.113,8.113,0,0,0,2.993-2.25A7.946,7.946,0,0,0,24.4,78.33a.375.375,0,0,0-.047-.294A.37.37,0,0,0,24.1,77.87Z"/><path d="M12.305,79.274a.374.374,0,0,0,.372-.421,6.578,6.578,0,0,1,.056-2.1c.061-.25.2-.674.438-.7h.008c.266-.038.45.368.561.623a7.961,7.961,0,0,1,.428,1.484l.084.361a.376.376,0,0,0,.214.258.383.383,0,0,0,.335-.016,3.562,3.562,0,0,0,1.783-1.976c.025-.1.043-.206.063-.339a.374.374,0,0,0-.247-.413c-.131-.046-.254-.092-.33-.12a2.8,2.8,0,0,1-.795-.586c-.311-.4-.2-.568-.143-.651a.7.7,0,0,1,.669-.259,3.935,3.935,0,0,1,.654.061.38.38,0,0,0,.3-.088.375.375,0,0,0,.128-.288c-.008-.557-.032-1.114-.081-1.68l-.026-.282a.371.371,0,0,0-.164-.278.375.375,0,0,0-.319-.047l-.094.031a1.222,1.222,0,0,1-.186.051,3.194,3.194,0,0,1-.859.1c-.378-.024-.473-.176-.518-.325a.691.691,0,0,1,.184-.66,2.483,2.483,0,0,1,.59-.472,6.853,6.853,0,0,1,.854-.456.375.375,0,0,0,.21-.412,3.969,3.969,0,0,0-1.9-3.049,2.517,2.517,0,0,0-2.266-.12.374.374,0,0,0-.176.518,6.233,6.233,0,0,1,.835,2.856c-.018.31-.085.689-.32.735s-.514-.264-.665-.482a8.565,8.565,0,0,1-.706-1.2l-.239-.451a.375.375,0,0,0-.325-.2.311.311,0,0,0-.33.189c-.207.361-.408.76-.6,1.185a.379.379,0,0,0-.031.182l.017.33a.419.419,0,0,0,.316.342c.207.1.391.191.555.287a2.245,2.245,0,0,1,.537.454.718.718,0,0,1,.178.653c-.026.119-.065.3-.539.348a1.861,1.861,0,0,1-.523-.041.361.361,0,0,0-.312.09.377.377,0,0,0-.124.3c.013.24.034.475.054.709l.011.131a.376.376,0,0,0,.144.265.384.384,0,0,0,.293.073c.32-.055.617-.1.839-.124a3.792,3.792,0,0,1,.978.121c.5.155.513.363.517.45s.023.315-.425.579a3.922,3.922,0,0,1-.858.337,7.3,7.3,0,0,1-.919.289.375.375,0,0,0-.274.427c.049.285.1.562.152.836.024.146.058.292.089.434l.035.155a.37.37,0,0,0,.073.155.771.771,0,0,1,.15.3,2,2,0,0,0,1.5,1.522A.327.327,0,0,0,12.305,79.274Z"/><path d="M20.491,76.469a7.435,7.435,0,0,0-.349-3.882l-.032-.111c-.219-.819-.36-1.689-.5-2.531-.094-.59-.19-1.178-.311-1.757a16.774,16.774,0,0,0-1.088-3.572,13.2,13.2,0,0,0-1.744-2.826,9.585,9.585,0,0,0-2.146-1.945,2.541,2.541,0,0,0-1.065-.412,1.392,1.392,0,0,0-.9.161,3.852,3.852,0,0,0-1.341,1.616c-.069.133-.126.265-.183.394l-.1.236c-.022.09-.045.172-.08.285-.2.756-.466,1.808-.734,3.3a.375.375,0,0,0,.615.367c1.173-1.054,2.97-2.018,4.868-.62,2.688,1.971,3.1,5.305,3.15,8.614.038,2.587-.523,5.862-3.411,6.767a6.45,6.45,0,0,1-2.655.259.381.381,0,0,0-.365.177.376.376,0,0,0,.01.405,5.234,5.234,0,0,0,1.015,1.145A4.572,4.572,0,0,0,15.4,83.7a2.345,2.345,0,0,0,.351.027,2.436,2.436,0,0,0,1.589-.64,5.781,5.781,0,0,0,1.311-1.665,13.086,13.086,0,0,0,.839-1.762A28.63,28.63,0,0,0,20.491,76.469Z"/><path d="M33.062,74.177a.4.4,0,0,0,.126.021.37.37,0,0,0,.2-.061.379.379,0,0,0,.169-.286,40.742,40.742,0,0,0-.081-5.775c-.056-.772-.119-1.52-.178-2.245-.1-1.242-.2-2.416-.257-3.529a27.709,27.709,0,0,1,.509-8.34,12.37,12.37,0,0,1,.821-2.379l.513-.937a.374.374,0,0,0-.247-.554,40.006,40.006,0,0,1-4.21-1.1c-1.822-.573-3.665-1.029-5.449-1.468-1.594-.394-3.244-.8-4.824-1.282-.2-.059-.41-.126-.615-.193l-.294-.094a.376.376,0,0,0-.409.127c-.176.226-.36.484-.57.812a11.094,11.094,0,0,0-1.34,3.162,18.664,18.664,0,0,0-.585,5.033.374.374,0,0,0,.228.342,10.561,10.561,0,0,1,3.22,2.162,12.712,12.712,0,0,1,2.6,3.68l.053.128a9.237,9.237,0,0,1,.382,1.02l.584,2.316q.146.606.29,1.228.277,1.218.556,2.509c.206.864.381,1.747.518,2.618.025.166.058.341.091.515a.374.374,0,0,0,.314.3,36.162,36.162,0,0,1,7.3,2.058ZM21.594,52.614a.882.882,0,0,1-.548.393.743.743,0,0,1-.573-.08,2.345,2.345,0,0,0-.326-.189.755.755,0,0,0-.1-.052c-.018-.009-.092-.04-.11-.046-.207-.066-.415-.125-.635-.183a.793.793,0,0,1-.482-.376.823.823,0,0,1,.728-1.253.9.9,0,0,1,.215.027,4.938,4.938,0,0,1,1.517.613A.844.844,0,0,1,21.594,52.614Z"/><path d="M121.487,75.752a.374.374,0,0,0-.31.165,18.3,18.3,0,0,1-1.9,2.464.376.376,0,0,0-.09.36,9.725,9.725,0,0,1,.429,2.357.565.565,0,0,0,.233.35c.271.189.529.368.756.5.125.083.251.167.355.229l.268.181a3.873,3.873,0,0,1,.334.247.376.376,0,0,0,.4.045.376.376,0,0,0,.212-.338v-.693c0-.713,0-1.383.017-2,0-.23.018-.462.032-.694a11.911,11.911,0,0,0,.024-1.362C122.239,77.542,122.064,75.752,121.487,75.752Z"/></g><text x="0" y="143" fill="#000000" font-size="5px" font-weight="bold" font-family="'Helvetica Neue', Helvetica, Arial-Unicode, Arial, Sans-serif">Created by Hey Rabbit</text><text x="0" y="148" fill="#000000" font-size="5px" font-weight="bold" font-family="'Helvetica Neue', Helvetica, Arial-Unicode, Arial, Sans-serif">from the Noun Project</text></svg>