<svg xmlns="http://www.w3.org/2000/svg" xmlns:xlink="http://www.w3.org/1999/xlink" version="1.1" x="0px" y="0px" viewBox="0 0 96 120" style="enable-background:new 0 0 96 96;" xml:space="preserve"><style type="text/css">
	.st0{fill-rule:evenodd;clip-rule:evenodd;}
</style><path class="st0" d="M72.282,39.684l-34.293,44.7c-1.337,1.743-3.85,2.074-5.593,0.737L4.6,63.797  c-1.743-1.337-2.074-3.85-0.737-5.593l34.293-44.7c0.714-0.93,1.685-1.457,2.853-1.549l18.885-1.479  c5.643-0.442,8.647,1.864,9.682,7.428l1.193,6.419c5.278-0.425,11.557-2.073,15.916-4.838c4.282-2.715,5.042-5.142-0.498-6.213  c-4.433-0.857-9.999-0.107-14.453,1.12c-0.339-0.92-0.77-1.785-1.326-2.584c5.023-1.457,11.284-2.307,16.314-1.335  c8.108,1.567,7.991,7.298,1.49,11.421c-6.251,3.964-17.407,6.406-24.781,4.982c-4.672-0.903-8.358-4.11-4.936-8.457  c-1.06,0.044-2.11,0.528-2.79,1.448c-3.444,4.663,3.156,9.312,7.157,9.953c2.966,0.573,5.983,0.542,8.979,0.279l1.196,6.43  C73.253,37.68,72.996,38.754,72.282,39.684L72.282,39.684z M40.389,70.711L16.449,52.344l-4.095,5.338l23.941,18.367L40.389,70.711  L40.389,70.711z M52.615,42.517c0.723-2.752-0.018-5.47-1.954-7.525l0.99-1.29c0.501-0.656,0.375-1.595-0.281-2.096  c-0.656-0.501-1.595-0.375-2.096,0.281l-0.997,1.3c-0.07-0.037-0.14-0.072-0.211-0.107c-3.073-1.506-6.748-1.125-8.807,1.847  c-2.342,3.38-0.461,6.871,2.004,9.497c1.53,1.631,3.441,4.033,2.087,6.325c-0.075,0.127-0.137,0.224-0.186,0.291  c-1.306,1.789-3.852,1.024-5.442,0.085c-0.261-0.154-0.488-0.302-0.68-0.442c-1.951-1.424-3.293-3.87-2.257-6.253  c0.33-0.757-0.016-1.637-0.773-1.967c-0.757-0.33-1.637,0.016-1.967,0.773c-1.34,3.083-0.38,6.322,1.874,8.667l-0.991,1.291  c-0.501,0.656-0.375,1.595,0.281,2.096c0.656,0.501,1.595,0.375,2.096-0.281l0.97-1.264c3.01,1.747,7.013,2.185,9.301-0.949  c0.137-0.188,0.255-0.364,0.35-0.526c2.164-3.664,0.079-7.165-2.485-9.896c-1.381-1.471-3.116-3.74-1.723-5.75  c1.19-1.718,3.32-1.705,5.037-0.863c2.268,1.111,3.635,3.46,2.969,5.995c-0.21,0.799,0.267,1.617,1.066,1.827  C51.587,43.792,52.405,43.315,52.615,42.517L52.615,42.517z M62.066,23.566c0.578-1.365,0.286-2.972-0.775-4.046  C59.42,21.315,59.597,22.657,62.066,23.566z"/><text x="0" y="111" fill="#000000" font-size="5px" font-weight="bold" font-family="'Helvetica Neue', Helvetica, Arial-Unicode, Arial, Sans-serif">Created by Eko Purnomo</text><text x="0" y="116" fill="#000000" font-size="5px" font-weight="bold" font-family="'Helvetica Neue', Helvetica, Arial-Unicode, Arial, Sans-serif">from the Noun Project</text></svg>