<svg xmlns="http://www.w3.org/2000/svg" xmlns:xlink="http://www.w3.org/1999/xlink" version="1.1" x="0px" y="0px" viewBox="0 0 100 125" enable-background="new 0 0 100 100" xml:space="preserve"><path d="M97.071,47.509c-2.269-5.421-7.223-9.56-8.036-10.215c0.597-0.101,2.849-0.565,3.778-1.949  c0.396-0.589,0.497-1.271,0.301-2.025c-0.263-1.011-0.926-1.753-1.973-2.21c-1.873-0.814-4.412-0.455-5.449,0.106  c-1.521,0.821-1.14,3.555-1.091,3.874c-0.122,0.17-0.275,0.35-0.346,0.394c-1.331-2.821-7.803-14.793-9.86-17.271  c-1.391-1.677-2.26-2.009-2.747-1.988c-0.338,0.013-0.501,0.188-0.555,0.264c-0.209,0.294-0.355,0.468-0.69,0.355  c-2.476-0.694-11.694-1.729-20.407-1.729s-17.934,1.035-20.411,1.729c-0.333,0.112-0.478-0.062-0.687-0.355  c-0.055-0.075-0.216-0.251-0.557-0.264c-0.484-0.021-1.354,0.312-2.746,1.988c-2.058,2.478-8.527,14.447-9.859,17.271  c-0.066-0.042-0.212-0.208-0.348-0.394c0.051-0.318,0.43-3.053-1.089-3.874c-1.038-0.562-3.576-0.922-5.45-0.106  c-1.046,0.457-1.709,1.199-1.972,2.21c-0.196,0.755-0.096,1.437,0.299,2.025c0.932,1.384,3.183,1.849,3.78,1.949  c-0.814,0.655-5.768,4.794-8.037,10.215c-1.086,2.595-2.153,6.696-0.764,15.447C2.134,63.291,1.432,74.085,2.92,79.87  c0.458,1.5,1.531,5.012,4.271,5.012h6.525c0.008,0.001,0.052,0.004,0.121,0.004c0.314,0,1.158-0.062,1.816-0.669  c0.537-0.497,0.815-1.236,0.827-2.2c0.957,0.082,8.041,0.094,8.956,0.043c1.193-0.066,1.354-0.134,1.952-0.382  c0.164-0.067,0.368-0.153,0.637-0.254c1.269-0.482,2.119-0.629,3.643-0.629H50.36h0.781h17.181c1.524,0,2.375,0.146,3.643,0.629  c0.269,0.101,0.474,0.187,0.638,0.254c0.598,0.248,0.759,0.315,1.952,0.382c0.914,0.051,7.998,0.039,8.956-0.043  c0.012,0.964,0.289,1.703,0.826,2.2c0.658,0.607,1.504,0.669,1.813,0.669c0.069,0,0.112-0.003,0.119-0.004h6.531  c2.74,0,3.813-3.512,4.273-5.019c1.486-5.778,0.783-16.572,0.761-16.907C98.566,58.357,99.139,52.448,97.071,47.509z M11.889,69.294  c-1.605,0-2.907-1.354-2.907-3.023c0-1.669,1.302-3.021,2.907-3.021c1.606,0,2.907,1.353,2.907,3.021  C14.796,67.94,13.495,69.294,11.889,69.294z M16.439,48.208c-2.379,3.071-6.052,4.362-8.565,2.616  c-2.513-1.745-2.352-5.703-0.135-8.895c2.217-3.19,5.461-4.286,8.216-2.863C18.566,40.414,19.115,44.753,16.439,48.208z   M77.733,67.077c-0.007,0.064-0.011,0.126-0.012,0.18c-0.006,0.502-0.112,1.103-0.364,2.074l-0.014,0.053  c-0.39,1.501-0.794,3.054-4.196,4.288c-3.423,1.24-15.995,1.311-21.44,1.311c-0.389,0-0.742-0.001-1.052-0.001h-0.659h-0.66  c-0.31,0-0.662,0.001-1.051,0.001c-5.445,0-18.019-0.07-21.44-1.311c-3.403-1.234-3.807-2.787-4.196-4.288l-0.014-0.053  c-0.253-0.972-0.358-1.572-0.365-2.074c0-0.054-0.006-0.115-0.011-0.18c-0.022-0.274-0.052-0.65,0.205-0.929  c0.234-0.255,0.656-0.378,1.29-0.378c0.26-0.001,25.93-0.142,26.242-0.142s25.982,0.141,26.242,0.142  c0.633,0,1.056,0.123,1.29,0.378C77.785,66.427,77.755,66.803,77.733,67.077z M77.521,55.895c-0.782,0.165-20.995,0.25-26.693,0.254  v0.001c-0.077,0-0.156,0-0.239,0c-0.079,0-0.155,0-0.228,0v-0.001c-5.931-0.004-27.106-0.089-27.889-0.254  c-0.778-0.164-1.229-0.454-1.229-1.451c0-0.909,1.141-3.022,2.842-4.722c1.697-1.698,3.783-2.018,7.238-2.545  c3.617-0.554,15.531-0.928,18.674-0.928s15.057,0.374,18.674,0.928c3.455,0.527,5.541,0.847,7.239,2.545  c1.698,1.699,2.841,3.812,2.841,4.722C78.75,55.44,78.299,55.73,77.521,55.895z M26.509,47.28  c-3.265-7.245-3.224-12.218-3.224-12.218l6.445-0.758c0.76,5.604,4.004,11.713,4.004,11.713s-2.276,0.083-3.497,0.294  C29.015,46.522,26.403,47.239,26.509,47.28z M49.996,44.416c-0.42,0-0.79-0.205-1.021-0.52v0.141h-1.128l-1.77-1.416h2.771  c0.2-0.432,0.638-0.733,1.146-0.733s0.945,0.302,1.146,0.733h2.772l-1.77,1.416h-1.128v-0.141  C50.786,44.211,50.415,44.416,49.996,44.416z M50,39.882c-5.515,0-10.104,0.104-10.65-0.5c-0.037-0.041,0-0.657,0-0.698  c0-0.661,4.769-1.198,10.65-1.198c5.881,0,10.648,0.537,10.648,1.198c0,0.041,0.037,0.574,0,0.613  C60.104,39.901,55.514,39.882,50,39.882z M69.756,46.312c-1.223-0.211-3.498-0.294-3.498-0.294s3.244-6.109,4.002-11.713  l6.446,0.758c0,0,0.043,4.973-3.223,12.218C73.589,47.239,70.977,46.522,69.756,46.312z M49.996,32.893  c-10.416,0-24.382,1.194-30.347,1.705c-1.292,0.109-0.893,0.193-1.183,0.206c2.285-5.119,8.695-15.909,8.938-16.292  c0.658-0.227,11.839-1.544,22.591-1.544s21.928,1.317,22.59,1.544c0.275,0.434,6.657,11.181,8.938,16.292  c-0.288-0.013,0.109-0.097-1.183-0.206C74.378,34.087,60.411,32.893,49.996,32.893z M88.103,69.294  c-1.605,0-2.907-1.354-2.907-3.023c0-1.669,1.302-3.021,2.907-3.021s2.907,1.353,2.907,3.021  C91.01,67.94,89.708,69.294,88.103,69.294z M92.117,50.824c-2.513,1.746-6.185,0.455-8.564-2.616  c-2.676-3.455-2.129-7.794,0.484-9.142c2.754-1.423,5.998-0.327,8.215,2.863C94.47,45.121,94.629,49.079,92.117,50.824z"/><text x="0" y="115" fill="#000000" font-size="5px" font-weight="bold" font-family="'Helvetica Neue', Helvetica, Arial-Unicode, Arial, Sans-serif">Created by Pavel N.</text><text x="0" y="120" fill="#000000" font-size="5px" font-weight="bold" font-family="'Helvetica Neue', Helvetica, Arial-Unicode, Arial, Sans-serif">from the Noun Project</text></svg>