<svg xmlns="http://www.w3.org/2000/svg" data-name="Layer 1" viewBox="0 0 100 125" x="0px" y="0px"><title>Artboard 1</title><path d="M6.19,46.25l2.21,0h.29q-.39.52-.74,1A21.47,21.47,0,0,0,4.41,59.7V84.17a5.12,5.12,0,0,0,5.12,5.12h6.62a5.12,5.12,0,0,0,5.12-5.12V80.33h42V58.65A16.44,16.44,0,0,1,51.72,43V19.17a16.3,16.3,0,0,1,2-7.87l-3.67,0h0a99,99,0,0,0-17.18,1.11c-3.44.6-8.42,2-11.84,6.88-1.92,2.77-5,9.65-7.43,15.72A8.63,8.63,0,0,0,7.9,32.43c-.63,0-1.26,0-1.89,0a5.07,5.07,0,0,0-5,5c0,1.07,0,2.22,0,3.63A5.28,5.28,0,0,0,6.19,46.25Zm11.32,9.61a4,4,0,0,1,5-3.85l9.37,2.46a4,4,0,0,1-1,7.83H21.49a4,4,0,0,1-4-4ZM59.67,43V19.17a8.46,8.46,0,0,1,8.46-8.46H90.54A8.46,8.46,0,0,1,99,19.17V43a8.46,8.46,0,0,1-8.46,8.46H87.42v4.84a1.62,1.62,0,0,1-.48,1.15l-3.75,3.75a.62.62,0,0,0,0,.88l3.34,3.33a2.13,2.13,0,0,1,0,3l-3.34,3.34a.62.62,0,0,0,0,.88l3.75,3.75a1.62,1.62,0,0,1,.48,1.15V81A1.39,1.39,0,0,1,87,82l-7,7a.94.94,0,0,1-1.33,0l-7-7a1.38,1.38,0,0,1-.4-1V51.42H68.13A8.46,8.46,0,0,1,59.67,43Z"/><text x="0" y="115" fill="#000000" font-size="5px" font-weight="bold" font-family="'Helvetica Neue', Helvetica, Arial-Unicode, Arial, Sans-serif">Created by Gregor Cresnar</text><text x="0" y="120" fill="#000000" font-size="5px" font-weight="bold" font-family="'Helvetica Neue', Helvetica, Arial-Unicode, Arial, Sans-serif">from the Noun Project</text></svg>