<svg xmlns="http://www.w3.org/2000/svg" xmlns:xlink="http://www.w3.org/1999/xlink" version="1.1" x="0px" y="0px" viewBox="0 0 100 125" style="enable-background:new 0 0 100 100;" xml:space="preserve"><style type="text/css">
	.st0{fill-rule:evenodd;clip-rule:evenodd;}
</style><g><path class="st0" d="M64.58,72.92c-0.52,0.71-1.04,1.4-1.56,2.07c5.1,1.49,8.39,3.82,8.39,6.45c0,4.49-9.59,8.13-21.42,8.13   c-11.83,0-21.42-3.64-21.42-8.13c0-2.63,3.29-4.97,8.39-6.45c-0.52-0.67-1.04-1.36-1.56-2.07c-8.18,2.32-13.65,6.53-13.65,11.34   c0,7.31,12.64,13.24,28.23,13.24s28.23-5.93,28.23-13.24C78.23,79.45,72.76,75.23,64.58,72.92z"/><path class="st0" d="M50,83.37c6.77,0,29.66-34.83,29.66-51.21C79.66,15.78,66.38,2.5,50,2.5c-16.38,0-29.66,13.28-29.66,29.66   C20.34,48.54,43.23,83.37,50,83.37z M32.38,32.16c0-9.73,7.89-17.63,17.62-17.63c9.73,0,17.62,7.89,17.62,17.63   c0,9.73-7.89,17.62-17.62,17.62C40.27,49.78,32.38,41.89,32.38,32.16z"/></g><text x="0" y="115" fill="#000000" font-size="5px" font-weight="bold" font-family="'Helvetica Neue', Helvetica, Arial-Unicode, Arial, Sans-serif">Created by Hafid Firman Syarif</text><text x="0" y="120" fill="#000000" font-size="5px" font-weight="bold" font-family="'Helvetica Neue', Helvetica, Arial-Unicode, Arial, Sans-serif">from the Noun Project</text></svg>