<svg xmlns="http://www.w3.org/2000/svg" xmlns:xlink="http://www.w3.org/1999/xlink" xmlns:xodm="http://www.corel.com/coreldraw/odm/2003" xml:space="preserve" version="1.1" style="shape-rendering:geometricPrecision;text-rendering:geometricPrecision;image-rendering:optimizeQuality;" viewBox="0 0 8.4666 10.58325" x="0px" y="0px" fill-rule="evenodd" clip-rule="evenodd"><defs><style type="text/css">
   
    .fil0 {fill:black;fill-rule:nonzero}
   
  </style></defs><g><path class="fil0" d="M5.7744 2.0189c0.0153,0.0693 -0.0284,0.1379 -0.0976,0.1531 -0.0693,0.0153 -0.1379,-0.0284 -0.1531,-0.0976 -0.0125,-0.0561 -0.0449,-0.1038 -0.0883,-0.1361 -0.0433,-0.0323 -0.0985,-0.0494 -0.1563,-0.0453 -0.0571,0.0041 -0.1088,0.0294 -0.1498,0.0702 -0.0379,0.0403 -0.0609,0.0898 -0.0649,0.1446 -0.0041,0.0576 0.0136,0.1126 0.053,0.1572 0.0434,0.0487 0.1121,0.0885 0.2063,0.1125 0.1472,0.0376 0.2597,0.1057 0.3358,0.1921 0.0869,0.0987 0.1262,0.219 0.1169,0.3456 -0.0088,0.1212 -0.0615,0.2302 -0.1421,0.3109 -0.0583,0.0588 -0.1315,0.1024 -0.2134,0.1254l0 0.0532c0,0.0712 -0.0578,0.129 -0.1289,0.129 -0.0712,0 -0.129,-0.0578 -0.129,-0.129l0 -0.0509c-0.0609,-0.0161 -0.1178,-0.0437 -0.1676,-0.0808 -0.0915,-0.0681 -0.1595,-0.1682 -0.1858,-0.287 -0.0152,-0.0692 0.0284,-0.1379 0.0977,-0.1531 0.0692,-0.0152 0.1378,0.0284 0.1531,0.0977 0.0124,0.0561 0.0447,0.1036 0.0881,0.1359 0.0435,0.0323 0.0986,0.0496 0.1565,0.0453 0.0569,-0.0041 0.1087,-0.0292 0.147,-0.0675 0.0384,-0.038 0.0633,-0.0898 0.0675,-0.1471 0.0042,-0.0574 -0.0138,-0.1123 -0.0535,-0.1574 -0.0429,-0.0486 -0.1116,-0.0884 -0.2058,-0.1125 -0.147,-0.0376 -0.2596,-0.1057 -0.3358,-0.1921 -0.0867,-0.099 -0.126,-0.2194 -0.1168,-0.3455 0.0086,-0.1175 0.0583,-0.2234 0.1346,-0.3032l0.0075 -0.0082c0.0582,-0.0582 0.1314,-0.1018 0.2133,-0.125l0 -0.0532c0,-0.0712 0.0578,-0.1289 0.129,-0.1289 0.0711,0 0.1289,0.0577 0.1289,0.1289l0 0.0509c0.0609,0.0161 0.1179,0.0437 0.1676,0.0808 0.0915,0.0681 0.1595,0.1683 0.1859,0.2871zm-0.0928 -1.0784l-0.3896 -0.2039 -0.3836 0.2007c-0.0178,0.0106 -0.0383,0.017 -0.0603,0.0178l-0.4385 0.0182 -0.2342 0.3695c-0.0099,0.0165 -0.0237,0.0309 -0.0411,0.0419l-0.3715 0.2354 -0.0182 0.4385c-0.0008,0.0184 -0.0056,0.037 -0.0146,0.0543l-0.2039 0.3896 0.2008 0.3836c0.0105,0.0178 0.0169,0.0383 0.0177,0.0603l0.0182 0.4384 0.3695 0.2342c0.0164,0.0101 0.0308,0.0238 0.0418,0.0412l0.2355 0.3715 0.4385 0.0181c0.0183,0.0008 0.0369,0.0056 0.0543,0.0147l0.3896 0.2038 0.3837 -0.2007c0.0177,-0.0106 0.0382,-0.017 0.0603,-0.0178l0.4383 -0.0181 0.2342 -0.3695c0.01,-0.0165 0.0238,-0.0309 0.0411,-0.0418l0.3716 -0.2356 0.0182 -0.4384c0.0008,-0.0184 0.0056,-0.037 0.0146,-0.0543l0.2039 -0.3896 -0.2007 -0.3836c-0.0106,-0.0177 -0.017,-0.0382 -0.0178,-0.0603l-0.0182 -0.4385 -0.3696 -0.2341c-0.0164,-0.01 -0.0308,-0.0238 -0.0418,-0.0411l-0.2355 -0.3716 -0.4383 -0.0182c-0.0184,-0.0008 -0.037,-0.0056 -0.0544,-0.0146zm-3.7854 5.9856c0.0783,-0.0478 0.1572,-0.1041 0.2347,-0.1591 0.197,-0.1399 0.3865,-0.2747 0.5854,-0.2967l1.7932 -0.0064c0.1719,-0.0005 0.3313,-0.0257 0.4863,-0.0754 0.1577,-0.0512 0.3056,-0.1262 0.4519,-0.2247l2.7649 -1.8616c-0.0527,-0.0381 -0.1128,-0.0657 -0.1756,-0.0827 -0.1174,-0.0321 -0.2436,-0.0281 -0.3499,0.0093l-2.2157 0.7916c0.0131,0.0731 -0.0319,0.139 -0.0999,0.1528l-1.7187 0.3522c-0.0694,0.0141 -0.1374,-0.0308 -0.1515,-0.1002 -0.0142,-0.0695 0.0307,-0.1375 0.1002,-0.1516l1.5741 -0.3225c-0.0493,-0.0913 -0.1332,-0.1834 -0.2353,-0.2575 -0.1303,-0.0943 -0.2875,-0.1554 -0.4369,-0.1422l-1.1848 0.1314c-0.0129,0.0014 -0.0257,0.0009 -0.0387,-0.0015 -0.3488,-0.0679 -0.8611,-0.0128 -1.3191,0.2207 -0.3445,0.1757 -0.6567,0.453 -0.8406,0.8554l0.776 1.1687zm-1.2042 -1.3482l-0.4381 0.2909 1.236 1.8612 0.438 -0.2909 -1.2359 -1.8612z"/></g><text x="0" y="23.4666" fill="#000000" font-size="5px" font-weight="bold" font-family="'Helvetica Neue', Helvetica, Arial-Unicode, Arial, Sans-serif">Created by Rofidatul Hasanah</text><text x="0" y="28.4666" fill="#000000" font-size="5px" font-weight="bold" font-family="'Helvetica Neue', Helvetica, Arial-Unicode, Arial, Sans-serif">from the Noun Project</text></svg>