<svg xmlns="http://www.w3.org/2000/svg" xmlns:xlink="http://www.w3.org/1999/xlink" version="1.1" x="0px" y="0px" viewBox="0 0 96 120" enable-background="new 0 0 96 96" xml:space="preserve"><g><rect x="24.628" y="5.539" width="46.744" height="6.211"/><path d="M24.628,90.461L48,68.912l23.372,21.549V13H24.628V90.461z M47.155,33.423c-2.075-0.813-6.427-2.52-6.427-7.134   c0-3.148,1.903-5.597,5.091-6.55l0.002,0v-3.693h4.905v3.388c1.326,0.185,2.508,0.581,3.609,1.209l1.111,0.636l-1.852,4.891   l-1.525-0.87c-0.393-0.224-1.59-0.907-3.457-0.907c-1.359,0-2.171,0.559-2.171,1.494c0,0.709,0.231,1.271,3.323,2.548   c1.662,0.679,6.092,2.489,6.092,7.473c0,3.232-2.043,5.858-5.33,6.852v3.798h-4.938l-0.003-3.51   c-1.746-0.228-3.344-0.792-4.496-1.59l-0.947-0.655l1.771-4.943l1.588,1.022c1.128,0.727,2.623,1.161,3.998,1.161   c1.204,0,2.608-0.498,2.608-1.9C50.107,35.372,49.879,34.527,47.155,33.423z"/></g><text x="0" y="111" fill="#000000" font-size="5px" font-weight="bold" font-family="'Helvetica Neue', Helvetica, Arial-Unicode, Arial, Sans-serif">Created by projecthayat</text><text x="0" y="116" fill="#000000" font-size="5px" font-weight="bold" font-family="'Helvetica Neue', Helvetica, Arial-Unicode, Arial, Sans-serif">from the Noun Project</text></svg>