<svg xmlns:dc="http://purl.org/dc/elements/1.1/" xmlns:cc="http://creativecommons.org/ns#" xmlns:rdf="http://www.w3.org/1999/02/22-rdf-syntax-ns#" xmlns:svg="http://www.w3.org/2000/svg" xmlns="http://www.w3.org/2000/svg" xmlns:sodipodi="http://sodipodi.sourceforge.net/DTD/sodipodi-0.dtd" xmlns:inkscape="http://www.inkscape.org/namespaces/inkscape" version="1.1" x="0px" y="0px" viewBox="0 0 100 125"><g transform="translate(0,-952.36218)"><path d="m 50,965.36217 c -20.4344,0 -37,16.56555 -37,37.00003 0,20.4344 16.5656,37 37,37 20.4344,0 37,-16.5656 37,-37 0,-20.43448 -16.5656,-37.00003 -37,-37.00003 z m -3.0625,9.96875 a 3.0003,3.0003 0 0 1 1.9687,0.6875 l 15,12 a 3.0003,3.0003 0 0 1 0,4.68748 l -12.1874,9.6563 12.1874,9.625 a 3.0003,3.0003 0 0 1 0,4.7187 l -15,12 a 3.0003,3.0003 0 0 1 -4.875,-2.3437 l 0,-17.9375 -4.125,3.2812 a 3.0136814,3.0136814 0 1 1 -3.75,-4.7187 l 5.875,-4.6563 -5.875,-4.625 a 3.0003,3.0003 0 0 1 1.5,-5.375 3.0003,3.0003 0 0 1 2.25,0.6563 l 4.125,3.25 0,-17.87503 a 3.0003,3.0003 0 0 1 2.625,-3 3.0003,3.0003 0 0 1 0.2813,-0.0312 z m 3.0937,9.28125 0,11.37503 7.1563,-5.65628 -7.1563,-5.71875 z m 0,24.06253 0,11.4375 7.1876,-5.75 -7.1876,-5.6875 z" style="color:#000000;enable-background:accumulate;" fill="#000000" stroke="none" marker="none" visibility="visible" display="inline" overflow="visible"/></g><text x="0" y="115" fill="#000000" font-size="5px" font-weight="bold" font-family="'Helvetica Neue', Helvetica, Arial-Unicode, Arial, Sans-serif">Created by il Capitano</text><text x="0" y="120" fill="#000000" font-size="5px" font-weight="bold" font-family="'Helvetica Neue', Helvetica, Arial-Unicode, Arial, Sans-serif">from the Noun Project</text></svg>