<svg xmlns="http://www.w3.org/2000/svg" data-name="Layer 1" viewBox="0 0 64 80" x="0px" y="0px"><title>car-seat-adjustment-comftable</title><path d="M48.58,12a2.991,2.991,0,0,0-2.919,2.3L41.935,29.958A34.365,34.365,0,0,0,41,37.917V47.962a8.016,8.016,0,0,0-3.482-.823l-19.456-.086a7,7,0,0,0-7.062,7V58a1,1,0,0,0,1,1H52a1,1,0,0,0,.941-.663A.984.984,0,0,0,53,58h0V15a3,3,0,0,0-2-2.816V10a2,2,0,0,0,2-2V4a2,2,0,0,0-2-2H48a2,2,0,0,0-2,2V8a2,2,0,0,0,2,2h1v2Z"/><rect x="11" y="60" width="42" height="2"/><path d="M13.1,30.073,10.6,28.2,9.4,29.8l4,3a1,1,0,0,0,1.2,0l4-3-1.2-1.6-2.255,1.691A17.014,17.014,0,0,1,29.891,15.145L28.2,17.4l1.6,1.2,3-4a1,1,0,0,0,0-1.2l-3-4-1.6,1.2,1.873,2.5A19.032,19.032,0,0,0,13.1,30.073Z"/><path d="M21.847,32.688l1.9.625A14.97,14.97,0,0,1,38,23V21A16.967,16.967,0,0,0,21.847,32.688Z"/><path d="M23,38H21a16.913,16.913,0,0,0,1.236,6.375l1.854-.75A14.929,14.929,0,0,1,23,38Z"/><text x="0" y="79" fill="#000000" font-size="5px" font-weight="bold" font-family="'Helvetica Neue', Helvetica, Arial-Unicode, Arial, Sans-serif">Created by dDara</text><text x="0" y="84" fill="#000000" font-size="5px" font-weight="bold" font-family="'Helvetica Neue', Helvetica, Arial-Unicode, Arial, Sans-serif">from the Noun Project</text></svg>