<svg xmlns="http://www.w3.org/2000/svg" viewBox="0 0 64 80" x="0px" y="0px"><path d="m36,23.28v-1.28c0-2.21-1.79-4-4-4s-4,1.79-4,4v1.28c-.59.35-1,.99-1,1.72v3c0,1.1.9,2,2,2h6c1.1,0,2-.9,2-2v-3c0-.73-.41-1.37-1-1.72Zm-6-1.28c0-1.1.9-2,2-2s2,.9,2,2v1h-4v-1Z"/><path d="m42.71,9h-.9l-.78-3.63c-.29-1.37-1.53-2.37-2.93-2.37h-12.2c-1.41,0-2.64,1-2.93,2.37l-.78,3.63h-.9c-2.92,0-5.29,2.32-5.29,5.17v41.66c0,2.85,2.37,5.17,5.29,5.17h21.42c2.92,0,5.29-2.32,5.29-5.17V14.17c0-2.85-2.37-5.17-5.29-5.17Zm-17.79-3.21c.1-.46.51-.79.98-.79h12.2c.47,0,.88.33.98.79l.69,3.21h-15.53l.69-3.21Zm16.08,47.21c0,1.1-.9,2-2,2h-14c-1.1,0-2-.9-2-2v-14c0-1.1.9-2,2-2h14c1.1,0,2,.9,2,2v14Zm0-22c0,1.1-.9,2-2,2h-14c-1.1,0-2-.9-2-2v-14c0-1.1.9-2,2-2h14c1.1,0,2,.9,2,2v14Z"/><path d="m35,45h-5v-1c0-1.1.9-2,2-2,.53,0,1.04.21,1.41.59s1.02.39,1.41,0,.39-1.02,0-1.41c-.76-.76-1.76-1.17-2.83-1.17-2.21,0-4,1.79-4,4v1.28c-.59.35-1,.99-1,1.72v3c0,1.1.9,2,2,2h6c1.1,0,2-.9,2-2v-3c0-1.1-.9-2-2-2Z"/><path d="m54.68,25.6c-.36-.42-.98-.48-1.41-.12-.42.35-.48.99-.12,1.41,1.2,1.43,1.86,3.24,1.86,5.12s-.66,3.69-1.86,5.12c-.35.42-.3,1.05.12,1.41.19.16.42.23.64.23.29,0,.57-.12.77-.36,1.5-1.79,2.32-4.06,2.32-6.4s-.83-4.62-2.32-6.4Z"/><path d="m51.61,28.16c-.35-.42-.98-.49-1.41-.13-.42.35-.49.98-.13,1.41.61.74.93,1.62.93,2.56s-.32,1.83-.93,2.56c-.35.43-.29,1.06.13,1.41.19.15.41.23.64.23.29,0,.57-.12.77-.36.9-1.08,1.39-2.45,1.39-3.84s-.49-2.75-1.39-3.84Z"/><path d="m57.76,23.04c-.35-.42-.98-.48-1.41-.13-.42.35-.48.98-.13,1.41,1.79,2.14,2.78,4.87,2.78,7.68s-.99,5.54-2.78,7.68c-.35.42-.3,1.05.13,1.41.19.16.42.23.64.23.29,0,.57-.12.77-.36,2.09-2.5,3.24-5.69,3.24-8.96s-1.15-6.46-3.24-8.96Z"/><path d="m9,32c0-1.87.66-3.69,1.86-5.12.35-.42.3-1.05-.12-1.41s-1.05-.3-1.41.12c-1.5,1.79-2.32,4.06-2.32,6.4s.83,4.62,2.32,6.4c.2.24.48.36.77.36.23,0,.45-.08.64-.23.42-.36.48-.99.12-1.41-1.2-1.43-1.86-3.24-1.86-5.12Z"/><path d="m13.8,28.03c-.43-.35-1.06-.29-1.41.13-.9,1.08-1.39,2.45-1.39,3.84s.49,2.75,1.39,3.84c.2.24.48.36.77.36.22,0,.45-.08.64-.23.42-.35.49-.98.13-1.41-.61-.74-.93-1.62-.93-2.56s.32-1.83.93-2.56c.35-.43.29-1.06-.13-1.41Z"/><path d="m5,32c0-2.81.99-5.54,2.78-7.68.35-.42.3-1.05-.13-1.41-.42-.35-1.05-.3-1.41.13-2.09,2.5-3.24,5.69-3.24,8.96s1.15,6.46,3.24,8.96c.2.24.48.36.77.36.23,0,.45-.08.64-.23.42-.35.48-.99.13-1.41-1.79-2.14-2.78-4.87-2.78-7.68Z"/><text x="0" y="79" fill="#000000" font-size="5px" font-weight="bold" font-family="'Helvetica Neue', Helvetica, Arial-Unicode, Arial, Sans-serif">Created by Andi Nur Abdillah</text><text x="0" y="84" fill="#000000" font-size="5px" font-weight="bold" font-family="'Helvetica Neue', Helvetica, Arial-Unicode, Arial, Sans-serif">from the Noun Project</text></svg>