<svg xmlns="http://www.w3.org/2000/svg" viewBox="0 0 32 40" x="0px" y="0px"><title>dashboard warning car 32 X 32 TO NOUNT PRO</title><g data-name="Layer 20"><path d="M18.59,24a1,1,0,0,1-.52-1.86,8.91,8.91,0,0,0,4.2-7.62,1,1,0,0,1,2,0,10.92,10.92,0,0,1-5.16,9.33A1,1,0,0,1,18.59,24Z"/><path d="M16.93,20.95a1,1,0,0,1-.52-1.86A5.37,5.37,0,0,0,19,14.47a1,1,0,0,1,2,0,7.38,7.38,0,0,1-3.51,6.33A1,1,0,0,1,16.93,20.95Z"/><path d="M15.28,18a1,1,0,0,1-.52-1.86,1.89,1.89,0,0,0,.89-1.63,1,1,0,0,1,2,0,3.9,3.9,0,0,1-1.86,3.34A1,1,0,0,1,15.28,18Z"/><polygon points="28.75 23 23.26 23 26.01 13.87 28.75 23"/><polygon points="29.83 27 22.18 27 22.79 25 29.23 25 29.83 27"/><path d="M2,5H8.18a7.2,7.2,0,0,1,5.23,1.91,6.71,6.71,0,0,1,2,5,6.73,6.73,0,0,1-2,5.17A7.78,7.78,0,0,1,7.86,19H7v8H2ZM7,9.2v5.17a4,4,0,0,0,2.4-.64,2.29,2.29,0,0,0,.77-1.92,2.38,2.38,0,0,0-.75-2A4.12,4.12,0,0,0,7,9.2Z"/></g><text x="0" y="47" fill="#000000" font-size="5px" font-weight="bold" font-family="'Helvetica Neue', Helvetica, Arial-Unicode, Arial, Sans-serif">Created by DARAYANI</text><text x="0" y="52" fill="#000000" font-size="5px" font-weight="bold" font-family="'Helvetica Neue', Helvetica, Arial-Unicode, Arial, Sans-serif">from the Noun Project</text></svg>