<svg xmlns="http://www.w3.org/2000/svg" xmlns:xlink="http://www.w3.org/1999/xlink" version="1.1" x="0px" y="0px" viewBox="0 0 64 80" enable-background="new 0 0 64 64" xml:space="preserve"><g><path d="M61.5,28.94l-1.07-1.6c-0.56-0.84-1.5-1.34-2.5-1.34H57.9c-0.47-2.28-2.49-4-4.9-4h-6c-2.41,0-4.43,1.72-4.9,4h-0.03   c-1,0-1.94,0.5-2.5,1.34l-1.07,1.6c-0.33,0.5-0.5,1.07-0.5,1.67v23.66c0,1.27,0.24,2.52,0.71,3.71l1.36,3.39   C40.22,61.75,40.59,62,41,62h18c0.41,0,0.78-0.25,0.93-0.63l1.36-3.39c0.47-1.19,0.71-2.44,0.71-3.71V30.61   C62,30.01,61.83,29.44,61.5,28.94z M47,24h6c1.3,0,2.42,0.84,2.83,2H44.17C44.58,24.84,45.7,24,47,24z M59.43,57.24L58.32,60H41.68   l-1.11-2.76c-0.14-0.35-0.24-0.71-0.33-1.07l3.47-3.46C43.89,52.52,44,52.27,44,52v-8h12v8c0,0.27,0.11,0.52,0.29,0.71l3.47,3.46   C59.67,56.53,59.57,56.89,59.43,57.24z M44,42V32h12v10H44z"/><path d="M53,50v-1c0-1.65-1.35-3-3-3s-3,1.35-3,3v1c-0.55,0-1,0.45-1,1v6c0,0.55,0.45,1,1,1h6c0.55,0,1-0.45,1-1v-6   C54,50.45,53.55,50,53,50z M49,49c0-0.55,0.45-1,1-1s1,0.45,1,1v1h-2V49z"/><path d="M50,34c-1.65,0-3,1.35-3,3c0,1.65,1.35,3,3,3s3-1.35,3-3C53,35.35,51.65,34,50,34z"/><path d="M45.757,12.757c2.34-2.339,6.146-2.339,8.486,0c0.195,0.195,0.451,0.293,0.707,0.293s0.512-0.098,0.707-0.293   c0.391-0.391,0.391-1.024,0-1.414c-3.119-3.119-8.195-3.119-11.314,0c-0.391,0.39-0.391,1.023,0,1.414S45.366,13.148,45.757,12.757   z"/><path d="M52.121,15.879c0.256,0,0.512-0.098,0.707-0.292c0.391-0.391,0.391-1.023,0-1.415c-1.51-1.512-4.146-1.512-5.656,0   c-0.391,0.391-0.391,1.024,0,1.415c0.391,0.39,1.023,0.39,1.414,0c0.756-0.756,2.072-0.756,2.828,0   C51.609,15.781,51.865,15.879,52.121,15.879z"/><circle cx="50" cy="18" r="1"/><path d="M35,56H20v-7c0-0.552-0.448-1-1-1s-1,0.448-1,1v8c0,0.552,0.448,1,1,1h16c0.553,0,1-0.448,1-1S35.553,56,35,56z"/><path d="M32,39V19.01c0.3,0.07,0.6,0.12,0.9,0.12c0.4,0,0.79-0.06,1.15-0.18c0.85-0.29,1.51-0.91,1.79-1.69   c0.29-0.78,0.18-1.67-0.29-2.44c-0.43-0.71-1.13-1.27-1.97-1.57c-0.53-0.2-1.07-0.26-1.58-0.23V11c0-4.96-4.04-9-9-9h-8   c-4.96,0-9,4.04-9,9v2.02c-0.51-0.03-1.05,0.03-1.58,0.23c-0.84,0.3-1.54,0.86-1.97,1.57c-0.47,0.77-0.58,1.66-0.29,2.44   c0.42,1.17,1.62,1.87,2.95,1.87c0.29,0,0.59-0.05,0.89-0.12V39c0,3.86,3.14,7,7,7h12C28.86,46,32,42.86,32,39z M25.34,16.34   l-2,4.66h-8.68l-2-4.66c-0.21-0.49,0-1.05,0.47-1.29c1.84-0.92,3.85-1.38,5.87-1.38c2.01,0,4.03,0.46,5.87,1.38   C25.34,15.29,25.55,15.85,25.34,16.34z M12.66,37.66l1.74-4.05c0.16-0.37,0.52-0.61,0.92-0.61h7.36c0.4,0,0.76,0.24,0.92,0.61   l1.74,4.05c0.21,0.49,0,1.05-0.47,1.29c-3.68,1.84-8.06,1.84-11.74,0C12.66,38.71,12.45,38.15,12.66,37.66z M28.25,42.33   c-0.55,0-1-0.45-1-1c0-0.56,0.45-1,1-1s1,0.44,1,1C29.25,41.88,28.8,42.33,28.25,42.33z M30,34.28c-0.21-0.2-0.39-0.44-0.5-0.71   l-1.36-3.41C28.05,29.93,28,29.68,28,29.42V28h2V34.28z M31.14,15.55C31.27,15.21,31.7,15,32.21,15c0.22,0,0.45,0.04,0.68,0.13   c0.41,0.14,0.76,0.41,0.95,0.73c0.09,0.15,0.23,0.43,0.12,0.72c-0.1,0.28-0.39,0.42-0.55,0.47c-0.35,0.12-0.79,0.1-1.2-0.04   C31.46,16.73,30.96,16.05,31.14,15.55z M29.68,19.88c0.08-0.16,0.2-0.31,0.32-0.45V26h-2v-2.29c0-0.31,0.07-0.62,0.21-0.9   L29.68,19.88z M24.07,4.09c1.9,0.29,3.55,1.35,4.62,2.85C28.47,6.97,28.24,7,28,7c-2.17,0-4-1.15-4-2.5   C24,4.36,24.03,4.22,24.07,4.09z M13.93,4.09C13.97,4.22,14,4.36,14,4.5C14,5.85,12.17,7,10,7C9.76,7,9.53,6.97,9.31,6.94   C10.38,5.44,12.03,4.38,13.93,4.09z M8,19.43c0.12,0.14,0.24,0.29,0.32,0.45l1.47,2.93C9.93,23.09,10,23.4,10,23.71V26H8V19.43z    M5.79,17c-0.75,0.28-1.57,0.08-1.75-0.42c-0.11-0.29,0.03-0.57,0.12-0.72c0.19-0.32,0.54-0.59,0.94-0.73   C5.33,15.04,5.57,15,5.79,15c0.51,0,0.94,0.2,1.07,0.55C7.04,16.05,6.54,16.73,5.79,17z M8,34.28V28h2v1.42   c0,0.26-0.05,0.51-0.14,0.75l-1.36,3.4C8.39,33.84,8.21,34.08,8,34.28z M9.58,42.29c-0.55,0-1-0.45-1-1s0.45-1,1-1s1,0.45,1,1   S10.13,42.29,9.58,42.29z M14,43.29c0,0.55-0.45,1-1,1s-1-0.45-1-1v-1c0-0.55,0.45-1,1-1s1,0.45,1,1V43.29z M24,43.29v-1   c0-0.55,0.45-1,1-1s1,0.45,1,1v1c0,0.55-0.45,1-1,1S24,43.84,24,43.29z"/></g><text x="0" y="79" fill="#000000" font-size="5px" font-weight="bold" font-family="'Helvetica Neue', Helvetica, Arial-Unicode, Arial, Sans-serif">Created by Tippawan Sookruay</text><text x="0" y="84" fill="#000000" font-size="5px" font-weight="bold" font-family="'Helvetica Neue', Helvetica, Arial-Unicode, Arial, Sans-serif">from the Noun Project</text></svg>