<svg xmlns="http://www.w3.org/2000/svg" xmlns:xlink="http://www.w3.org/1999/xlink" xmlns:serif="http://www.serif.com/" viewBox="0 0 100 125" version="1.1" xml:space="preserve" style="" x="0px" y="0px" fill-rule="evenodd" clip-rule="evenodd" stroke-linejoin="round" stroke-miterlimit="2"><rect serif:id="Page 55" x="0" y="0" width="100" height="100" style="" fill="none"/><path d="M6.423,55.56c-0.798,0 -1.444,-0.646 -1.444,-1.444c0,-2.133 0,-6.099 0,-8.232c0,-0.798 0.646,-1.444 1.444,-1.444c5.004,0 21.291,0 21.291,0l0,-8.295c0,-0.34 0.205,-0.647 0.519,-0.778c0.315,-0.13 0.677,-0.058 0.917,0.183c3.118,3.118 10.454,10.453 13.297,13.296c0.637,0.637 0.637,1.671 0,2.308c-2.843,2.843 -10.179,10.178 -13.297,13.296c-0.24,0.241 -0.602,0.313 -0.917,0.183c-0.314,-0.131 -0.519,-0.438 -0.519,-0.778c0,-3.008 0,-8.295 0,-8.295l-21.291,0Z"/><path d="M38.272,64.717c-0.286,0.494 -0.116,1.126 0.378,1.412c0.863,0.498 2.162,1.248 3.025,1.746c0.494,0.286 1.127,0.116 1.412,-0.378c2.769,-4.796 15.83,-27.418 18.599,-32.214c0.285,-0.494 0.116,-1.126 -0.379,-1.412c-0.863,-0.498 -2.162,-1.248 -3.025,-1.746c-0.494,-0.286 -1.126,-0.116 -1.412,0.378c-2.769,4.796 -15.829,27.418 -18.598,32.214Z"/><path d="M43.087,32.503c-0.285,-0.494 -0.918,-0.664 -1.412,-0.378c-0.863,0.498 -2.162,1.248 -3.025,1.746c-0.494,0.286 -0.664,0.918 -0.378,1.412c2.769,4.796 15.829,27.418 18.598,32.214c0.286,0.494 0.918,0.664 1.412,0.378c0.863,-0.498 2.162,-1.248 3.025,-1.746c0.495,-0.286 0.664,-0.918 0.379,-1.412c-2.769,-4.796 -15.83,-27.418 -18.599,-32.214Z"/><path d="M93.577,44.44c0.798,0 1.444,0.646 1.444,1.444c0,2.133 0,6.099 0,8.232c0,0.798 -0.646,1.444 -1.444,1.444c-5.004,0 -21.291,0 -21.291,0l0,8.295c0,0.34 -0.205,0.647 -0.519,0.778c-0.315,0.13 -0.677,0.058 -0.917,-0.183c-3.118,-3.118 -10.454,-10.453 -13.297,-13.296c-0.637,-0.637 -0.637,-1.671 0,-2.308c2.843,-2.843 10.179,-10.178 13.297,-13.296c0.24,-0.241 0.602,-0.313 0.917,-0.183c0.314,0.131 0.519,0.438 0.519,0.778c0,3.008 0,8.295 0,8.295l21.291,0Z"/><text x="0" y="115" fill="#000000" font-size="5px" font-weight="bold" font-family="'Helvetica Neue', Helvetica, Arial-Unicode, Arial, Sans-serif">Created by Zach Bogart</text><text x="0" y="120" fill="#000000" font-size="5px" font-weight="bold" font-family="'Helvetica Neue', Helvetica, Arial-Unicode, Arial, Sans-serif">from the Noun Project</text></svg>