<svg xmlns="http://www.w3.org/2000/svg" xmlns:xlink="http://www.w3.org/1999/xlink" version="1.1" x="0px" y="0px" viewBox="0 0 26 32.5" enable-background="new 0 0 26 26" xml:space="preserve"><g><polygon points="13.9799,10.58 15.5799,8.99 13.9799,7.39  "/><polygon points="13.9799,18.61 15.5799,17.01 13.9799,15.42  "/><path d="M13,1C6.3699,1,1,6.37,1,13s5.3699,12,12,12c6.6199,0,12-5.37,12-12S19.6199,1,13,1z M17.6999,16.31   c0.39,0.39,0.39,1.02,0,1.41l-4,4C13.51,21.92,13.25,22.01,13,22.01c-0.6215,0-1.0201-0.526-1.0201-1.02v-5.55l-2.28,2.28   c-0.3899,0.39-1.02,0.39-1.41,0c-0.39-0.39-0.39-1.02,0-1.41l3.31-3.31l-3.31-3.31c-0.39-0.39-0.39-1.02,0-1.41   c0.39-0.39,1.0201-0.39,1.41,0l2.28,2.28V4.99c0-0.42,0.2701-0.78,0.63-0.93c0.304-0.1217,0.7599-0.1102,1.09,0.22l4,4   c0.39,0.39,0.39,1.02,0,1.41l-3.31,3.31L17.6999,16.31z"/></g><text x="0" y="41" fill="#000000" font-size="5px" font-weight="bold" font-family="'Helvetica Neue', Helvetica, Arial-Unicode, Arial, Sans-serif">Created by Vectors Point</text><text x="0" y="46" fill="#000000" font-size="5px" font-weight="bold" font-family="'Helvetica Neue', Helvetica, Arial-Unicode, Arial, Sans-serif">from the Noun Project</text></svg>