<svg xmlns="http://www.w3.org/2000/svg" xmlns:xlink="http://www.w3.org/1999/xlink" version="1.1" x="0px" y="0px" viewBox="0 0 64 80" enable-background="new 0 0 64 64" xml:space="preserve"><g><path fill="#000000" d="M62.231,34.887c-0.174-0.465-0.417-0.891-0.717-1.279c-0.308-0.402-0.674-0.737-1.09-1.013   l0.068,0.01l-0.02-0.441C59.763,16.559,46.962,4.189,31.33,4.003l-0.359-0.002c-16.069,0-29.316,13.074-29.529,29.144   c-0.066,4.644,0.986,9.298,3.043,13.463c0.28,0.546,0.827,0.886,1.428,0.886c0.878,0,1.593-0.711,1.593-1.584   c0-0.23-0.057-0.468-0.173-0.713c-1.916-3.881-2.826-8.064-2.704-12.433C5.033,18.659,16.409,7.422,30.528,7.181l0.453-0.004   c13.824,0,25.34,10.768,26.276,24.536c-2.588,0.171-4.646,2.307-4.646,4.937c0,0.736,0.155,1.434,0.465,2.093l0.048,0.116v0.097   c0.087,0.765-0.097,1.424-0.533,1.928c-0.533,0.601-1.376,0.882-2.403,0.794c-0.097,0-0.184-0.019-0.262-0.039   c-0.058-0.01-0.116-0.019-0.145-0.019h-0.107c-0.504,0-1.017-0.019-1.502-0.039c-0.484-0.019-0.979-0.039-1.463-0.039   c-0.756,0-1.356,0.048-1.899,0.155c-5.154,0.979-8.148,5.455-7.276,10.88c0.572,3.546,2.596,5.978,5.852,7.034   c0.814,0.262,1.618,0.387,2.393,0.387c2.112,0,4.137-0.92,6.201-2.819c0.513-0.475,1.027-0.949,1.54-1.415   c1.221-1.114,2.48-2.267,3.691-3.43c0.242-0.233,0.446-0.601,0.465-0.756c-0.097-0.184-0.494-0.484-0.717-0.494   c-0.097,0-0.194-0.01-0.281-0.01c-0.678,0-1.327,0.136-1.831,0.368c-1.25,0.572-2.49,1.25-3.691,1.899   c-0.455,0.252-0.911,0.494-1.366,0.736c-1.608,0.862-3.207,0.824-4.592-0.087c-1.327-0.872-1.899-2.238-1.599-3.866   c0.349-1.86,1.734-2.839,3.042-3.556c2.122-1.153,4.457-1.424,6.704-1.686c0.262-0.029,0.523-0.068,0.785-0.097   c1.211-0.145,1.976-0.591,2.48-1.415c0.465-0.746,1.066-1.327,1.841-1.792l0.078-0.048l0.087-0.019   c2.286-0.475,3.943-2.529,3.943-4.864C62.561,36.04,62.445,35.449,62.231,34.887z M57.678,39.819c-1.695,0-3.071-1.376-3.071-3.071   c0-1.695,1.376-3.071,3.071-3.071c1.695,0,3.071,1.376,3.071,3.071C60.749,38.443,59.373,39.819,57.678,39.819z"/></g><text x="0" y="79" fill="#000000" font-size="5px" font-weight="bold" font-family="'Helvetica Neue', Helvetica, Arial-Unicode, Arial, Sans-serif">Created by Delwar Hossain</text><text x="0" y="84" fill="#000000" font-size="5px" font-weight="bold" font-family="'Helvetica Neue', Helvetica, Arial-Unicode, Arial, Sans-serif">from the Noun Project</text></svg>