<svg xmlns="http://www.w3.org/2000/svg" xmlns:xlink="http://www.w3.org/1999/xlink" version="1.1" x="0px" y="0px" viewBox="0 0 128 160" style="enable-background:new 0 0 128 128;" xml:space="preserve"><style type="text/css">
	.st0{display:none;}
	.st1{display:inline;}
	.st2{fill:none;stroke:#000000;stroke-width:0.1;stroke-miterlimit:10;}
	.st3{stroke:#000000;stroke-width:4;stroke-linecap:round;stroke-miterlimit:10;}
</style><g class="st0"><g class="st1"><rect class="st2" width="128" height="128"/><line class="st2" x1="0" y1="124" x2="128" y2="124"/><line class="st2" x1="0" y1="120" x2="128" y2="120"/><line class="st2" x1="0" y1="116" x2="128" y2="116"/><line class="st2" x1="0" y1="112" x2="128" y2="112"/><line class="st2" x1="0" y1="108" x2="128" y2="108"/><line class="st2" x1="0" y1="104" x2="128" y2="104"/><line class="st2" x1="0" y1="100" x2="128" y2="100"/><line class="st2" x1="0" y1="96" x2="128" y2="96"/><line class="st2" x1="0" y1="92" x2="128" y2="92"/><line class="st2" x1="0" y1="88" x2="128" y2="88"/><line class="st2" x1="0" y1="84" x2="128" y2="84"/><line class="st2" x1="0" y1="80" x2="128" y2="80"/><line class="st2" x1="0" y1="76" x2="128" y2="76"/><line class="st2" x1="0" y1="72" x2="128" y2="72"/><line class="st2" x1="0" y1="68" x2="128" y2="68"/><line class="st2" x1="0" y1="64" x2="128" y2="64"/><line class="st2" x1="0" y1="60" x2="128" y2="60"/><line class="st2" x1="0" y1="56" x2="128" y2="56"/><line class="st2" x1="0" y1="52" x2="128" y2="52"/><line class="st2" x1="0" y1="48" x2="128" y2="48"/><line class="st2" x1="0" y1="44" x2="128" y2="44"/><line class="st2" x1="0" y1="40" x2="128" y2="40"/><line class="st2" x1="0" y1="36" x2="128" y2="36"/><line class="st2" x1="0" y1="32" x2="128" y2="32"/><line class="st2" x1="0" y1="28" x2="128" y2="28"/><line class="st2" x1="0" y1="24" x2="128" y2="24"/><line class="st2" x1="0" y1="20" x2="128" y2="20"/><line class="st2" x1="0" y1="16" x2="128" y2="16"/><line class="st2" x1="0" y1="12" x2="128" y2="12"/><line class="st2" x1="0" y1="8" x2="128" y2="8"/><line class="st2" x1="0" y1="4" x2="128" y2="4"/><line class="st2" x1="124" y1="0" x2="124" y2="128"/><line class="st2" x1="120" y1="0" x2="120" y2="128"/><line class="st2" x1="116" y1="0" x2="116" y2="128"/><line class="st2" x1="112" y1="0" x2="112" y2="128"/><line class="st2" x1="108" y1="0" x2="108" y2="128"/><line class="st2" x1="104" y1="0" x2="104" y2="128"/><line class="st2" x1="100" y1="0" x2="100" y2="128"/><line class="st2" x1="96" y1="0" x2="96" y2="128"/><line class="st2" x1="92" y1="0" x2="92" y2="128"/><line class="st2" x1="88" y1="0" x2="88" y2="128"/><line class="st2" x1="84" y1="0" x2="84" y2="128"/><line class="st2" x1="80" y1="0" x2="80" y2="128"/><line class="st2" x1="76" y1="0" x2="76" y2="128"/><line class="st2" x1="72" y1="0" x2="72" y2="128"/><line class="st2" x1="68" y1="0" x2="68" y2="128"/><line class="st2" x1="64" y1="0" x2="64" y2="128"/><line class="st2" x1="60" y1="0" x2="60" y2="128"/><line class="st2" x1="56" y1="0" x2="56" y2="128"/><line class="st2" x1="52" y1="0" x2="52" y2="128"/><line class="st2" x1="48" y1="0" x2="48" y2="128"/><line class="st2" x1="44" y1="0" x2="44" y2="128"/><line class="st2" x1="40" y1="0" x2="40" y2="128"/><line class="st2" x1="36" y1="0" x2="36" y2="128"/><line class="st2" x1="32" y1="0" x2="32" y2="128"/><line class="st2" x1="28" y1="0" x2="28" y2="128"/><line class="st2" x1="24" y1="0" x2="24" y2="128"/><line class="st2" x1="20" y1="0" x2="20" y2="128"/><line class="st2" x1="16" y1="0" x2="16" y2="128"/><line class="st2" x1="12" y1="0" x2="12" y2="128"/><line class="st2" x1="8" y1="0" x2="8" y2="128"/><line class="st2" x1="4" y1="0" x2="4" y2="128"/></g></g><g><g><rect x="46.9" y="33" width="34.6" height="26.2"/><path d="M78.4,26.9H50.1c-1.8,0-3.5-0.8-4.5-2c-0.9-1.1-1.2-2.4-0.9-3.7L48,6.5c0.5-2.3,2.8-3.9,5.4-3.9h21.8    c2.6,0,4.9,1.6,5.4,3.9l3.2,14.7c0.3,1.3,0,2.6-0.9,3.7C81.8,26.2,80.1,26.9,78.4,26.9z"/><g><path d="M54.8,22.4c-1.4,0-2.5,1.1-2.5,2.5V33c0,1.4,1.1,2.5,2.5,2.5s2.5-1.1,2.5-2.5v-8.1     C57.3,23.6,56.2,22.4,54.8,22.4z"/><path d="M73.7,22.4c-1.4,0-2.5,1.1-2.5,2.5V33c0,1.4,1.1,2.5,2.5,2.5s2.5-1.1,2.5-2.5v-8.1     C76.2,23.6,75,22.4,73.7,22.4z"/></g><path d="M99.7,92.3c-3.8-0.7-7.9,1.4-10.6,5.1H39.7c-2.9-3.9-7.3-6-11.5-5.1c-6.6,1.4-8.9,9.7-8.1,15.1    c0.5,3.6,2.5,6,4.6,8.6c3.1,3.8,6.9,6.9,11.4,9.2c0.3,0.2,0.6,0.2,0.9,0.2c0,0,0.1,0,0.1,0v0H91c0,0,0,0,0,0c0,0,0,0,0,0h0.4v0    c0.2,0,0.4-0.1,0.5-0.2c4.5-2.4,8.3-5.5,11.4-9.2c2.1-2.5,4-5,4.6-8.6C108.7,101.9,106.2,93.4,99.7,92.3z"/><rect x="46.9" y="63.2" width="34.6" height="32.2"/><path d="M40.7,95.4h2.2V33.1c-4.9,0.3-8.8,5.8-8.4,12.1c0.6,10.8-0.4,17.5-1.7,21.9c-0.2,0.5-0.5,1.5-0.8,2.9    c-0.8,3-1.3,5.4-1.4,6.3c-0.9,5.2-0.1,12,0.2,13.8C34.3,90.3,38,92.2,40.7,95.4z"/><path d="M88.1,95.4c3-3.6,7.1-5.6,11-5.2c0.9-2.9-1.7-9.6-1.8-12.4c0,0,0-0.2,0-0.4c0-0.6-0.1-1.8-0.3-3.2    c-0.1-1-0.3-2.2-0.6-3.5c-0.2-0.8-0.3-1.3-0.4-1.6c-0.9-3.9-1.5-10.8-0.7-23.7c0.4-6.6-3.7-12.3-8.9-12.3h-0.8v62.4H88.1z"/></g></g><text x="0" y="143" fill="#000000" font-size="5px" font-weight="bold" font-family="'Helvetica Neue', Helvetica, Arial-Unicode, Arial, Sans-serif">Created by SBTS</text><text x="0" y="148" fill="#000000" font-size="5px" font-weight="bold" font-family="'Helvetica Neue', Helvetica, Arial-Unicode, Arial, Sans-serif">from the Noun Project</text></svg>