<svg xmlns="http://www.w3.org/2000/svg" data-name="Layer 1" viewBox="0 0 95 118.75" x="0px" y="0px"><defs><style>
      .cls-1 {
        fill-rule: evenodd;
        stroke-width: 0px;
      }
    </style></defs><path class="cls-1" d="M72.05,14.79h-39.92c-.88,0-1.67.36-2.25.94-.58.58-.94,1.37-.94,2.25v16.5c0,.88.36,1.67.94,2.25s1.37.94,2.25.94h39.92c.88,0,1.67-.36,2.25-.94.58-.58.94-1.37.94-2.25v-16.5c0-.88-.36-1.67-.94-2.25-.58-.58-1.37-.94-2.25-.94h0ZM32.12,12.58h39.92c1.49,0,2.84.61,3.81,1.59.98.98,1.59,2.33,1.59,3.81v16.5c0,1.49-.61,2.84-1.59,3.81-.98.98-2.33,1.59-3.81,1.59h-39.92c-1.49,0-2.84-.61-3.81-1.59-.98-.98-1.59-2.33-1.59-3.81v-16.5c0-1.49.61-2.84,1.59-3.81.98-.98,2.33-1.59,3.81-1.59h0ZM75.04,74.47h-28.46c-.05,0-.1.02-.13.06h0s0,0,0,0c-.03.03-.05.08-.05.13v4.98s.01.08.03.11l.02.02s.08.06.13.06h28.46c.05,0,.1-.02.13-.06h0s0,0,0,0c.03-.03.05-.08.05-.13v-4.98c0-.05-.02-.1-.06-.13-.03-.03-.08-.06-.13-.06h0ZM46.58,72.26h28.46c.66,0,1.26.27,1.7.7.43.43.7,1.04.7,1.7v4.98c0,.66-.27,1.26-.71,1.69h0c-.43.44-1.04.71-1.7.71h-28.46c-.66,0-1.26-.27-1.7-.7-.03-.03-.05-.06-.08-.08-.39-.43-.63-.99-.63-1.61v-4.98c0-.66.27-1.26.71-1.69h0c.43-.44,1.04-.71,1.7-.71h0ZM35.33,62.16h-4.88s-.09.02-.11.04h0s-.04.07-.04.12v5.03s.02.09.04.11h0s.07.05.11.05h4.88s.09-.02.11-.04h0s.04-.07.04-.12v-5.03s-.02-.09-.04-.11h0s-.07-.05-.11-.05h0ZM30.45,59.94h4.88c.65,0,1.24.27,1.67.7h0c.43.44.69,1.03.69,1.68v5.03c0,.65-.27,1.24-.7,1.67h0c-.43.44-1.02.7-1.67.7h-4.88c-.65,0-1.24-.27-1.67-.7h0c-.43-.44-.69-1.03-.69-1.68v-5.03c0-.65.27-1.24.7-1.67h0c.43-.44,1.02-.7,1.67-.7h0ZM35.33,49.92h-4.88s-.09.02-.11.04h0s-.04.07-.04.12v5.03s.02.09.04.11h0s.07.05.11.05h4.88s.09-.02.11-.04h0s.04-.07.04-.12v-5.03s-.02-.09-.04-.11h0s-.07-.05-.11-.05h0ZM30.45,47.71h4.88c.65,0,1.24.27,1.67.7h0c.43.44.69,1.03.69,1.68v5.03c0,.65-.27,1.24-.7,1.67h0c-.43.44-1.02.7-1.67.7h-4.88c-.65,0-1.24-.27-1.67-.7h0c-.43-.44-.69-1.03-.69-1.68v-5.03c0-.65.27-1.24.7-1.67h0c.43-.44,1.02-.7,1.67-.7h0ZM49.01,62.16h-4.88s-.09.02-.11.04h0s-.04.07-.04.12v5.03s.02.09.04.11h0s.07.05.11.05h4.88s.09-.02.11-.04h0s.04-.07.04-.12v-5.03s-.02-.09-.04-.11h0s-.07-.05-.11-.05h0ZM44.13,59.94h4.88c.65,0,1.24.27,1.67.7h0c.43.44.69,1.03.69,1.68v5.03c0,.65-.27,1.24-.7,1.67h0c-.43.44-1.02.7-1.67.7h-4.88c-.65,0-1.24-.27-1.67-.7h0c-.43-.44-.69-1.03-.69-1.68v-5.03c0-.65.27-1.24.7-1.67h0c.43-.44,1.02-.7,1.67-.7h0ZM49.01,49.92h-4.88s-.09.02-.11.04h0s-.04.07-.04.12v5.03s.02.09.04.11h0s.07.05.11.05h4.88s.09-.02.11-.04h0s.04-.07.04-.12v-5.03s-.02-.09-.04-.11h0s-.07-.05-.11-.05h0ZM44.13,47.71h4.88c.65,0,1.24.27,1.67.7h0c.43.44.69,1.03.69,1.68v5.03c0,.65-.27,1.24-.7,1.67h0c-.43.44-1.02.7-1.67.7h-4.88c-.65,0-1.24-.27-1.67-.7h0c-.43-.44-.69-1.03-.69-1.68v-5.03c0-.65.27-1.24.7-1.67h0c.43-.44,1.02-.7,1.67-.7h0ZM62.69,62.16h-4.88s-.09.02-.11.04h0s-.04.07-.04.12v5.03s.02.09.04.11h0s.07.05.11.05h4.88s.09-.02.12-.05c.03-.03.05-.07.05-.12v-5.03s-.02-.09-.05-.12c-.03-.03-.07-.05-.12-.05h0ZM57.81,59.94h4.88c.65,0,1.24.27,1.67.7h0c.43.43.7,1.03.7,1.68v5.03c0,.65-.27,1.24-.7,1.67h0c-.43.43-1.02.7-1.67.7h-4.88c-.65,0-1.24-.27-1.67-.7h0c-.43-.44-.69-1.03-.69-1.68v-5.03c0-.65.27-1.24.7-1.67h0c.43-.44,1.02-.7,1.67-.7h0ZM62.69,49.92h-4.88s-.09.02-.11.04h0s-.04.07-.04.12v5.03s.02.09.04.11h0s.07.05.11.05h4.88s.09-.02.12-.05c.03-.03.05-.07.05-.12v-5.03s-.02-.09-.05-.12c-.03-.03-.07-.05-.12-.05h0ZM57.81,47.71h4.88c.65,0,1.24.27,1.67.7h0c.43.43.7,1.03.7,1.68v5.03c0,.65-.27,1.24-.7,1.67h0c-.43.43-1.02.7-1.67.7h-4.88c-.65,0-1.24-.27-1.67-.7h0c-.43-.44-.69-1.03-.69-1.68v-5.03c0-.65.27-1.24.7-1.67h0c.43-.44,1.02-.7,1.67-.7h0ZM76.37,49.53h-4.88s-.09.02-.11.04h0s-.04.07-.04.12v17.66s.02.09.04.11h0s.07.05.11.05h4.88s.09-.02.11-.04h0s.04-.07.04-.12v-17.66s-.02-.09-.04-.11h0s-.07-.05-.11-.05h0ZM71.49,47.31h4.88c.65,0,1.24.27,1.67.7h0c.43.44.69,1.03.69,1.68v17.66c0,.65-.27,1.24-.7,1.67h0c-.43.44-1.02.7-1.67.7h-4.88c-.65,0-1.24-.27-1.67-.7h0c-.43-.44-.69-1.03-.69-1.68v-17.66c0-.65.27-1.24.7-1.67h0c.43-.44,1.02-.7,1.67-.7h0ZM27.41,72.63c-1.57-.49-3.76-.79-6.2-.79s-4.63.3-6.2.79c-1.19.37-1.93.73-1.93.98s.74.61,1.93.98c1.57.49,3.76.79,6.2.79s4.63-.3,6.2-.79c1.19-.37,1.93-.73,1.93-.98s-.74-.61-1.93-.98h0ZM13.07,87.62v3.11c0,.25.74.61,1.93.98,1.57.49,3.76.79,6.2.79s4.63-.3,6.2-.79c1.19-.37,1.93-.73,1.93-.98v-3.11c-.38.18-.81.34-1.27.49-1.77.55-4.2.89-6.86.89s-5.09-.34-6.86-.89c-.46-.14-.89-.31-1.27-.49h0ZM13.07,81.88v3.14c0,.25.74.61,1.93.98,1.57.49,3.76.79,6.2.79s4.63-.3,6.2-.79c1.19-.37,1.93-.73,1.93-.98v-3.14c-.34.16-.72.3-1.14.43-1.68.52-4.05.87-6.96.96-.02,0-.05,0-.07,0-2.9-.09-5.28-.44-6.96-.96-.42-.13-.8-.27-1.14-.43h0ZM29.33,76.21c-.38.18-.81.34-1.27.49-1.77.55-4.2.89-6.86.89s-5.09-.34-6.86-.89c-.46-.14-.89-.31-1.27-.49v3.11c0,.22.64.53,1.79.89,1.5.46,3.66.78,6.34.87,2.68-.09,4.85-.4,6.34-.87,1.15-.36,1.79-.67,1.79-.89v-3.11h0ZM31.55,83.29v2.36c.49.13,1.02.24,1.58.33,1.13.18,2.41.29,3.8.29,2.44,0,4.63-.3,6.2-.79,1.19-.37,1.93-.73,1.93-.98s-.74-.61-1.93-.98c-1.57-.49-3.76-.79-6.2-.79-1.22,0-2.35.07-3.37.2-.73.09-1.4.22-2.02.36h0ZM45.06,87.09c-.38.18-.81.34-1.27.49-1.77.55-4.2.89-6.86.89-1.49,0-2.89-.12-4.15-.33-.43-.07-.84-.15-1.23-.24v2.82c0,.2-.03.4-.09.59.44.1.93.2,1.46.28,1.16.18,2.5.3,4.01.35,2.68-.09,4.85-.4,6.34-.87,1.15-.36,1.79-.67,1.79-.88v-3.11h0ZM47.27,89.01v-4.52c0-1.34-1.33-2.42-3.48-3.09-1.77-.55-4.2-.89-6.86-.89-1.27,0-2.5.08-3.64.23-.61.08-1.2.18-1.74.29v-7.42c0-1.34-1.33-2.42-3.48-3.09-1.54-.48-3.57-.8-5.82-.88V11.99c0-2.61,1.07-4.98,2.79-6.7s4.09-2.79,6.7-2.79h40.71c2.61,0,4.98,1.07,6.7,2.79s2.79,4.09,2.79,6.7v67.53c0,2.61-1.07,4.98-2.79,6.7-1.72,1.72-4.09,2.79-6.7,2.79h-25.16Z"/><text x="0" y="110" fill="#000000" font-size="5px" font-weight="bold" font-family="'Helvetica Neue', Helvetica, Arial-Unicode, Arial, Sans-serif">Created by afdesain4</text><text x="0" y="115" fill="#000000" font-size="5px" font-weight="bold" font-family="'Helvetica Neue', Helvetica, Arial-Unicode, Arial, Sans-serif">from the Noun Project</text></svg>