<svg xmlns="http://www.w3.org/2000/svg" xmlns:xlink="http://www.w3.org/1999/xlink" version="1.1" x="0px" y="0px" viewBox="0 0 96 120" style="enable-background:new 0 0 96 96;" xml:space="preserve"><style type="text/css">
	.st0{fill-rule:evenodd;clip-rule:evenodd;}
</style><path class="st0" d="M40.292,29.435c-0.806-0.806-0.806-2.113,0-2.919c0.806-0.806,2.113-0.806,2.919,0l3.159,3.159l7.631-7.701  c0.802-0.806,2.105-0.81,2.911-0.008c0.806,0.802,0.81,2.105,0.008,2.911c-3.941,3.981-5.127,5.22-9.088,9.18  c-0.806,0.806-2.113,0.806-2.919,0L40.292,29.435L40.292,29.435z M74.442,77.405c4.366,0,7.905,3.539,7.905,7.905  s-3.539,7.905-7.905,7.905s-7.905-3.539-7.905-7.905S70.076,77.405,74.442,77.405L74.442,77.405z M64.006,65.7l1.612,3.175  c0.412,0.817,0.005,1.805-0.855,2.101l-1.759,0.685l1.219,3.132c0.299,0.775-0.086,1.646-0.861,1.945  c-0.775,0.299-1.646-0.086-1.945-0.861l-1.763-4.53c-0.299-0.775,0.086-1.646,0.861-1.945l1.665-0.648L60.63,65.7h-3.32  c-2.703,1.244-4.619,3.084-5.556,5.206h1.733c1.933,0,3.508,1.576,3.508,3.508v1.006c0,1.933-1.576,3.508-3.508,3.508H51.1v2.324  c0,1.576,1.285,2.861,2.86,2.861h9.623c0.596-5.469,5.231-9.727,10.858-9.727s10.262,4.258,10.858,9.727h7.368V65.7H64.006  L64.006,65.7z M92.667,62.682H68.76c10.594-4.426,9.447-15.679,20.351-15.679h3.556V62.682L92.667,62.682z M51.1,75.911  c0-0.662-0.004-1.325,0-1.986h2.387c0.267,0,0.49,0.224,0.49,0.49v1.006c0,0.267-0.224,0.49-0.49,0.49H51.1L51.1,75.911z   M74.442,82.071c-1.789,0-3.239,1.45-3.239,3.239c0,1.789,1.45,3.239,3.239,3.239s3.239-1.45,3.239-3.239  C77.681,83.521,76.231,82.071,74.442,82.071L74.442,82.071z M21.558,77.405c-4.366,0-7.905,3.539-7.905,7.905  s3.539,7.905,7.905,7.905s7.905-3.539,7.905-7.905S25.924,77.405,21.558,77.405L21.558,77.405z M31.994,65.7l-1.612,3.175  c-0.412,0.817-0.005,1.805,0.855,2.101l1.759,0.685l-1.219,3.132c-0.299,0.775,0.086,1.646,0.861,1.945  c0.775,0.299,1.646-0.086,1.945-0.861l1.763-4.53c0.299-0.775-0.086-1.646-0.861-1.945l-1.665-0.648l1.55-3.054h3.32  c2.703,1.244,4.619,3.084,5.556,5.206h-1.733c-1.933,0-3.508,1.576-3.508,3.508v1.006c0,1.933,1.576,3.508,3.508,3.508H44.9v2.324  c0,1.576-1.285,2.861-2.86,2.861h-9.623c-0.596-5.469-5.231-9.727-10.858-9.727S11.296,78.645,10.7,84.114H3.333V65.7H31.994  L31.994,65.7z M3.333,62.682H27.24c-10.594-4.426-9.447-15.679-20.351-15.679H3.333V62.682L3.333,62.682z M44.9,75.911  c0-0.662,0.004-1.325,0-1.986h-2.387c-0.267,0-0.49,0.224-0.49,0.49v1.006c0,0.267,0.224,0.49,0.49,0.49H44.9L44.9,75.911z   M21.558,82.071c1.789,0,3.239,1.45,3.239,3.239c0,1.789-1.45,3.239-3.239,3.239s-3.239-1.45-3.239-3.239  C18.319,83.521,19.769,82.071,21.558,82.071L21.558,82.071z M49.123,2.896c-0.345-0.148-0.696-0.148-1.04,0l-19.894,8.526  c-0.496,0.213-0.8,0.674-0.8,1.214v16.283c0,12.591,9.015,22.31,21.214,24.436c12.199-2.127,21.214-11.846,21.214-24.436V12.635  c0-0.54-0.304-1.001-0.8-1.214L49.123,2.896L49.123,2.896z M48.603,13.066c-8.255,0-14.948,6.693-14.948,14.948  c0,8.255,6.692,14.948,14.948,14.948c8.255,0,14.948-6.693,14.948-14.948C63.551,19.759,56.858,13.066,48.603,13.066z"/><text x="0" y="111" fill="#000000" font-size="5px" font-weight="bold" font-family="'Helvetica Neue', Helvetica, Arial-Unicode, Arial, Sans-serif">Created by Eko Purnomo</text><text x="0" y="116" fill="#000000" font-size="5px" font-weight="bold" font-family="'Helvetica Neue', Helvetica, Arial-Unicode, Arial, Sans-serif">from the Noun Project</text></svg>