<svg xmlns="http://www.w3.org/2000/svg" viewBox="0 0 32 40" x="0px" y="0px"><g><path d="M14.82249,25.50651l-3.46484-3.47445L9.881,23.50868a.96566.96566,0,0,1-1.36081-1.37047l1.467-1.467L6.52233,17.19674C12.178,11.88852,20.14032,19.85085,14.82249,25.50651ZM11.07778,15.4981a2.96773,2.96773,0,0,1,.51149.04824,4.17858,4.17858,0,0,0-.48257-.07717Zm5.4433,5.44335.029-.029a3.86909,3.86909,0,0,0-.07723-.48256A2.96294,2.96294,0,0,1,16.52108,20.94145ZM22.33119,9.688a3.83592,3.83592,0,0,0-5.44336.00966l-4.15,4.14045a8.15986,8.15986,0,0,1,5.453,5.4337l4.1404-4.1308A3.85624,3.85624,0,0,0,22.33119,9.688ZM14.45727,6.22626c-.94746-.9454-2.84995-2.85133-3.79662-3.79656a.919.919,0,0,0-1.30225,0C8.661,3.13494,7.251,4.54888,6.54353,5.24458a.919.919,0,0,0,0,1.30225l3.79656,3.79656c.78328.71778,1.44636-.12209,2.03111-.72279l.92637.92637,1.36081-1.36081-.92531-.92843C14.33205,7.67286,15.17809,7.01032,14.45727,6.22626Zm15.1362,15.1362c-.94644-.94623-2.8503-2.85036-3.79656-3.79656-.78664-.72157-1.44623.12592-2.0278.73093l-.936-.936-1.36086,1.37048.93367.92972c-.605.57763-1.44572,1.239-.7261,2.02209l3.79657,3.79657a.91909.91909,0,0,0,1.30225,0c.70677-.69569,2.11712-2.10993,2.81487-2.81487A.91907.91907,0,0,0,29.59347,21.36246ZM9.40753,28.87563a.96488.96488,0,0,0-.96513-.96513,4.38123,4.38123,0,0,1-4.37608-4.37608.96513.96513,0,0,0-1.93026,0A6.31369,6.31369,0,0,0,8.4424,29.84076.96488.96488,0,0,0,9.40753,28.87563Zm.262-2.93309a.96488.96488,0,0,0-.96513-.96513,1.70732,1.70732,0,0,1-1.70548-1.705.96523.96523,0,0,0-1.93026,0,3.63949,3.63949,0,0,0,3.63574,3.63523A.96488.96488,0,0,0,9.66955,25.94254Z"/></g><text x="0" y="47" fill="#000000" font-size="5px" font-weight="bold" font-family="'Helvetica Neue', Helvetica, Arial-Unicode, Arial, Sans-serif">Created by Dicky Prayudawanto</text><text x="0" y="52" fill="#000000" font-size="5px" font-weight="bold" font-family="'Helvetica Neue', Helvetica, Arial-Unicode, Arial, Sans-serif">from the Noun Project</text></svg>