<svg xmlns="http://www.w3.org/2000/svg" xmlns:xlink="http://www.w3.org/1999/xlink" version="1.1" x="0px" y="0px" viewBox="0 0 504 571.8249999999999" style="enable-background:new 0 0 504 457.46;" xml:space="preserve"><path d="M184.23,42.93H404.8c28.61,0,56.07,12.14,75.32,33.31l16.92,18.59c1.11,1.23,2.86,1.64,4.4,1.04  c1.54-0.59,2.56-2.08,2.56-3.73V41.09c0-1.12-0.47-2.19-1.3-2.95C475.9,13.55,441.13,0,404.8,0H184.23  C125.02,0,72.38,35.45,50.11,90.3L0.29,213.02C0.1,213.5,0,214.01,0,214.53v92.25c0,0.01,0,0.01,0,0.01v146.67c0,2.21,1.79,4,4,4  h496c1.06,0,2.08-0.42,2.83-1.17s1.17-1.77,1.17-2.83V306.79c0-0.03-0.01-0.05-0.01-0.07c-0.01-0.25-0.03-0.5-0.08-0.74  c-0.01-0.03-0.02-0.06-0.02-0.09c-0.03-0.11-0.05-0.21-0.09-0.32l-28.78-89.88c-8.84-27.61-25.89-51.24-49.31-68.33  c-23.42-17.09-51.12-26.12-80.11-26.12h-24.79l-0.17-0.11l-0.07,0.11h-69.61l-0.17-0.11l-0.07,0.11H83.86l6.02-14.79  C105.54,67.86,142.58,42.93,184.23,42.93z M198.45,302.68l0.16,0.11h-60.44l57.13-84.89c11.81,12.49,22.97,25.73,33.46,39.74  L198.45,302.68z M233.79,264.49c8.81,12.21,17.14,24.98,24.97,38.3h-50.74L233.79,264.49z M128.6,302.68l0.16,0.11H61.29  l86.37-128.32c14.77,11.58,28.76,24.09,41.97,37.53L128.6,302.68z M387.19,381.48h90.43c-1.92,12.13-12.45,21.44-25.11,21.44h-40.2  C399.64,402.92,389.11,393.61,387.19,381.48z M387.19,373.48c1.92-12.13,12.45-21.43,25.12-21.43h40.2  c12.66,0,23.19,9.3,25.11,21.43H387.19z M467.4,218.13l24.39,76.15c-27.08-23.13-57.03-44.32-89.62-63.42l39.33-58.43  C452.93,185.4,461.86,200.83,467.4,218.13z M435.89,166.44l-40.67,60.41c-11.13-6.35-22.55-12.46-34.27-18.33l43.7-64.92  C416.16,149.58,426.7,157.27,435.89,166.44z M324.83,129.24h20.77c18.28,0,35.82,3.85,51.75,10.88l-43.64,64.83  c-12.75-6.21-25.83-12.13-39.25-17.76c-7.38-3.1-14.9-6.12-22.53-9.07L324.83,129.24z M254.98,129.24h60.2l-30.93,45.96  c-15.79-5.92-32.1-11.53-48.9-16.79L254.98,129.24z M245.33,129.24l-17.97,26.7c-33.54-10.22-69.01-19.13-106.21-26.7H245.33z   M489.55,302.9c-57.64,1.78-120.01,22.69-190.12,63.72c-8.95-21.48-18.95-41.92-29.9-61.26c-0.15-0.37-0.35-0.71-0.59-1.02  c-16.66-29.26-35.55-55.99-56.54-79.86c-31.69-36.04-68.93-66.56-110.95-90.96C267.03,164.69,394.29,220.25,489.55,302.9z   M141.3,169.59L51.72,302.68l0.17,0.11H9.95l70.01-171.97C101.66,142.19,122.12,155.12,141.3,169.59z"/><text x="0" y="472.46" fill="#000000" font-size="5px" font-weight="bold" font-family="'Helvetica Neue', Helvetica, Arial-Unicode, Arial, Sans-serif">Created by Amethyst Studio</text><text x="0" y="477.46" fill="#000000" font-size="5px" font-weight="bold" font-family="'Helvetica Neue', Helvetica, Arial-Unicode, Arial, Sans-serif">from the Noun Project</text></svg>