<svg xmlns="http://www.w3.org/2000/svg" xmlns:xlink="http://www.w3.org/1999/xlink" version="1.1" x="0px" y="0px" viewBox="0 0 100 125" enable-background="new 0 0 100 100" xml:space="preserve"><path d="M88.555,60.333C89.492,56.828,95,53.801,95,50c0-3.801-5.508-6.828-6.444-10.333c-0.969-3.627,2.258-8.996,0.421-12.172  c-1.864-3.221-8.145-3.098-10.759-5.713c-2.614-2.614-2.491-8.895-5.713-10.759c-3.176-1.837-8.545,1.39-12.172,0.421  C56.828,10.508,53.801,5,50,5c-3.801,0-6.828,5.508-10.333,6.444c-3.627,0.969-8.996-2.258-12.172-0.421  c-3.221,1.864-3.098,8.145-5.713,10.759c-2.614,2.614-8.895,2.491-10.759,5.713c-1.837,3.176,1.39,8.545,0.421,12.172  C10.508,43.172,5,46.199,5,50c0,3.801,5.508,6.828,6.444,10.333c0.969,3.627-2.258,8.996-0.421,12.172  c1.864,3.221,8.145,3.098,10.759,5.713c2.614,2.614,2.491,8.895,5.713,10.759c3.176,1.837,8.545-1.39,12.172-0.421  C43.172,89.492,46.199,95,50,95c3.801,0,6.828-5.508,10.333-6.444c3.627-0.969,8.996,2.258,12.172,0.421  c3.221-1.864,3.098-8.145,5.713-10.759c2.614-2.614,8.895-2.491,10.759-5.713C90.814,69.329,87.586,63.96,88.555,60.333z   M44.184,65.311L31.408,52.455l6.205-6.244l6.752,6.791l18.203-18.313l6.024,6.061L44.184,65.311z"/><text x="0" y="115" fill="#000000" font-size="5px" font-weight="bold" font-family="'Helvetica Neue', Helvetica, Arial-Unicode, Arial, Sans-serif">Created by Eugene Belyakov</text><text x="0" y="120" fill="#000000" font-size="5px" font-weight="bold" font-family="'Helvetica Neue', Helvetica, Arial-Unicode, Arial, Sans-serif">from the Noun Project</text></svg>