<svg xmlns="http://www.w3.org/2000/svg" viewBox="0 0 32 40" x="0px" y="0px"><title>dashboard warning car 32 X 32 TO NOUNT PRO</title><g data-name="Layer 12"><path d="M22.92,28a1,1,0,0,1-.53-1.85,12,12,0,0,0,0-20.31,1,1,0,0,1,1.07-1.69,14,14,0,0,1,0,23.69A1,1,0,0,1,22.92,28Z"/><path d="M9.08,28a1,1,0,0,1-.53-.15,14,14,0,0,1,0-23.69A1,1,0,0,1,9.61,5.85a12,12,0,0,0,0,20.31A1,1,0,0,1,9.08,28Z"/><path d="M16,26A10,10,0,1,1,26,16,10,10,0,0,1,16,26ZM16,8a8,8,0,1,0,8,8A8,8,0,0,0,16,8Z"/><path d="M9.08,28a1,1,0,0,1-.53-.15,14,14,0,0,1,0-23.69A1,1,0,0,1,9.61,5.85a12,12,0,0,0,0,20.31A1,1,0,0,1,9.08,28Z"/><path d="M22.92,28a1,1,0,0,1-.53-1.85,12,12,0,0,0,0-20.31,1,1,0,0,1,1.07-1.69,14,14,0,0,1,0,23.69A1,1,0,0,1,22.92,28Z"/><path d="M14.08,18.51H12.7l-.22-1H11.06l-.23,1H9.47L11,12.64h1.49Zm-1.86-2c-.2-.87-.35-1.7-.45-2.49h0c-.11.81-.25,1.64-.44,2.49Z"/><path d="M14.75,12.64h1.35a2.53,2.53,0,0,1,1.7.46,1.51,1.51,0,0,1,.52,1.18,1.42,1.42,0,0,1-.76,1.24,1.27,1.27,0,0,1,.86,1.29A1.55,1.55,0,0,1,17.89,18a2,2,0,0,1-1.4.46H14.75Zm1.33,1.13V15q.89,0,.89-.62a.55.55,0,0,0-.21-.5A1.33,1.33,0,0,0,16.08,13.77Zm0,2.33v1.27a1.58,1.58,0,0,0,.76-.16.52.52,0,0,0,.25-.48q0-.63-.9-.63Z"/><path d="M19.34,18.4V17a2.24,2.24,0,0,0,1.06.37.54.54,0,0,0,.4-.14.48.48,0,0,0,.14-.37.54.54,0,0,0-.12-.33,2.26,2.26,0,0,0-.4-.37,4.56,4.56,0,0,1-1-1,1.77,1.77,0,0,1-.31-1,1.64,1.64,0,0,1,1.72-1.72,2.79,2.79,0,0,1,1.12.24V14a2.17,2.17,0,0,0-1-.33.58.58,0,0,0-.39.12.41.41,0,0,0-.14.33q0,.37.66.83a4,4,0,0,1,.8.77,1.75,1.75,0,0,1,.41,1.14,1.66,1.66,0,0,1-.53,1.26,1.89,1.89,0,0,1-1.35.5A2.54,2.54,0,0,1,19.34,18.4Z"/></g><text x="0" y="47" fill="#000000" font-size="5px" font-weight="bold" font-family="'Helvetica Neue', Helvetica, Arial-Unicode, Arial, Sans-serif">Created by DARAYANI</text><text x="0" y="52" fill="#000000" font-size="5px" font-weight="bold" font-family="'Helvetica Neue', Helvetica, Arial-Unicode, Arial, Sans-serif">from the Noun Project</text></svg>