<svg xmlns="http://www.w3.org/2000/svg" xmlns:xlink="http://www.w3.org/1999/xlink" viewBox="0 0 66 86.25" version="1.1" x="0px" y="0px"><title>seat, warm, heat, temperature, car</title><desc>Created with Sketch.</desc><g stroke="none" stroke-width="1" fill="none" fill-rule="evenodd"><g transform="translate(-57.000000, -896.000000)" fill="#000000" fill-rule="nonzero"><path d="M71.8170962,959.991619 C70.7877271,959.897085 70,959.033701 70,958 L70,948 L116,948 C119.865993,948 123,951.134007 123,955 L123,960.30791 C123,962.517049 121.209139,964.30791 119,964.30791 C118.877872,964.30791 118.755808,964.302317 118.634192,964.291148 L71.8170962,959.991619 Z M81.3209619,944 L68.4384472,944 L57.059715,898.485071 C56.7441416,897.222778 57.6988577,896 59,896 L64.196248,896 C70.799442,896 76.353679,900.950215 77.1105642,907.509887 L81.3209619,944 Z M89.1723769,913.812277 C88.7237687,912.802909 89.1783547,911.620985 90.1877231,911.172377 C91.1970914,910.723769 92.3790149,911.178355 92.8276231,912.187723 C94.3907923,915.704854 94.3907923,919.295146 92.8276231,922.812277 C91.7241256,925.295146 91.7241256,927.704854 92.8276231,930.187723 C93.2762313,931.197091 92.8216453,932.379015 91.8122769,932.827623 C90.8029086,933.276231 89.6209851,932.821645 89.1723769,931.812277 C87.6092077,928.295146 87.6092077,924.704854 89.1723769,921.187723 C90.2758744,918.704854 90.2758744,916.295146 89.1723769,913.812277 Z M111.172377,913.812277 C110.723769,912.802909 111.178355,911.620985 112.187723,911.172377 C113.197091,910.723769 114.379015,911.178355 114.827623,912.187723 C116.390792,915.704854 116.390792,919.295146 114.827623,922.812277 C113.724126,925.295146 113.724126,927.704854 114.827623,930.187723 C115.276231,931.197091 114.821645,932.379015 113.812277,932.827623 C112.802909,933.276231 111.620985,932.821645 111.172377,931.812277 C109.609208,928.295146 109.609208,924.704854 111.172377,921.187723 C112.275874,918.704854 112.275874,916.295146 111.172377,913.812277 Z M100.172377,904.812277 C99.7237687,903.802909 100.178355,902.620985 101.187723,902.172377 C102.197091,901.723769 103.379015,902.178355 103.827623,903.187723 C105.390792,906.704854 105.390792,910.295146 103.827623,913.812277 C102.724126,916.295146 102.724126,918.704854 103.827623,921.187723 C104.276231,922.197091 103.821645,923.379015 102.812277,923.827623 C101.802909,924.276231 100.620985,923.821645 100.172377,922.812277 C98.6092077,919.295146 98.6092077,915.704854 100.172377,912.187723 C101.275874,909.704854 101.275874,907.295146 100.172377,904.812277 Z"/></g></g><text x="0" y="84" fill="#000000" font-size="5px" font-weight="bold" font-family="'Helvetica Neue', Helvetica, Arial-Unicode, Arial, Sans-serif">Created by Andrejs Kirma</text><text x="0" y="89" fill="#000000" font-size="5px" font-weight="bold" font-family="'Helvetica Neue', Helvetica, Arial-Unicode, Arial, Sans-serif">from the Noun Project</text></svg>