<svg xmlns="http://www.w3.org/2000/svg" xmlns:xlink="http://www.w3.org/1999/xlink" version="1.1" x="0px" y="0px" viewBox="0 0 66 82.5" enable-background="new 0 0 66 66" xml:space="preserve"><g><g><path d="M23.2,41.6c0,3.6-2.9,6.5-6.5,6.5c-3.6,0-6.5-2.9-6.5-6.5s2.9-6.5,6.5-6.5C20.3,35.1,23.2,38,23.2,41.6z"/></g><g><path d="M54.3,41.6c0,3.6-2.9,6.5-6.5,6.5s-6.5-2.9-6.5-6.5s2.9-6.5,6.5-6.5S54.3,38,54.3,41.6z"/></g><path d="M64.9,35.5C64.9,35.5,64.9,35.5,64.9,35.5c0-0.1,0-0.2,0-0.3c0-0.2-0.1-0.5-0.2-0.7c0-0.1,0-0.2-0.1-0.3   c-0.1-0.3-0.2-0.7-0.4-1c0,0,0,0,0-0.1c0-0.1-0.1-0.1-0.1-0.2c-0.1-0.3-0.3-0.6-0.5-0.9c-0.1-0.1-0.1-0.2-0.2-0.3   c-0.2-0.3-0.4-0.6-0.7-0.9c-0.1-0.1-0.2-0.2-0.3-0.3c-0.2-0.2-0.4-0.4-0.6-0.5c-0.1-0.1-0.2-0.2-0.3-0.3c-0.3-0.2-0.6-0.4-0.9-0.7   c0,0-0.1-0.1-0.1-0.1c0,0-0.1,0-0.1,0c-1.4-0.9-3.1-1.4-4.9-1.4H48c-0.4-0.8-0.8-1.6-1.3-2.3c-1.2-1.6-2.7-2.7-4.1-3.6   c-1.3-0.9-2.8-1.6-4.5-2.3c-1.6-0.6-3.2-1.1-4.7-1.5c-0.6-0.1-1.1,0.2-1.2,0.8c-0.1,0.5,0.2,1.1,0.8,1.2c1.5,0.3,2.8,0.8,4.4,1.4   c1.6,0.6,2.9,1.3,4.1,2.1c1.2,0.8,2.5,1.8,3.6,3.2c0.3,0.3,0.5,0.7,0.7,1.1H19.2v-1.9c0-0.6-0.3-1.1-0.7-1.5   c-0.5-0.4-1.1-0.5-1.6-0.3L5,26.9c-2.3,0.6-3.8,2.5-4,4.8c0,0.1,0,0.1,0,0.1v6.4c0,2.4,2,4.4,4.4,4.4h2.8c0-0.3-0.1-0.7-0.1-1   c0-4.7,3.8-8.5,8.5-8.5c4.7,0,8.5,3.8,8.5,8.5c0,0.3,0,0.7-0.1,1h14.1c0-0.3-0.1-0.7-0.1-1c0-4.7,3.8-8.5,8.5-8.5   c4.7,0,8.5,3.8,8.5,8.5c0,0.3,0,0.7-0.1,1h5c2.1,0,3.8-1.7,3.8-3.8v-1.9C65,36.4,64.9,36,64.9,35.5z M6.9,34.2   c-0.5,0.5-0.9,0.9-1.4,1.4H3v-2.7h3.9V34.2z M35.1,34.2h-2.8c-0.6,0-1-0.4-1-1s0.4-1,1-1h2.8c0.6,0,1,0.4,1,1S35.6,34.2,35.1,34.2z    M57.8,34.6v-1.9c0.7-0.7,1.2-1.2,1.8-1.8h0.1c0.1,0,0.1,0.1,0.2,0.1c0.2,0.1,0.3,0.3,0.5,0.4c0.1,0.1,0.2,0.2,0.3,0.3   c0.1,0.1,0.3,0.3,0.4,0.4c0.1,0.1,0.2,0.2,0.3,0.4c0.1,0.2,0.3,0.3,0.4,0.5c0.1,0.1,0.1,0.2,0.2,0.3c0.1,0.2,0.2,0.4,0.3,0.6   c0,0.1,0.1,0.1,0.1,0.2c0,0,0,0.1,0.1,0.1c0.1,0.2,0.1,0.3,0.2,0.4H57.8z"/></g><text x="0" y="81" fill="#000000" font-size="5px" font-weight="bold" font-family="'Helvetica Neue', Helvetica, Arial-Unicode, Arial, Sans-serif">Created by Vectors Point</text><text x="0" y="86" fill="#000000" font-size="5px" font-weight="bold" font-family="'Helvetica Neue', Helvetica, Arial-Unicode, Arial, Sans-serif">from the Noun Project</text></svg>