<svg xmlns="http://www.w3.org/2000/svg" viewBox="0 0 64 80" fill="none" x="0px" y="0px"><path fill-rule="evenodd" clip-rule="evenodd" d="M4 16C4 8.26801 10.268 2 18 2H39C46.732 2 53 8.26801 53 16V33.5035C50.8653 32.5377 48.4954 32 46 32C36.6112 32 29 39.6112 29 49C29 54.215 31.3482 58.8816 35.045 62H18C10.268 62 4 55.732 4 48V16ZM17 31C15.8954 31 15 31.8954 15 33C15 34.1046 15.8954 35 17 35H30C31.1046 35 32 34.1046 32 33C32 31.8954 31.1046 31 30 31H17ZM15 17C15 15.8954 15.8954 15 17 15H24C25.1046 15 26 15.8954 26 17C26 18.1046 25.1046 19 24 19H17C15.8954 19 15 18.1046 15 17ZM17 23C15.8954 23 15 23.8954 15 25C15 26.1046 15.8954 27 17 27H30C31.1046 27 32 26.1046 32 25C32 23.8954 31.1046 23 30 23H17Z" fill="black"/><path fill-rule="evenodd" clip-rule="evenodd" d="M37.0596 40.0436C37.6693 38.2218 39.3775 37 41.294 37H51.706C53.6225 37 55.3307 38.2218 55.9404 40.0436L56.7419 42.4385C57.5243 42.3315 58.3293 42.6967 58.7473 43.4234C59.2142 44.2354 59.048 45.2379 58.4029 45.8598C59.3874 46.8163 60 48.1533 60 49.6364V54.5455C60 57.0131 57.9938 59 55.5357 59C53.6365 59 52.0071 57.8139 51.3643 56.1364H41.6357C40.9929 57.8139 39.3635 59 37.4643 59C35.0062 59 33 57.0131 33 54.5455V49.6364C33 48.1736 33.5959 46.853 34.5569 45.8993C33.8769 45.2811 33.6933 44.2528 34.1702 43.4234C34.6021 42.6724 35.4475 42.3075 36.254 42.4508L37.0596 40.0436ZM39.8319 44.3636L40.8528 41.3131C40.914 41.1303 41.0891 41 41.294 41H51.706C51.9109 41 52.086 41.1303 52.1472 41.3131L53.1681 44.3636H39.8319Z" fill="black"/><text x="0" y="79" fill="#000000" font-size="5px" font-weight="bold" font-family="'Helvetica Neue', Helvetica, Arial-Unicode, Arial, Sans-serif">Created by HideMaru</text><text x="0" y="84" fill="#000000" font-size="5px" font-weight="bold" font-family="'Helvetica Neue', Helvetica, Arial-Unicode, Arial, Sans-serif">from the Noun Project</text></svg>