<svg xmlns="http://www.w3.org/2000/svg" xmlns:xlink="http://www.w3.org/1999/xlink" version="1.1" x="0px" y="0px" viewBox="0 0 500 625" style="enable-background:new 0 0 500 500;" xml:space="preserve"><path d="M451.6,302.2l13.9-13.9c21.2-21.2,21.2-55.5,0-76.7l-8.4-8.4c-3.6-3.6-5-8.9-3.6-13.9l3.2-11.4c8.1-28.8-8.7-58.8-37.5-66.9  l-8.4-2.4c-5.1-1.4-8.9-5.5-10-10.7l-1.9-8.5c-3.1-14.2-11.5-26.3-23.6-34.1c-12.2-7.8-26.7-10.5-40.8-7.4l-19.2,4.2  c-4.7,1-9.6-0.4-13.1-3.8l-13.9-13.9c-10.2-10.2-23.9-15.9-38.3-15.9c-14.5,0-28.1,5.6-38.3,15.9l-8.4,8.4c-3.6,3.6-9,5-13.9,3.6  L178,43.3c-13.9-3.9-28.6-2.2-41.2,4.9c-12.6,7.1-21.7,18.7-25.7,32.6l-2.4,8.4c-1.4,5.1-5.5,8.9-10.7,10l-7.7,1.7  C76,104,63.1,112.6,55.2,125.2c-7.6,12.1-10.1,26.4-7.1,40.4l4.2,19.2c1,4.7-0.4,9.6-3.8,13.1l-13.9,13.9  c-21.1,21.1-21.1,55.5,0,76.7l8.4,8.4c3.6,3.6,5,8.9,3.6,13.9l-3,10.5c-4,14.3-2.4,29.7,4.9,42.5C55.6,376,67,385,80.8,388.8l0,0  c10.2,2.9,18.1,11.2,20.3,21.6l0,0c3.1,14.2,11.5,26.3,23.6,34.1c12.2,7.8,26.7,10.5,40.8,7.4l19.2-4.2c4.7-1,9.6,0.4,13.1,3.8  l13.3,13.3c10.5,10.5,24.7,16.6,39.5,16.5c14.3-0.1,27.7-5.8,37.8-15.9l8.4-8.4c3.6-3.6,8.9-5,13.9-3.6l11.4,3.2  c13.9,3.9,28.6,2.2,41.2-4.9c12.6-7.1,21.7-18.7,25.7-32.6l2.4-8.4c1.4-5.1,5.5-8.9,10.7-10l8.5-1.9c29.2-6.3,47.8-35.2,41.5-64.5  l-4.2-19.2C446.7,310.5,448.2,305.6,451.6,302.2L451.6,302.2z M283.2,358.5h-62.5c-10.8,0-20.1-8.4-20.5-19.3  c-0.4-11.4,8.7-20.7,20-20.7h0c6.1,0,11-4.9,11-11V189.6l-7.9,2.8c-10.7,3.7-22.3-2.1-25.7-13c-3.2-10.4,2.8-21.4,13-24.9l34-11.8  c7.7-2.7,16.4-0.5,21.9,6c3.1,3.7,4.7,8.4,4.7,13.3l0,145.1c0,6.4,5.2,11.5,11.5,11.5l0,0c10.8,0,20.1,8.4,20.5,19.3  C303.6,349.1,294.5,358.5,283.2,358.5z"/><text x="0" y="515" fill="#000000" font-size="5px" font-weight="bold" font-family="'Helvetica Neue', Helvetica, Arial-Unicode, Arial, Sans-serif">Created by iconfield</text><text x="0" y="520" fill="#000000" font-size="5px" font-weight="bold" font-family="'Helvetica Neue', Helvetica, Arial-Unicode, Arial, Sans-serif">from the Noun Project</text></svg>