<svg xmlns="http://www.w3.org/2000/svg" data-name="Layer 1" viewBox="0 0 512 640" x="0px" y="0px"><path d="M218.457,355.454l-9.819-21.842a3.871,3.871,0,0,0-5.1-1.93l-3.284,1.481L213.3,361.924l3.23-1.435a3.8,3.8,0,0,0,2.016-2.13A3.763,3.763,0,0,0,218.457,355.454Z"/><path d="M290.55,366.281l21.014-2.167a5.469,5.469,0,0,0,4.879-6l-.782-7.52a.15.15,0,0,0-.165-.135L283.9,353.712a.169.169,0,0,0-.135.166l.782,7.528A5.48,5.48,0,0,0,290.55,366.281Z"/><path d="M164.538,192.12a308.339,308.339,0,0,0,31.172,57.819c2.561,3.252,33.242,42.858,29.866,69.048a24.047,24.047,0,0,1-6.331,13.832l5.638,12.541a36.524,36.524,0,0,0,10.5-21.406c4.034-27.727-15.463-62.666-23.022-72.257-22.941-29.107-36.4-54.646-55.4-105.1-2.158-5.733-5-9.146-8.443-10.145-2.7-.784-5.7-.037-8.076.974a262.568,262.568,0,0,1,14.609,31.466Z"/><path d="M89.7,80.36a15.785,15.785,0,0,0,5.421.407c7.726-.758,13.788-7.655,13.8-15.7l.03-19.739A23.363,23.363,0,0,0,93.753,23.5a6.747,6.747,0,0,0-9.2,4.794L74.468,68.046a8.262,8.262,0,0,0,6,9.989Z"/><path d="M274.676,362.923l-8.906.919a8.233,8.233,0,0,0-5.566,3.013,8.135,8.135,0,0,0-1.817,6.017l2.02,19.432,86.02-8.87-2.018-19.423a8.276,8.276,0,0,0-9.092-7.34l-8.9.917a15.438,15.438,0,0,1-13.827,16.473l-21.015,2.167a15.645,15.645,0,0,1-1.6.082A15.485,15.485,0,0,1,274.676,362.923Z"/><path d="M228.693,355.353a13.818,13.818,0,0,1-8.1,14.272l-3.166,1.406,11.135,24.556,21.9-2.258-2.018-19.423a18.281,18.281,0,0,1,16.3-20.012l9.062-.934a10.149,10.149,0,0,1,9.07-9.195l31.594-3.258a10.171,10.171,0,0,1,10.751,7.152l9.071-.935a18.3,18.3,0,0,1,20.063,16.254l2.019,19.431,71.525-7.375a22.124,22.124,0,0,0,7.793-19.161l-1.18-11.36a42.23,42.23,0,0,0-52.227-36.493l-143.275,35.5A45.072,45.072,0,0,1,228.693,355.353Z"/><path d="M182.529,318.293a21.416,21.416,0,0,0-36.061-4.653,21.056,21.056,0,0,0-4.664,15.587l7.742,74.507,68.525-7.065Zm-17.012,29.38a15.432,15.432,0,0,1-1.556.08,15,15,0,1,1,1.556-.08Z"/><path d="M163.975,327.753a5,5,0,1,0,4.97,4.485A5.036,5.036,0,0,0,163.975,327.753Z"/><path d="M430.526,384.816,150.579,413.681l6.04,58.126A19.253,19.253,0,0,0,177.756,488.9c.156-.016.313-.024.47-.026l233.326-2.031A28.34,28.34,0,0,0,436.765,459.4l1.016-67.9a6.453,6.453,0,0,0-2.1-4.966A6.522,6.522,0,0,0,430.526,384.816Z"/><path d="M191.636,314.163l4.486,9.893,3.32-1.5a13.9,13.9,0,0,1,13.98,1.557,15.158,15.158,0,0,0,2.236-6.4c2.418-18.728-19.326-50.9-27.909-61.721l-.2-.278A318.359,318.359,0,0,1,155.279,195.9l-9.51-23.3c-.019-.045-.037-.092-.054-.139-9.483-25.378-27.316-52.971-28.628-54.986-11.023-14.794-17.558-15.92-28.838-12.832A15.7,15.7,0,0,0,77.778,123.3l55.665,193.386a31.415,31.415,0,0,1,58.193-2.526Z"/><path d="M93.575,90.843a25.847,25.847,0,0,1-6.316-.786h0l-8.6-2.165.719,9.937a25.7,25.7,0,0,1,5.949-2.752c.058-.019.117-.037.176-.053,5.6-1.541,10.443-2.112,14.876-1.58L99.252,90.2a25.129,25.129,0,0,1-3.155.519Q94.837,90.844,93.575,90.843Z"/><text x="0" y="527" fill="#000000" font-size="5px" font-weight="bold" font-family="'Helvetica Neue', Helvetica, Arial-Unicode, Arial, Sans-serif">Created by Icongeek26</text><text x="0" y="532" fill="#000000" font-size="5px" font-weight="bold" font-family="'Helvetica Neue', Helvetica, Arial-Unicode, Arial, Sans-serif">from the Noun Project</text></svg>