<svg xmlns="http://www.w3.org/2000/svg" xmlns:xlink="http://www.w3.org/1999/xlink" xml:space="preserve" version="1.1" style="shape-rendering:geometricPrecision;text-rendering:geometricPrecision;image-rendering:optimizeQuality;" viewBox="0 0 333.33 416.66249999999997" x="0px" y="0px" fill-rule="evenodd" clip-rule="evenodd"><defs><style type="text/css">
   
    .fil0 {fill:black}
   
  </style></defs><g><path class="fil0" d="M166.7 7.12c139.52,0 209.66,165.41 118.81,266.47 -66.5,73.95 -185.28,69.3 -245.77,-9.82 -79,-103.34 -6.54,-256.65 126.96,-256.65zm-0.48 194.84c30.73,0 46.19,-36.44 26.17,-58.7 -14.65,-16.3 -40.81,-15.26 -54.15,2.17 -17.4,22.76 -1.43,56.54 27.98,56.54zm0.47 -144.22c10.68,0 20.77,1.43 30.17,4.06 -11.49,12.24 -26.91,55.65 -8.8,65.48 1.9,-22.62 14.22,-43.02 35.24,-54.02 9.33,5.69 17.59,12.72 24.63,20.74 -14.21,4.47 -55.32,30.82 -44.14,47.82 16.62,-20.2 43.04,-25.14 61.05,-22.02 11.14,23.54 14.13,50.92 6.85,76.82 -12.98,-12.16 -56.24,-26.24 -65.42,-8.99 22.63,1.35 43.29,13.16 54.81,33.91 -3.69,6.29 -8.08,12.37 -13.26,18.12 -2.2,2.45 -4.5,4.78 -6.87,6.98 -4.88,-14.25 -32.19,-54.4 -49.1,-42.94 20.28,16.78 25.1,43.46 21.8,61.44 -24.06,11.37 -51.49,13.41 -76.73,6.34 13.05,-13.93 27.88,-54.16 7.16,-66.21 -1.67,22.63 -13.72,43.12 -34.46,54.35 -8.97,-5.47 -17.26,-12.34 -24.56,-20.59 11.74,-3.89 54.3,-33.05 44.62,-47.2 -16.89,20.26 -43.7,24.96 -61.63,21.54 -11.83,-24.83 -13.09,-52.02 -5.94,-76.62 12.89,12.04 56.11,26.2 65.15,9.02 -22.63,-0.91 -43.46,-12.22 -55.38,-32.43 5.24,-9.4 11.84,-18.05 19.63,-25.59 5.53,15.22 32.64,53.68 50.22,41.75 -20.24,-16.88 -24.97,-43.65 -21.58,-61.58 13.77,-6.48 29.43,-10.17 46.55,-10.17zm-0.47 69.72c34.41,0 51.71,40.8 29.3,65.72 -16.4,18.24 -45.7,17.09 -60.62,-2.42 -19.48,-25.49 -1.62,-63.3 31.31,-63.3zm22.76 16.58c3.51,3.5 5.96,7.43 7.5,11.53 -11.1,10.57 -11.13,11.87 -0.11,22.38 -3.19,8.55 -9.86,15.78 -18.92,19.14 -10.6,-11.13 -11.88,-11.13 -22.46,-0.04 -8.78,-3.3 -15.74,-10.32 -19.01,-19.05 11.07,-10.56 11.06,-11.85 -0.03,-22.43 3.37,-9.14 10.59,-15.78 19.12,-18.93 10.5,11.01 11.81,10.98 22.37,-0.1 4.12,1.54 8.06,4 11.55,7.49zm-43.94 43.93c3.37,3.36 9.05,1.07 9.3,-3.56 0.18,-3.39 -2.8,-6.14 -6.16,-5.69 -4.4,0.59 -6.35,6.04 -3.13,9.26zm42.33 0c3.37,-3.37 1.07,-9.05 -3.56,-9.29 -3.39,-0.19 -6.14,2.79 -5.69,6.16 0.59,4.4 6.03,6.35 9.25,3.13zm-42.33 -42.33c3.37,-3.37 9.05,-1.07 9.3,3.56 0.18,3.39 -2.8,6.15 -6.16,5.69 -4.4,-0.59 -6.35,-6.03 -3.13,-9.25zm42.33 0c3.37,3.37 1.07,9.06 -3.56,9.3 -3.39,0.18 -6.14,-2.8 -5.69,-6.17 0.59,-4.4 6.03,-6.35 9.25,-3.13zm-21.15 4.91c14.22,0 21.37,16.86 12.11,27.17 -6.78,7.54 -18.89,7.06 -25.06,-1 -8.05,-10.54 -0.67,-26.17 12.94,-26.17zm0 2.96c11.63,0 17.47,13.79 9.9,22.21 -5.54,6.17 -15.45,5.78 -20.49,-0.81 -6.59,-8.61 -0.55,-21.4 10.59,-21.4zm0.47 -114.44c111.56,0 167.65,132.26 95,213.07 -53.17,59.13 -148.15,55.41 -196.52,-7.85 -63.17,-82.63 -5.23,-205.22 101.52,-205.22zm0 7.81c104.73,0 157.38,124.17 89.19,200.03 -49.91,55.52 -139.08,52.02 -184.49,-7.37 -59.3,-77.57 -4.91,-192.65 95.31,-192.65z"/></g><text x="0" y="348.33" fill="#000000" font-size="5px" font-weight="bold" font-family="'Helvetica Neue', Helvetica, Arial-Unicode, Arial, Sans-serif">Created by Sandhi Priyasmoro</text><text x="0" y="353.33" fill="#000000" font-size="5px" font-weight="bold" font-family="'Helvetica Neue', Helvetica, Arial-Unicode, Arial, Sans-serif">from the Noun Project</text></svg>