<svg xmlns="http://www.w3.org/2000/svg" data-name="Layer 1" viewBox="0 0 128 160" x="0px" y="0px"><title>ic_car_open_hatch</title><path d="M55,24H45a2,2,0,0,0,0,4h5.17l-6.58,6.59a2,2,0,0,0,2.82,2.82L53,30.83V36a2,2,0,0,0,4,0V26A2,2,0,0,0,55,24Z"/><path d="M125.54,80c0-1.11-.21-3.92-1.61-5.32-3.55-3.54-23.87-8.72-31.26-10.78-1.89-1-15.1-8.26-19.32-10.06a40.28,40.28,0,0,0-8.78-1.7l-31.72-15a2,2,0,0,0-1.7,3.62l22.2,10.48c-9.9-.42-20.82-.08-30.61,1.87-5.66,1.13-13.53,8-15.83,10.26C4.29,66,4.75,70.78,4,72.36c-2.07,4.12-1.73,5.79-1.91,8.91s.1,5.82,5.52,8a29.46,29.46,0,0,0,6,1.33A11.51,11.51,0,0,0,35,91.83L93,93.54a11.51,11.51,0,0,0,18.87.14,54.57,54.57,0,0,0,10-1.24,2,2,0,0,0,1-.53,14.46,14.46,0,0,0,2.43-3.6C126.53,85.91,125.79,81.34,125.54,80Zm-101,14.5A7.54,7.54,0,1,1,32.06,87,7.54,7.54,0,0,1,24.53,94.53Zm78,0A7.54,7.54,0,1,1,110.06,87,7.54,7.54,0,0,1,102.53,94.53Zm19.23-8a13.63,13.63,0,0,1-1.35,2.16,54.44,54.44,0,0,1-6.66.91,11.53,11.53,0,1,0-22.48-.1L36,87.86a11.52,11.52,0,1,0-23-1.39,21.67,21.67,0,0,1-3.95-.91c-3.19-1.28-3.15-1.93-3-4,.18-3-.2-4,1.49-7.36,1.16-2.31.82-6.52,2.2-7.9,2.52-2.51,9.49-8.31,13.79-9.17,18-3.58,44-1.36,48.26.46s19,9.93,19.16,10a2.26,2.26,0,0,0,.43.17c7.13,2,26.49,7,29.7,9.79.44.6.46,2.86.51,3.11C122,82.78,122.18,85.66,121.76,86.52Z"/><text x="0" y="143" fill="#000000" font-size="5px" font-weight="bold" font-family="'Helvetica Neue', Helvetica, Arial-Unicode, Arial, Sans-serif">Created by LAFS</text><text x="0" y="148" fill="#000000" font-size="5px" font-weight="bold" font-family="'Helvetica Neue', Helvetica, Arial-Unicode, Arial, Sans-serif">from the Noun Project</text></svg>