<svg xmlns="http://www.w3.org/2000/svg" data-name="Layer 1" viewBox="0 0 100 125" x="0px" y="0px"><title>Untitled-28</title><path d="M53,74.54h1.55l11.66-34-1.54-2.28V7.92h-3v26l-2.94-4.37-18.28.3L38.27,33.4V7.92h-3v30.2l-1.54,2.45,11,34h2.43l-4.8,4.8v5.1a7.64,7.64,0,0,0,15.28,0H53.49a3.49,3.49,0,0,1-7,0V81.05ZM42.84,43.81A7.16,7.16,0,1,1,50,51,7.17,7.17,0,0,1,42.84,43.81Z"/><text x="0" y="115" fill="#000000" font-size="5px" font-weight="bold" font-family="'Helvetica Neue', Helvetica, Arial-Unicode, Arial, Sans-serif">Created by MD RIDUWAN MOLLA</text><text x="0" y="120" fill="#000000" font-size="5px" font-weight="bold" font-family="'Helvetica Neue', Helvetica, Arial-Unicode, Arial, Sans-serif">from the Noun Project</text></svg>